<svg width="1440" height="979" viewBox="0 0 1440 979" fill="none" xmlns="http://www.w3.org/2000/svg">
<mask id="mask0_38_336" style="mask-type:luminance" maskUnits="userSpaceOnUse" x="-2" y="0" width="1442" height="979">
<path d="M1440 0H-2V979H1440V0Z" fill="white"/>
</mask>
<g mask="url(#mask0_38_336)">
<path d="M521.125 841.63H1667.82C1667.82 841.63 1608.17 779.718 1547.52 784.378C1509.7 717.747 1448.06 730.141 1448.06 730.141C1441.78 711.031 1420.5 697.756 1401.26 705.431C1380.93 650.098 1310.27 631.497 1258.11 651.117C1256.05 560.52 1180.45 514.154 1109.81 527.038C1079.43 423.91 856.246 439.496 862.096 581.47C807.465 553.667 740.082 587.423 746.242 645.752C668.497 627.17 620.541 683.972 641.017 754.753C590.835 749.251 521.146 841.63 521.146 841.63H521.125Z" fill="#FFF2E8"/>
<path d="M-19.3203 435.773C47.7533 435.773 97.3581 473.798 120.162 531.95C160.724 506.203 203.283 539.763 204.499 568.741C257.647 544.325 340.85 605.982 339.799 723.874C384.584 715.552 399.601 758.393 405.431 775.31C442.511 756.729 475.986 783.338 478.046 799.922C528.104 769.338 656.112 815.116 669.997 838.945H-19.3203V435.754V435.773Z" fill="#FFF2E8"/>
<path d="M1440.01 824.318H-1.99219V979H1440.01V824.318Z" fill="#808080"/>
<path d="M262.818 559.559C262.818 559.559 255.217 608.058 258.781 643.792C231.486 619.121 158.067 626.777 126.735 596.996C126.735 596.996 105.249 592.747 94.0631 611.465C82.8773 630.184 107.494 634.863 107.494 634.863C107.494 634.863 118.68 633.591 139.733 645.926C160.766 658.261 216.715 688.826 239.993 699.712C263.271 710.599 295.943 710.168 312.052 676.138C328.161 642.108 349.647 574.459 349.647 574.459L262.818 559.559Z" fill="#FF8C8C"/>
<path d="M262.824 559.559C262.824 559.559 261.526 567.782 260.27 579.961C259.775 584.739 264.039 588.615 269.066 588.165C282.724 586.931 307.32 595.703 325.366 612.973C329.28 616.713 335.954 615.264 337.705 610.251C344.668 590.162 349.674 574.459 349.674 574.459L262.845 559.559H262.824Z" fill="#1B193B"/>
<path d="M262.368 523.393L247.145 567.643C247.145 567.643 297.285 581.682 324.58 582.544C351.875 583.405 262.368 523.412 262.368 523.412V523.393Z" fill="#A8BFCA"/>
<path d="M351.754 216.575C338.612 213.109 322.338 216.36 314.242 229.459C311.873 233.296 307.506 235.783 302.829 235.861C292.488 236.038 283.63 242.186 282.868 251.662C282.497 256.499 279.263 260.65 274.896 263.175C262.783 270.166 260.847 286.613 278.336 295.639C299.657 306.643 321.06 296.912 321.06 296.912L351.775 216.555L351.754 216.575Z" fill="#4C6637"/>
<path d="M378.201 519.027C378.201 519.027 417.485 558.285 437.281 590.181C455.554 619.609 527.757 772.764 538.901 796.436C539.849 798.453 541.414 800.117 543.413 801.233L556.803 808.772C556.803 808.772 563.518 835.89 519.867 841.647L512.636 822.517C511.174 818.62 509.031 814.998 506.312 811.787C469.706 768.241 414.168 711.557 403.394 655.676C400.613 641.304 390.952 628.949 377.109 622.585C357.724 613.677 330.038 598.208 305.895 574.458C305.895 574.458 318.955 508.728 378.159 519.046L378.201 519.027Z" fill="#FF8C8C"/>
<path d="M338.92 543.776L357.192 542.777C361.25 542.562 365.02 540.741 367.657 537.784C372.58 532.223 377.38 526.193 381.891 519.673L368.131 505.32C368.131 505.32 372.168 479.788 366.462 453.316L281.199 435.439C256.685 453.943 238.783 502.481 262.061 532.772C268.447 541.074 276.152 547.77 276.152 547.77C276.152 547.77 276.481 559.89 291.931 567.232C300.315 585.736 304.353 587.341 304.353 587.341C304.353 587.341 312.675 583.347 324.665 575.26C331.545 570.62 336.118 563.453 337.272 555.504L338.94 543.776H338.92Z" fill="#A8BFCA"/>
<path d="M318.541 457.212C328.037 461.031 338.688 461.383 348.555 458.505L366.436 453.296L281.172 435.42C276.991 438.572 273.015 442.586 269.41 447.246C266.299 451.26 270.769 456.684 275.61 454.785C291.143 448.695 307.602 452.787 318.561 457.193L318.541 457.212Z" fill="#1B193B"/>
<path d="M361.043 309.973C380.325 318.098 388.606 326.596 396.434 338.089C404.262 349.583 434.029 389.35 434.029 389.35L482.274 343.689C485.22 340.889 486.827 337.091 486.744 333.136C486.538 323.874 487.548 307.564 497.6 311.089C497.6 311.089 505.882 303.12 511.485 309.973C517.088 309.796 517.974 312.772 518.2 315.749C524.01 317.452 522.671 321.916 522.671 321.916C522.671 321.916 527.821 321.486 525.246 329.141C522.671 336.797 510.146 345.471 506.108 348.271C506.108 348.271 483.551 393.834 458.522 425.867C446.657 441.061 422.967 441.746 410.05 427.355C399.709 415.842 387.061 399.825 374.268 378.894L361.043 309.953V309.973Z" fill="#FF8C8C"/>
<path d="M499.613 313.635L506.329 319.626C507.565 320.723 507.647 322.583 506.494 323.758C505.546 324.756 504.001 324.991 502.745 324.365L495.02 320.449" stroke="#1B193B" stroke-linecap="round" stroke-linejoin="round"/>
<path d="M508.328 311.93C508.328 311.93 504.929 313.242 502.602 316.296" stroke="#1B193B" stroke-linecap="round" stroke-linejoin="round"/>
<path d="M515.171 316.314C515.171 316.314 511.463 316.706 507.281 321.405" stroke="#1B193B" stroke-linecap="round" stroke-linejoin="round"/>
<path d="M519.536 321.387C519.206 321.504 513.15 322.248 509.586 329.375" stroke="#1B193B" stroke-linecap="round" stroke-linejoin="round"/>
<path d="M520.977 326.496C520.977 326.496 516.61 328.297 515.168 331.489" stroke="#1B193B" stroke-linecap="round" stroke-linejoin="round"/>
<path d="M502.602 326.496C502.602 326.496 501.84 330.98 508.885 330.647C509.565 334.583 513.355 336.364 518.052 335.013" stroke="#1B193B" stroke-linecap="round" stroke-linejoin="round"/>
<path d="M337.351 301.941L356.591 308.09C362.009 309.832 366.685 313.2 369.878 317.703C378.778 330.235 397.75 354.435 376.841 392.323C376.841 392.323 373.813 416.778 371.465 433.108C376.841 448.478 366.438 453.275 366.438 453.275L274.789 438.923C274.789 438.923 268.732 436.965 278.579 418.834C280.783 414.801 281.134 410.082 279.424 405.833C273.491 391.03 259.792 356.746 256.661 348.307C252.623 337.46 263.376 308.422 263.376 308.422C263.376 308.422 286.613 295.774 312.899 295.656L337.351 301.941Z" fill="#364CA3"/>
<path d="M338.012 471.701C338.012 471.701 355.254 490.42 365.307 502.755" stroke="#1B193B" stroke-linecap="round" stroke-linejoin="round"/>
<path d="M361.046 476.168C361.046 476.168 359.563 484.137 356.617 492.498" stroke="#1B193B" stroke-linecap="round" stroke-linejoin="round"/>
<path d="M519.455 831.917L547.739 824.085C533.298 813.865 544.711 801.431 559.481 806.855C574.251 812.279 606.49 794.794 619.571 804.505L623.918 808.715C625.71 810.458 625.833 813.179 624.185 815.059C617.902 822.225 600.351 839.103 566.505 850.89C547.141 869.08 531.485 874.621 523.76 876.325C521 876.932 518.363 875.033 518.198 872.35L517.168 856.647C517.168 856.647 514.326 850.773 513.419 840.161C513.09 836.421 515.644 832.975 519.455 831.917Z" fill="#A8BFCA"/>
<path d="M557.176 838.123C539.748 857.899 517.191 856.626 517.191 856.626L518.221 872.329C518.407 875.012 521.044 876.911 523.783 876.304C531.508 874.62 547.164 869.079 566.528 850.869C600.374 839.082 617.925 822.185 624.208 815.038C625.856 813.158 625.733 810.437 623.941 808.694L619.594 804.484C610.2 815.214 588.364 834.285 557.197 838.123H557.176Z" fill="#1B193B"/>
<path d="M126.078 604.437L101.956 617.634C117.612 623.939 110.072 637.802 95.2193 635.961C80.3667 634.121 54.8845 657.029 40.5675 650.92L35.5823 647.983C33.5223 646.769 32.7601 644.283 33.8313 642.207C37.9101 634.297 50.0641 615.05 78.3685 597.017C91.8821 576.184 104.943 567.764 111.638 564.573C114.027 563.437 116.891 564.612 117.694 567.04L122.35 581.255C122.35 581.255 126.346 586.052 129.683 595.587C130.857 598.955 129.333 602.656 126.078 604.437Z" fill="#A8BFCA"/>
<path d="M89.987 606.767C101.338 584.897 122.35 581.255 122.35 581.255L117.694 567.04C116.911 564.612 114.027 563.437 111.638 564.573C104.922 567.764 91.8616 576.184 78.3685 597.017C50.0435 615.05 37.9101 634.297 33.8313 642.207C32.7601 644.283 33.5223 646.769 35.5823 647.983L40.5675 650.92C46.6858 639.074 62.2388 616.91 89.9664 606.748L89.987 606.767Z" fill="#1B193B"/>
<path d="M171.558 366.618C193.868 349.211 230.845 322.465 265.041 307.408C281.83 300.007 301.709 309.679 304.861 327.027C308.012 344.375 304.325 365.228 287.557 372.238C273.796 377.975 260.962 359.373 260.962 359.373L194.898 401.901L192.22 496.668C199.986 503.287 204.024 516.033 205.074 523.317C205.26 524.59 204.456 525.784 203.2 526.234C201.716 526.743 200.048 526.038 199.512 524.609C198.915 523.023 198.008 520.908 196.793 518.853C194.733 515.328 189.13 516.17 188.244 520.125C187.193 524.805 187.008 531.423 190.613 539.04C191.375 540.645 190.716 542.544 189.068 543.367C187.399 544.189 185.339 543.602 184.412 542.035C183.856 541.076 183.218 539.999 182.703 539.098C178.232 539.94 175.101 533.988 175.101 533.988C175.101 533.988 169.725 534.83 167.5 529.093C162.123 527.389 160.104 512.509 169.519 496.766C169.519 496.766 157.406 450.577 152.75 410.399C150.814 393.717 157.962 377.23 171.599 366.599L171.558 366.618Z" fill="#FF8C8C"/>
<path d="M287.536 372.237C287.536 372.237 287.577 372.218 287.618 372.198C291.532 370.554 293.428 366.266 292.253 362.35L291.924 361.253C289.266 352.325 278.225 348.448 270.088 353.578L260.941 359.354C260.941 359.354 273.775 377.955 287.536 372.218V372.237Z" fill="#1B193B"/>
<path d="M179.739 522.219C179.739 522.219 179.43 529.503 181.841 535.788" stroke="#1B193B" stroke-linecap="round" stroke-linejoin="round"/>
<path d="M173.512 518.834C173.512 518.834 173.862 523.69 175.592 530.171" stroke="#1B193B" stroke-linecap="round" stroke-linejoin="round"/>
<path d="M168.281 516.602C168.281 516.602 167.951 520.85 169.331 526.822" stroke="#1B193B" stroke-linecap="round" stroke-linejoin="round"/>
<path d="M374.329 231.847C374.329 231.847 381.147 240.266 380.9 251.31C380.859 253.052 381.477 254.756 382.61 256.107L384.814 258.73C386.421 260.63 385.412 263.469 382.919 264.037L380.035 264.702C380.035 264.702 378.861 290.078 354.017 285.927L347.425 307.485C346.807 309.482 344.953 310.95 342.749 311.068C329.194 311.773 318.42 303.725 312.879 295.658L327.155 259.768C327.155 259.768 348.805 223.075 374.329 231.847Z" fill="#FF8C8C"/>
<path opacity="0.42" d="M358.831 266.093C361.937 266.093 364.455 263.7 364.455 260.748C364.455 257.796 361.937 255.402 358.831 255.402C355.725 255.402 353.207 257.796 353.207 260.748C353.207 263.7 355.725 266.093 358.831 266.093Z" fill="#CC3347"/>
<path d="M354.014 285.93C347.339 285.009 341.633 281.7 338.275 277.608C337.266 276.374 335.165 277.021 335.124 278.567C334.856 288.71 339.82 301.202 348.328 304.511L354.014 285.91V285.93Z" fill="#1B193B"/>
<path d="M337.683 260.141C337.909 259.828 350.104 257.791 346.849 235.686C346.849 235.686 334.551 240.659 332.162 248.217C329.772 255.775 337.662 260.161 337.662 260.161L337.683 260.141Z" fill="#4C6637"/>
<path d="M329.937 249.821C329.937 249.821 328.33 231.063 345.943 218.042C347.591 216.828 349.672 216.28 351.752 216.574C357.232 217.377 368.315 220.431 374.35 231.827C374.35 231.827 352.123 227.46 335.231 253.032L329.937 249.801V249.821Z" fill="#364CA3"/>
<path d="M338.358 254.97L334.423 250.036C331.683 246.61 326.368 246.355 323.278 249.527L323.011 249.801C320.497 252.386 320.415 256.341 322.825 259.023L327.028 263.683C329.685 266.62 334.341 266.914 337.389 264.349C340.232 261.941 340.644 257.868 338.358 254.99V254.97Z" fill="#FF8C8C"/>
<path d="M326.168 253.385C326.168 253.385 330.7 250.664 333.728 260.571" stroke="#1B193B" stroke-linecap="round" stroke-linejoin="round"/>
<path d="M262.039 532.754C268.425 541.056 276.129 547.752 276.129 547.752C276.129 547.752 276.459 559.872 291.909 567.215C293.433 570.582 294.814 573.402 296.07 575.732" stroke="#1B193B" stroke-linecap="round" stroke-linejoin="round"/>
<path d="M332.778 387.019C348.455 387.136 363.637 387.998 378.181 389.78C385.597 375.33 387.183 362.916 385.864 352.441C370.229 349.464 353.378 347.409 335.559 346.097C332.325 345.862 329.503 348.153 329.235 351.227L326.578 380.479C326.269 383.945 329.111 386.98 332.778 386.999V387.019Z" fill="#FFF2E8"/>
<path d="M362.773 245.709L374.948 247.315" stroke="#4C6637" stroke-width="2" stroke-linecap="round" stroke-linejoin="round"/>
<path d="M371.733 256.793C373.508 256.793 374.947 255.425 374.947 253.738C374.947 252.051 373.508 250.684 371.733 250.684C369.958 250.684 368.52 252.051 368.52 253.738C368.52 255.425 369.958 256.793 371.733 256.793Z" fill="#1B193B"/>
<path d="M373.362 265.388L361.208 262.705C360.158 262.471 359.107 263.136 358.942 264.154C358.324 267.875 357.603 275.981 362.774 276.979C367.944 277.978 372.559 270.44 374.248 267.189C374.619 266.465 374.186 265.584 373.362 265.408V265.388Z" fill="#1B193B"/>
<path opacity="0.5" d="M358.551 267.895C358.386 271.732 359.004 276.236 362.795 276.98C365.576 277.508 368.151 275.648 370.211 273.299C366.667 270.048 361.991 268.58 358.572 267.914L358.551 267.895Z" fill="#CC3347"/>
<path d="M463.457 745.117L435.606 765.441C435.606 765.441 411.731 793.93 400.38 793.871L394.035 791.776C391.708 791.013 390.204 788.878 390.327 786.548C390.945 776.151 394.571 747.428 415.645 725.948C420.094 706.623 427.263 696.03 434.102 690.548C436.616 688.531 440.303 688.629 442.775 690.704C449.202 696.089 461.954 707.563 469.679 719.78L463.478 745.117H463.457Z" fill="#1B193B"/>
<path d="M425.594 729.943C427.551 711.949 438.284 699.829 448.934 696.109C446.585 693.955 444.443 692.115 442.754 690.705C440.282 688.649 436.594 688.551 434.081 690.549C427.242 696.031 420.073 706.624 415.624 725.949C394.55 747.428 390.924 776.152 390.306 786.549C390.162 788.879 391.686 791.014 394.014 791.777L400.359 793.872C401.018 777.601 407.487 749.915 425.573 729.943H425.594Z" fill="#364CA3"/>
<path d="M678.196 605.101C678.196 605.101 673.004 628.695 661.613 653.249C655.35 666.7 644.123 677.508 630.053 683.656C590.501 700.965 501.036 739.009 456.601 749.014C441.625 743.16 444.118 727.379 450.854 717.98C453.408 714.417 457.652 712.282 462.184 712.145L467.334 711.989C467.334 711.989 567.718 631.887 591.552 633.179L603.974 598.072L678.196 605.101Z" fill="#9E3844"/>
<path d="M897.044 807.619L937.337 808.676C937.337 808.676 980.309 799.748 990.382 807.619L994.441 813.865C995.924 816.156 995.656 819.093 993.761 821.07C985.294 829.901 960.162 852.986 925.039 857.626C906.355 871.763 891.894 876.266 881.614 876.442C877.845 876.501 874.631 873.877 874.013 870.353C872.386 861.131 869.769 842.138 872.221 825.946L897.064 807.658L897.044 807.619Z" fill="#1B193B"/>
<path d="M919.209 847.188C903.759 861.873 884.972 865.261 872.633 861.266C873.086 864.81 873.58 867.924 874.013 870.332C874.631 873.856 877.845 876.5 881.614 876.421C891.894 876.245 906.334 871.742 925.039 857.605C960.162 852.984 985.294 829.899 993.761 821.049C995.656 819.072 995.924 816.135 994.441 813.844L990.382 807.598C977.404 821.637 950.542 841.843 919.209 847.169V847.188Z" fill="#364CA3"/>
<path d="M788.728 559.146C801.706 579.568 822.739 611.053 830.361 633.609C837.138 653.698 892.222 782.496 904.17 810.377C905.695 813.961 905.221 818.033 902.852 821.166C896.919 829.057 889.689 833.501 880.872 833.658C876.278 833.736 872.22 830.839 870.737 826.707L867.935 818.914C867.09 816.545 865.793 814.333 864.103 812.414C849.766 796.025 778.778 712.908 765.924 658.28L705.051 600.304L788.749 559.146H788.728Z" fill="#9E3844"/>
<path d="M722.482 463.852C722.482 463.852 771.262 528.955 788.731 559.148C788.731 559.148 729.197 602.968 692.941 613.6C692.941 613.6 671.909 591.905 664.287 575.301C638.763 563.808 635.632 542.857 635.632 542.857C635.632 542.857 588.19 494.044 621.315 437.869L722.482 463.813V463.852Z" fill="#A8BFCA"/>
<path d="M695.167 552.351C695.167 552.351 679.944 611.072 675.474 624.68C675.474 624.68 620.863 635.312 579.23 605.53C579.23 605.53 586.832 586.381 594.454 575.318C596.699 546.379 604.754 529.482 604.754 529.482C604.754 529.482 592.044 477.262 618.679 442.684L695.167 552.351Z" fill="#A8BFCA"/>
<path d="M692.94 613.617C729.196 602.985 788.73 559.165 788.73 559.165C786.629 555.523 784.074 551.372 781.19 546.908C753.195 568.133 706.351 592.04 683.855 603.534C688.964 609.525 692.94 613.617 692.94 613.617Z" fill="#1B193B"/>
<path d="M612.151 459.564C611.306 462.736 614.458 465.516 617.754 464.596C658.295 453.396 727.964 471.253 727.964 471.253V471.214C724.544 466.613 722.464 463.832 722.464 463.832L621.297 437.889C616.95 445.27 613.984 452.535 612.13 459.564H612.151Z" fill="#1B193B"/>
<path d="M677.281 595.509C672.275 589.067 667.249 581.803 664.283 575.322C638.759 563.829 635.628 542.878 635.628 542.878C635.628 542.878 607.839 514.272 609.651 475.68" stroke="#1B193B" stroke-linecap="round" stroke-linejoin="round"/>
<path d="M841.098 253.875C839.533 239.836 816.255 205.806 781.338 226.639C752.683 243.752 764.775 271.517 774.849 278.546C782.656 283.989 841.098 253.875 841.098 253.875Z" fill="#1B193B"/>
<path d="M803.776 316.217C815.806 324.93 826.559 342.493 823.201 362.269L841.103 405.658L890.337 368.319L896.125 352.068C896.949 349.738 898.268 347.604 899.978 345.763L912.07 332.84C913.038 331.803 914.707 331.666 915.86 332.547C916.973 333.408 917.199 334.955 916.355 336.091L910.133 344.373L931.125 325.615C933.494 323.481 937.264 323.657 939.406 325.987L939.468 326.046L940.024 325.517C941.487 324.147 943.856 324.206 945.215 325.655C946.492 327.006 946.431 329.101 945.05 330.373L943.382 331.92L945.153 334.524C946.637 336.717 946.492 339.556 944.783 341.593L940.024 347.232L940.106 347.369C942.022 350.462 941.445 354.398 938.706 356.865L909.804 382.965C909.804 382.965 886.485 425.101 855.935 457.134C844.625 469 824.932 469.215 813.767 457.213C801.613 444.153 787.955 423.085 782.352 391.248L803.755 316.158L803.776 316.217Z" fill="#9E3844"/>
<path d="M937.123 328.924L915.184 349.816" stroke="#1B193B" stroke-linecap="round" stroke-linejoin="round"/>
<path d="M941.59 334.113C941.261 334.387 919.445 355.025 919.445 355.025" stroke="#1B193B" stroke-linecap="round" stroke-linejoin="round"/>
<path d="M937.121 348.66L924.164 360.682" stroke="#1B193B" stroke-linecap="round" stroke-linejoin="round"/>
<path d="M912.172 346.312L926.159 363.073" stroke="#1B193B" stroke-linecap="round" stroke-linejoin="round"/>
<path d="M791.601 358.884L782.352 391.309C782.764 393.658 783.217 395.969 783.732 398.201C785.545 406.268 797.41 406.894 799.985 399.023C806.227 379.991 811.13 356.3 808.884 341.869L791.601 358.884Z" fill="#1B193B"/>
<path d="M724.268 276.158C743.982 282.385 769.444 295.562 796.368 310.502C802.857 313.83 807.554 319.645 809.161 326.498C811.303 335.721 812.024 350.073 804.629 368.36C797.233 386.648 777.21 403.135 777.21 403.135L747.999 441.1L740.563 464.89C738.873 470.294 732.57 473.094 727.152 470.764C700.351 459.251 631.918 444.859 617.066 442.686C599.617 440.141 610.68 420.991 623.781 415.568C630.167 389.409 645.267 376.31 645.267 376.31L672.459 310.482L724.268 276.158Z" fill="#7E0E18"/>
<path d="M627.781 251.525C658.557 258.535 699.077 268.246 724.271 276.157C735.313 279.622 741.101 291.175 736.94 301.493C727.032 326.164 706.679 366.283 681.732 357.903C666.509 352.793 675.923 324.715 675.923 324.715L617.275 303.02L547.894 378.795L544.433 400.137C543.774 404.132 541.467 407.734 538.006 410.084L528.86 416.31C528.571 416.506 528.303 416.721 528.056 416.937L527.315 417.603C524.657 420.031 520.64 420.481 517.447 418.719L504.964 429.546C501.709 432.366 496.559 429.683 497.321 425.572V425.474C494.54 423.653 493.325 421.949 493.675 418.582C492.089 416.349 490.853 413.334 492.83 410.241C490.667 409.477 489.287 408.106 490.152 405.13L524.163 370.239L567.649 279.427C578.073 257.654 603.287 245.945 627.76 251.505L627.781 251.525Z" fill="#9E3844"/>
<path d="M494.52 407.892L506.612 396.262" stroke="#1B193B" stroke-linecap="round" stroke-linejoin="round"/>
<path d="M496.766 415.98L511.186 402.078" stroke="#1B193B" stroke-linecap="round" stroke-linejoin="round"/>
<path d="M499.734 422.517L515.72 407.107" stroke="#1B193B" stroke-linecap="round" stroke-linejoin="round"/>
<path d="M518.523 415.979L531.79 403.918" stroke="#1B193B" stroke-linecap="round" stroke-linejoin="round"/>
<path d="M579.23 605.533C620.863 635.314 675.474 624.682 675.474 624.682C676.153 622.607 677.101 619.454 678.193 615.636C631.225 616.811 610.131 609.782 583.577 595.508C580.961 601.206 579.251 605.533 579.251 605.533H579.23Z" fill="#1B193B"/>
<path d="M675.926 324.715C675.926 324.715 673.125 333.056 673.063 341.475C672.981 350.6 684.681 355.181 691.5 348.74C698.133 342.474 695.723 331.764 686.968 328.65L675.926 324.715Z" fill="#1B193B"/>
<path d="M841.095 253.875L842.413 270.577C842.578 272.613 843.134 274.591 844.082 276.412L846.08 280.308C847.172 282.442 845.544 284.929 843.052 284.929H839.282C839.282 284.929 846.224 319.605 804.591 307.7L796.31 314.925C796.31 314.925 802.799 348.955 781.087 348.544C763.144 348.192 756.676 311.538 754.966 298.811C754.616 296.148 755.728 293.524 757.891 291.821L774.824 278.565C774.824 278.565 800.492 275.687 808.155 259.906C809.515 257.125 812.316 255.246 815.53 255.089L841.074 253.875H841.095Z" fill="#9E3844"/>
<path d="M802.283 275.785L798.307 267.483C796.412 263.509 791.303 262.001 787.369 264.233C783.764 266.269 782.548 270.695 784.629 274.141L790.5 283.872L802.283 275.785Z" fill="#9E3844"/>
<path d="M787.762 269.244C787.762 269.244 791.799 266.855 795.322 277.213" stroke="#1B193B" stroke-linecap="round" stroke-linejoin="round"/>
<path d="M804.614 307.7C799.855 306.035 795.921 301.082 793.304 296.108C791.615 292.878 786.63 293.328 785.435 296.754C782.551 305.115 782.201 314.161 782.366 320.152C782.448 322.913 785.93 324.303 788.051 322.404L804.593 307.7H804.614Z" fill="#1B193B"/>
<path d="M821.344 264.957L834.878 269.01" stroke="#1B193B" stroke-width="2" stroke-linecap="round" stroke-linejoin="round"/>
<path d="M829.844 277.645C831.505 277.645 832.851 276.365 832.851 274.786C832.851 273.208 831.505 271.928 829.844 271.928C828.182 271.928 826.836 273.208 826.836 274.786C826.836 276.365 828.182 277.645 829.844 277.645Z" fill="#1B193B"/>
<path d="M832.215 293.014C831.37 297.047 828.671 300.239 826.22 300.122C823.769 300.004 822.43 296.656 823.295 292.622C824.16 288.589 826.838 285.397 829.289 285.515C831.741 285.632 833.08 288.98 832.215 293.014Z" fill="#1B193B"/>
<path opacity="0.69" d="M815.53 289.355C818.932 289.355 821.69 286.734 821.69 283.501C821.69 280.268 818.932 277.646 815.53 277.646C812.129 277.646 809.371 280.268 809.371 283.501C809.371 286.734 812.129 289.355 815.53 289.355Z" fill="#CC3347"/>
<path d="M722.438 365.365L702.621 397.084C700.664 400.217 701.714 404.29 704.99 406.169C722.232 416.038 740.937 422.107 761.331 423.733L777.193 403.095C777.193 403.095 777.749 402.625 778.676 401.842L788.935 386.942C790.212 385.082 789.161 382.615 786.895 382.086C766.481 377.328 747.714 370.906 730.41 362.995C727.526 361.684 724.065 362.721 722.438 365.325V365.365Z" fill="#FFF2E8"/>
<path d="M839.39 406.912L823.961 418.131" stroke="#1B193B" stroke-linecap="round" stroke-linejoin="round"/>
<path d="M1077.41 270.775C1070.51 253.114 1037.61 252.056 1029.33 273.536C1021.04 295.015 1028.44 313.322 1008.07 314.38C987.693 315.437 979.865 325.442 983.449 337.562C991.051 325.853 1004.48 328.634 1021.5 332.041C1038.51 335.448 1060.72 318.844 1064.47 295.661C1068.22 272.478 1077.41 270.775 1077.41 270.775Z" fill="#364CA3"/>
<path d="M1077.41 270.775C1076.13 267.505 1073.94 264.803 1071.18 262.708C1068.3 260.515 1064.08 261.2 1061.91 264.079C1060.53 265.919 1059.4 267.916 1058.58 270.07C1052.36 286.243 1057.26 299.342 1061.28 306.332C1062.74 302.984 1063.83 299.42 1064.45 295.681C1068.2 272.498 1077.39 270.794 1077.39 270.794L1077.41 270.775Z" fill="#1B193B"/>
<path d="M994.184 610.293C994.184 610.293 989.714 652.84 986.789 680.076C950.759 673.693 877.341 720.489 842.424 724.327L823.184 762.195L1005.64 727.949C1026.46 724.033 1043.5 709.857 1050.32 690.747C1058.72 667.212 1069.04 634.827 1072.07 610.313H994.184V610.293Z" fill="#FF7254"/>
<path d="M1049.93 621.689H986.809L991.114 608.218C993.359 601.227 993.318 593.767 991.217 586.738C986.438 570.761 981.782 538.141 1010.99 512.236L1049.93 621.669V621.689Z" fill="#7E0E18"/>
<path d="M1114.38 564.242C1114.38 564.242 1170.11 611.469 1197.3 644.344C1224.49 677.219 1312.12 831.979 1312.12 831.979L1286.6 847.291C1286.6 847.291 1176.49 750.605 1157 683.915C1157 683.915 1078.44 644.99 1055.28 624.881C1055.28 624.881 1063.67 567.12 1114.36 564.262L1114.38 564.242Z" fill="#FF7254"/>
<path d="M1106.33 503.288C1106.33 503.288 1108.35 531.366 1106.33 548.283L1123.78 566.473L1097.98 593.983C1095.41 596.724 1091.17 597.35 1087.85 595.471L1079.46 590.732L1084.59 600.248C1086.1 603.048 1085.64 606.436 1083.46 608.805L1062.02 631.89C1062.02 631.89 1015.69 608.589 1002.26 575.734C988.824 542.859 1019.7 496.592 1019.7 496.592L1106.33 503.288Z" fill="#73020C"/>
<path d="M1106.6 507.909C1106.43 505.031 1106.31 503.288 1106.31 503.288L1019.69 496.592C1019.69 496.592 1015.57 502.779 1010.97 512.236C1052.01 522.359 1106.58 507.909 1106.58 507.909H1106.6Z" fill="#1B193B"/>
<path d="M1103.86 545.836C1091.11 533.07 1085.5 527.881 1085.5 527.881" stroke="#1B193B" stroke-linecap="round" stroke-linejoin="round"/>
<path d="M1116.34 361.47C1130.27 366.306 1184.88 416.294 1184.88 416.294L1239.49 359.923C1239.49 359.923 1236.58 339.501 1250.01 339.07C1250.01 339.07 1255.62 330.553 1261.2 335.037C1266.35 334.606 1267.69 338.228 1268.14 339.501C1272.61 339.716 1273.74 342.477 1274.18 343.965C1277.99 345.022 1280.21 363.114 1262.31 372.043L1212.54 448.542C1201.48 465.537 1177.15 469.277 1161.02 456.472L1113.93 419.054L1116.34 361.47Z" fill="#FF7254"/>
<path d="M1109.33 358.1L1110.49 358.472C1115.51 360.097 1119.67 363.485 1122.12 367.969C1128.22 379.11 1139.47 401.176 1141.8 416.507C1145.03 437.771 1125.56 458.409 1125.56 458.409L1114.81 497.549C1114.81 497.549 1122.64 513.722 1074.08 508.612C1025.51 503.501 1003.59 503.286 1016.12 488.836L1024.32 466.26C1025.98 461.678 1026.33 456.744 1025.32 452.006L1014.32 399.708L1033.3 355.809L1059.97 350.777L1109.33 358.12V358.1Z" fill="#A8BFCA"/>
<path d="M944.332 395.049L1024.45 358.395C1042 350.368 1063.21 359.786 1067.31 377.897C1068.24 381.989 1068.59 386.571 1068.08 391.623C1065.05 421.306 1043.91 431.194 1025.43 411.398L962.646 435.325L946.537 526.901C946.537 526.901 958.279 544.131 946.866 550.828C946.866 550.828 944.847 558.797 937.473 556.565C932.096 559.11 927.729 557.837 926.39 555.605C922.352 557.191 918.665 554.019 917.655 551.141C911.949 549.222 911.269 538.061 917.655 527.841V435.364C917.655 418.154 928.017 402.49 944.332 395.01V395.049Z" fill="#FF7254"/>
<path d="M1037.7 406.68L1025.41 411.399C1034.94 421.6 1045.18 423.891 1053.28 419.661V416.666C1053.28 409.029 1045.16 403.841 1037.73 406.68H1037.7Z" fill="#1B193B"/>
<path d="M1079.3 416.117L1072.79 451.126C1072.07 455.042 1075.23 458.606 1079.41 458.606H1125.51L1125.57 458.391C1125.57 458.391 1145.04 437.753 1141.8 416.489C1141.47 414.375 1140.98 412.123 1140.36 409.793H1087.23C1083.32 409.793 1079.98 412.456 1079.3 416.117Z" fill="#FFF2E8"/>
<path d="M1134.69 310.404C1148.97 308.171 1157.35 302.258 1156.51 285.987C1155.66 269.716 1138.05 263.333 1124.11 265.565C1104.97 252.329 1071.64 259.75 1063.99 279.604C1054.6 304.02 1070.55 321.407 1070.55 321.407C1070.55 321.407 1069.1 331.785 1075.45 334.017C1081.79 336.249 1134.67 310.404 1134.67 310.404H1134.69Z" fill="#364CA3"/>
<path d="M1251.84 340.246L1258.21 343.477C1260.19 344.475 1260.83 346.903 1259.59 348.685C1258.6 350.095 1256.71 350.663 1255.04 350.056L1246.63 346.962" stroke="#1B193B" stroke-linecap="round" stroke-linejoin="round"/>
<path d="M1270.98 345.256C1266.94 347.096 1265.15 348.878 1262.96 353.969" stroke="#1B193B" stroke-linecap="round" stroke-linejoin="round"/>
<path d="M1265.27 341.363C1265.27 341.363 1263.13 342.303 1259.92 345.26" stroke="#1B193B" stroke-linecap="round" stroke-linejoin="round"/>
<path d="M1259.92 338.287C1259.92 338.287 1258.19 338.875 1254.98 341.831" stroke="#1B193B" stroke-linecap="round" stroke-linejoin="round"/>
<path d="M1248.73 347.703C1248.73 347.703 1249 351.972 1253.84 352.383C1254.98 356.867 1259.96 357.141 1261.75 356.925C1262.97 362.016 1269.93 360.117 1269.93 360.117" stroke="#1B193B" stroke-linecap="round" stroke-linejoin="round"/>
<path d="M941.484 541.9L946.861 550.848" stroke="#1B193B" stroke-linecap="round" stroke-linejoin="round"/>
<path d="M1277.61 839.125C1277.61 839.125 1286 839.321 1296.59 836.541C1298.93 835.914 1300.03 833.173 1298.56 831.332C1294.53 826.3 1296.67 818.214 1302.56 815.179C1314.03 817.294 1327.01 815.179 1327.01 815.179C1327.01 815.179 1359.68 797.714 1373.57 810.264C1373.57 810.264 1327.24 857.707 1284.49 876.425C1284.49 876.425 1278.6 857.139 1277.63 839.125H1277.61Z" fill="#364CA3"/>
<path d="M1284.47 876.423C1327.22 857.705 1373.55 810.263 1373.55 810.263C1371.76 808.657 1369.68 807.541 1367.37 806.816C1351.65 820.718 1317.17 849.501 1282.12 867.651C1283.4 872.958 1284.45 876.404 1284.45 876.404L1284.47 876.423Z" fill="#1B193B"/>
<path d="M852.721 722.331L836.406 747.726L841.288 746.355C844.914 745.337 848.581 747.863 848.663 751.466L848.931 762.196L832.142 767.306C832.142 767.306 807.751 802.628 798.564 804.743C789.397 806.877 777.758 804.743 777.758 804.743L816.486 703.279L852.721 722.331Z" fill="#364CA3"/>
<path d="M786.904 805.644L822.542 706.451L816.486 703.26L777.758 804.723C777.758 804.723 781.754 805.448 786.904 805.624V805.644Z" fill="#1B193B"/>
<path d="M1001.14 539.098C996.898 561.948 992.057 586.07 1040.05 618.24" stroke="#1B193B" stroke-linecap="round" stroke-linejoin="round"/>
<path d="M1270.98 351.914L1269.36 356.457" stroke="#1B193B" stroke-linecap="round" stroke-linejoin="round"/>
<path d="M1125.47 276.416C1125.47 276.416 1140.24 286.676 1137.91 302.242C1137.46 305.218 1138.12 308.253 1139.83 310.779L1141.48 313.226C1142.45 314.675 1141.31 316.575 1139.5 316.496L1135.83 316.359C1135.83 316.359 1132.19 342.499 1106.68 338.348L1103.18 350.722C1102.5 353.15 1103.76 355.695 1106.17 356.753L1109.36 358.143C1109.36 358.143 1122.79 391.644 1101.97 391.644C1081.14 391.644 1082.66 370.263 1060 350.8C1060 350.8 1070.41 348.882 1073.11 341.226C1074.57 337.075 1076.22 331.788 1077.43 327.814C1078.44 324.504 1080.56 321.626 1083.49 319.609C1087.5 316.868 1093.11 311.738 1094.98 303.573C1095.56 301.087 1097.45 299.031 1100.01 298.267C1107.84 295.879 1123.45 289.535 1125.47 276.455V276.416Z" fill="#FF7254"/>
<path opacity="0.55" d="M1112.86 319.293C1116.28 319.293 1119.06 316.654 1119.06 313.399C1119.06 310.144 1116.28 307.506 1112.86 307.506C1109.43 307.506 1106.66 310.144 1106.66 313.399C1106.66 316.654 1109.43 319.293 1112.86 319.293Z" fill="#CC3347"/>
<path d="M1106.66 338.326C1100.48 337.758 1093.68 332.609 1089.42 328.242C1088.04 326.833 1085.56 327.929 1085.77 329.848C1086.68 338.659 1091.25 348.527 1094.94 355.263C1096.61 358.298 1101.32 357.769 1102.25 354.46L1106.68 338.326H1106.66Z" fill="#1B193B"/>
<path d="M1089.95 319.096C1094.07 317.505 1095.55 311.845 1093.24 306.455C1090.94 301.065 1085.73 297.986 1081.61 299.577C1077.49 301.169 1076.02 306.828 1078.32 312.218C1080.62 317.608 1085.83 320.688 1089.95 319.096Z" fill="#FF7254"/>
<path d="M1082.66 304.412L1090.9 314.32" stroke="#1B193B" stroke-linecap="round" stroke-linejoin="round"/>
<path d="M1081.71 309.915L1085.09 307.33" stroke="#1B193B" stroke-linecap="round" stroke-linejoin="round"/>
<path d="M1120.05 298.657C1120.05 298.657 1126.74 295.348 1132.45 299.597" stroke="#364CA3" stroke-width="2" stroke-linecap="round" stroke-linejoin="round"/>
<path d="M1126.97 308.231C1128.6 308.231 1129.93 306.968 1129.93 305.411C1129.93 303.854 1128.6 302.592 1126.97 302.592C1125.33 302.592 1124 303.854 1124 305.411C1124 306.968 1125.33 308.231 1126.97 308.231Z" fill="#1B193B"/>
<path d="M1129.95 320.391C1129.95 320.391 1120.81 321.037 1115.2 313.871" stroke="#1B193B" stroke-linecap="round" stroke-linejoin="round"/>
<path d="M737.793 210.41C744.632 214.326 751.471 218.242 758.29 222.158" stroke="#FFF2E8" stroke-width="3" stroke-linecap="round" stroke-linejoin="round"/>
<path d="M766.16 184.447C769.992 191.124 773.823 197.781 777.655 204.458" stroke="#FFF2E8" stroke-width="3" stroke-linecap="round" stroke-linejoin="round"/>
<path d="M802.289 175.793C802.289 183.39 802.289 190.967 802.289 198.545" stroke="#FFF2E8" stroke-width="3" stroke-linecap="round" stroke-linejoin="round"/>
<path d="M838.448 184.447C834.616 191.124 830.785 197.781 826.953 204.458" stroke="#FFF2E8" stroke-width="3" stroke-linecap="round" stroke-linejoin="round"/>
<path d="M866.813 210.41C859.974 214.326 853.135 218.242 846.316 222.158" stroke="#FFF2E8" stroke-width="3" stroke-linecap="round" stroke-linejoin="round"/>
<path d="M1040.06 175.79H1375.57C1375.57 175.79 1359.36 143.992 1319.95 142.896C1308.37 104.343 1266.84 105.459 1247.05 105.459C1233.04 59.211 1150.78 73.524 1129.92 118.676C1091.68 105.459 1057.94 136.004 1040.06 175.81V175.79Z" fill="#FFF2E8"/>
<path d="M50.7393 182.739H254.061C254.061 182.739 244.235 163.473 220.36 162.807C213.335 139.448 188.162 140.114 176.173 140.114C167.686 112.075 117.834 120.749 105.185 148.122C82.0101 140.114 61.575 158.617 50.7188 182.739H50.7393Z" fill="#FFF2E8"/>
<path d="M1312.11 496.589C1284.67 500.29 1281.52 503.305 1277.61 529.386C1273.71 503.305 1270.54 500.31 1243.1 496.589C1270.54 492.889 1273.69 489.874 1277.61 463.793C1281.5 489.874 1284.67 492.869 1312.11 496.589Z" fill="#8CC6DE"/>
<path d="M1245.43 283.87C1230.54 285.887 1228.83 287.512 1226.71 301.669C1224.58 287.512 1222.87 285.887 1207.98 283.87C1222.87 281.854 1224.58 280.229 1226.71 266.072C1228.83 280.229 1230.54 281.854 1245.43 283.87Z" fill="#8CC6DE"/>
<path d="M845.591 516.597C830.698 518.614 828.988 520.239 826.866 534.395C824.744 520.239 823.034 518.614 808.141 516.597C823.034 514.58 824.744 512.955 826.866 498.799C828.988 512.955 830.698 514.58 845.591 516.597Z" fill="#8CC6DE"/>
<path d="M203.834 283.871C176.395 287.571 173.243 290.587 169.329 316.667C165.436 290.587 162.263 287.591 134.824 283.871C162.263 280.17 165.415 277.155 169.329 251.074C173.223 277.155 176.395 280.151 203.834 283.871Z" fill="#8CC6DE"/>
<path d="M558.011 521.71C516.235 527.369 511.414 531.931 505.461 571.659C499.507 531.951 494.708 527.369 452.91 521.71C494.687 516.052 499.507 511.49 505.461 471.762C511.414 511.47 516.214 516.052 558.011 521.71Z" fill="#8CC6DE"/>
</g>
</svg>
