<svg width="1136" height="989" viewBox="0 0 1136 989" fill="none" xmlns="http://www.w3.org/2000/svg">
<path d="M573.599 988.983C874.836 988.983 1119.04 974.725 1119.04 957.138C1119.04 939.551 874.836 925.293 573.599 925.293C272.363 925.293 28.1631 939.551 28.1631 957.138C28.1631 974.725 272.363 988.983 573.599 988.983Z" fill="black" fill-opacity="0.09"/>
<path d="M601.171 862.28H95.1189L47.8584 675.151H553.911L601.171 862.28Z" fill="#407BFF"/>
<path d="M553.313 675.151H47.2605L0 862.28H506.053L553.313 675.151Z" fill="#407BFF"/>
<path opacity="0.6" d="M553.313 675.151H47.2605L0 862.28H506.053L553.313 675.151Z" fill="white"/>
<path d="M1136 862.28H629.952L582.691 675.151H1088.74L1136 862.28Z" fill="#407BFF"/>
<path d="M1088.15 675.151H582.093L534.833 862.28H1040.89L1088.15 675.151Z" fill="#407BFF"/>
<path opacity="0.6" d="M1088.15 675.151H582.093L534.833 862.28H1040.89L1088.15 675.151Z" fill="white"/>
<path d="M621.412 0H607.347V860.815H621.412V0Z" fill="#407BFF"/>
<path opacity="0.4" d="M621.412 0H607.347V860.815H621.412V0Z" fill="white"/>
<path opacity="0.3" d="M621.412 0V483.154L607.347 476.29V0H621.412Z" fill="black"/>
<path d="M117.857 0H103.791V959.275H117.857V0Z" fill="#407BFF"/>
<path opacity="0.4" d="M117.857 0H103.791V959.275H117.857V0Z" fill="white"/>
<path opacity="0.3" d="M103.791 0H117.857V230.113L103.791 223.249V0Z" fill="black"/>
<path d="M628.976 5.79395H97.8018V157.562H628.976V5.79395Z" fill="#407BFF"/>
<path opacity="0.7" d="M628.976 5.79395H97.8018V157.562H628.976V5.79395Z" fill="white"/>
<path d="M135.751 119.616H97.8018V157.565H135.751V119.616Z" fill="#2E353A"/>
<path d="M135.751 43.7441H97.8018V81.6932H135.751V43.7441Z" fill="#2E353A"/>
<path d="M173.696 81.666H135.747V119.615H173.696V81.666Z" fill="#2E353A"/>
<path d="M211.651 119.616H173.702V157.565H211.651V119.616Z" fill="#2E353A"/>
<path d="M173.696 5.79346H135.747V43.7425H173.696V5.79346Z" fill="#2E353A"/>
<path d="M211.641 43.7437H173.692V81.6927H211.641V43.7437Z" fill="#2E353A"/>
<path d="M249.563 81.6655H211.614V119.615H249.563V81.6655Z" fill="#2E353A"/>
<path d="M287.518 119.616H249.569V157.565H287.518V119.616Z" fill="#2E353A"/>
<path d="M249.569 5.79346H211.62V43.7425H249.569V5.79346Z" fill="#2E353A"/>
<path d="M287.514 43.7437H249.565V81.6927H287.514V43.7437Z" fill="#2E353A"/>
<path d="M325.47 81.6655H287.521V119.615H325.47V81.6655Z" fill="#2E353A"/>
<path d="M363.391 119.616H325.442V157.565H363.391V119.616Z" fill="#2E353A"/>
<path d="M325.472 5.79346H287.523V43.7425H325.472V5.79346Z" fill="#2E353A"/>
<path d="M363.394 43.7437H325.445V81.6927H363.394V43.7437Z" fill="#2E353A"/>
<path d="M401.34 81.6655H363.391V119.615H401.34V81.6655Z" fill="#2E353A"/>
<path d="M439.295 119.616H401.346V157.565H439.295V119.616Z" fill="#2E353A"/>
<path d="M401.34 5.79346H363.391V43.7425H401.34V5.79346Z" fill="#2E353A"/>
<path d="M439.285 43.7437H401.336V81.6927H439.285V43.7437Z" fill="#2E353A"/>
<path d="M477.207 81.6655H439.258V119.615H477.207V81.6655Z" fill="#2E353A"/>
<path d="M515.162 119.616H477.213V157.565H515.162V119.616Z" fill="#2E353A"/>
<path d="M477.202 5.79346H439.253V43.7425H477.202V5.79346Z" fill="#2E353A"/>
<path d="M515.147 43.7437H477.198V81.6927H515.147V43.7437Z" fill="#2E353A"/>
<path d="M553.102 81.6655H515.153V119.615H553.102V81.6655Z" fill="#2E353A"/>
<path d="M591.024 119.616H553.075V157.565H591.024V119.616Z" fill="#2E353A"/>
<path d="M553.103 5.79395H515.154V43.743H553.103V5.79395Z" fill="#2E353A"/>
<path d="M591.025 43.7441H553.076V81.6932H591.025V43.7441Z" fill="#2E353A"/>
<path d="M628.97 81.666H591.021V119.615H628.97V81.666Z" fill="#2E353A"/>
<path d="M628.97 5.79395H591.021V43.743H628.97V5.79395Z" fill="#2E353A"/>
<g opacity="0.1">
<path d="M135.751 119.616H97.8018V157.565H135.751V119.616Z" fill="white"/>
<path d="M135.751 43.7441H97.8018V81.6932H135.751V43.7441Z" fill="white"/>
<path d="M173.696 81.666H135.747V119.615H173.696V81.666Z" fill="white"/>
<path d="M211.651 119.616H173.702V157.565H211.651V119.616Z" fill="white"/>
<path d="M173.696 5.79346H135.747V43.7425H173.696V5.79346Z" fill="white"/>
<path d="M211.641 43.7437H173.692V81.6927H211.641V43.7437Z" fill="white"/>
<path d="M249.563 81.6655H211.614V119.615H249.563V81.6655Z" fill="white"/>
<path d="M287.518 119.616H249.569V157.565H287.518V119.616Z" fill="white"/>
<path d="M249.569 5.79346H211.62V43.7425H249.569V5.79346Z" fill="white"/>
<path d="M287.514 43.7437H249.565V81.6927H287.514V43.7437Z" fill="white"/>
<path d="M325.47 81.6655H287.521V119.615H325.47V81.6655Z" fill="white"/>
<path d="M363.391 119.616H325.442V157.565H363.391V119.616Z" fill="white"/>
<path d="M325.472 5.79346H287.523V43.7425H325.472V5.79346Z" fill="white"/>
<path d="M363.394 43.7437H325.445V81.6927H363.394V43.7437Z" fill="white"/>
<path d="M401.34 81.6655H363.391V119.615H401.34V81.6655Z" fill="white"/>
<path d="M439.295 119.616H401.346V157.565H439.295V119.616Z" fill="white"/>
<path d="M401.34 5.79346H363.391V43.7425H401.34V5.79346Z" fill="white"/>
<path d="M439.285 43.7437H401.336V81.6927H439.285V43.7437Z" fill="white"/>
<path d="M477.207 81.6655H439.258V119.615H477.207V81.6655Z" fill="white"/>
<path d="M515.162 119.616H477.213V157.565H515.162V119.616Z" fill="white"/>
<path d="M477.202 5.79346H439.253V43.7425H477.202V5.79346Z" fill="white"/>
<path d="M515.147 43.7437H477.198V81.6927H515.147V43.7437Z" fill="white"/>
<path d="M553.102 81.6655H515.153V119.615H553.102V81.6655Z" fill="white"/>
<path d="M591.024 119.616H553.075V157.565H591.024V119.616Z" fill="white"/>
<path d="M553.103 5.79395H515.154V43.743H553.103V5.79395Z" fill="white"/>
<path d="M591.025 43.7441H553.076V81.6932H591.025V43.7441Z" fill="white"/>
<path d="M628.97 81.666H591.021V119.615H628.97V81.666Z" fill="white"/>
<path d="M628.97 5.79395H591.021V43.743H628.97V5.79395Z" fill="white"/>
</g>
<path d="M618.637 281.376C618.637 281.376 610.394 261.262 586.229 263.513C560.911 265.847 536.521 297.748 513.566 291.166C490.583 284.611 493.396 270.152 493.396 270.152C493.396 270.152 484.957 290.969 513.566 308.41C542.176 325.851 581.025 281.798 613.404 294.907L618.637 281.376Z" fill="#2E353A"/>
<path d="M680.83 319.714C680.83 319.714 690.451 279.992 657.116 271.975C623.78 263.957 608.758 283.509 603.132 305.142C597.506 326.775 611.684 356.875 641.868 351.924C672.053 346.945 679.621 329.138 680.83 319.714Z" fill="#2E353A"/>
<path d="M693.15 381.437C720.55 368.694 756.558 340.788 755.883 330.604C755.208 320.421 727.583 252.118 727.583 252.118C727.583 252.118 723.954 251.134 721.225 249.108C718.497 247.083 715.121 221.933 719.2 220.583C723.279 219.233 736.866 217.179 740.27 217.179C743.674 217.179 742.296 239.6 740.945 245.029C740.945 245.029 784.774 306.13 781.876 335.358C778.979 364.587 711.042 415.448 687.271 422.65C663.5 429.823 693.15 381.437 693.15 381.437Z" fill="#E4897B"/>
<path d="M395.809 714.258L403.573 697.717L427.878 705.819L450.158 713.301L444.11 734.428L418.539 723.766L395.809 714.258Z" fill="#E4897B"/>
<path d="M406.303 694.678C408.103 695.579 396.148 717.296 396.148 717.296C396.148 717.296 375.668 724.497 366.216 736.397C356.764 748.296 352.263 737.044 359.296 722.078C366.329 707.112 371.702 695.719 376.681 685.086C381.688 674.452 387.596 685.367 406.303 694.678Z" fill="#2E353A"/>
<path d="M387.116 730.317C386.948 730.317 386.779 730.317 386.61 730.261C385.119 729.98 384.641 729.192 384.472 728.601C383.684 725.479 390.661 719.571 392.067 718.418C392.152 718.362 392.236 718.305 392.349 718.277C392.349 718.277 392.433 718.277 392.489 718.277C392.489 718.277 392.771 718.305 392.883 718.39C392.883 718.39 392.911 718.39 392.939 718.418C393.136 718.615 397.469 722.947 397.3 726.576C397.244 727.729 396.765 728.686 395.865 729.445C394.909 730.233 394.037 730.43 393.305 730.036C392.152 729.417 391.73 727.251 391.617 725.001C390.914 726.97 389.958 728.883 388.72 729.755C388.213 730.121 387.679 730.289 387.144 730.289L387.116 730.317ZM391.505 720.668C388.551 723.313 385.4 726.829 385.766 728.292C385.794 728.433 385.907 728.798 386.891 728.995C387.257 729.052 387.623 728.995 387.96 728.714C389.648 727.533 390.886 723.425 391.505 720.64V720.668ZM392.996 720.472C392.686 724.382 392.939 728.405 393.924 728.939C394.233 729.108 394.768 728.714 395.049 728.489C395.668 727.983 395.978 727.364 396.006 726.576C396.09 724.607 394.318 722.047 392.996 720.472Z" fill="#407BFF"/>
<path opacity="0.2" d="M418.039 723.51L427.435 705.618L449.94 713.185L444.004 734.368L418.039 723.51Z" fill="black"/>
<path d="M680.835 604.317C670.652 648.427 625.107 798.957 554.357 793.331C483.607 787.704 431.536 748.743 430.13 730.935C428.723 713.128 434.181 703.367 451.847 703.339C469.513 703.311 521.359 719.205 543.949 717.573C566.566 715.942 587.636 620.042 587.636 620.042L680.835 604.317Z" fill="#407BFF"/>
<path opacity="0.4" d="M680.835 604.317C670.652 648.427 625.107 798.957 554.357 793.331C483.607 787.704 431.536 748.743 430.13 730.935C428.723 713.128 434.181 703.367 451.847 703.339C469.513 703.311 521.359 719.205 543.949 717.573C566.566 715.942 587.636 620.042 587.636 620.042L680.835 604.317Z" fill="black"/>
<path d="M861.548 920.007L844.782 927.265L831.926 905.098L820.195 884.759L838.678 872.916L850.802 897.84L861.548 920.007Z" fill="#E4897B"/>
<path d="M840.74 927.743C839.98 925.887 863.329 917.503 863.329 917.503C863.329 917.503 883.443 925.69 898.409 922.989C913.375 920.317 909.296 931.738 894.133 938.292C878.97 944.847 867.38 949.854 856.606 954.524C845.832 959.194 848.588 947.098 840.768 927.743H840.74Z" fill="#2E353A"/>
<path d="M868.811 919.642C868.052 919.642 867.461 919.895 867.095 919.895H866.702C866.702 919.895 866.111 919.614 866.111 919.586V919.389C866.111 919.389 866.111 919.276 866.055 919.192C866.026 919.164 866.111 919.079 866.111 919.051C866.111 919.051 866.252 918.854 866.252 918.742C866.252 918.489 865.942 912.356 868.474 909.74C869.29 908.924 870.302 908.502 871.512 908.558C872.75 908.586 873.566 909.036 873.847 909.824C874.297 911.034 873.2 912.947 871.793 914.719C873.622 913.706 875.619 912.89 877.138 913.087C877.926 913.172 878.573 913.509 879.023 914.1C879.951 915.31 879.811 916.351 879.529 916.885C878.348 919.192 872.103 919.642 868.811 919.642ZM876.716 914.353C874.635 914.353 871.231 916.491 869.037 918.067C873.003 918.038 877.701 917.476 878.376 916.154C878.432 916.041 878.629 915.675 878.01 914.888C877.785 914.606 877.448 914.438 877.026 914.381C876.913 914.381 876.829 914.381 876.716 914.381V914.353ZM871.428 908.643C870.696 908.643 870.077 909.515 869.543 910.049C868.08 911.568 867.799 915.057 867.771 916.913C870.584 914.184 873.059 910.556 872.694 909.515C872.581 909.177 871.934 908.643 871.568 908.643H871.456H871.428Z" fill="#407BFF"/>
<path opacity="0.2" d="M851.027 898.378L832.123 905.58L820.279 884.988L838.733 873.032L851.027 898.378Z" fill="black"/>
<path d="M595.256 516.831C595.256 516.831 555.984 575.287 564.03 618.834C573.51 670.23 697.372 728.096 731.129 753.667C764.887 779.239 780.697 875.813 822.725 894.352L845.595 886.165C845.595 886.165 857.242 870.074 848.521 842.703C811.979 727.927 781.738 673.071 680.803 604.347C680.803 604.347 687.442 548.703 684.657 520.516L595.256 516.859V516.831Z" fill="#407BFF"/>
<path opacity="0.3" d="M595.256 516.831C595.256 516.831 555.984 575.287 564.03 618.834C573.51 670.23 697.372 728.096 731.129 753.667C764.887 779.239 780.697 875.813 822.725 894.352L845.595 886.165C845.595 886.165 857.242 870.074 848.521 842.703C811.979 727.927 781.738 673.071 680.803 604.347C680.803 604.347 687.442 548.703 684.657 520.516L595.256 516.859V516.831Z" fill="black"/>
<path d="M833.474 890.469L827.847 892.494C815.076 876.234 804.639 846.922 793.696 816.146C782.078 783.542 770.066 749.841 755.916 736.45C746.07 727.139 724.24 712.482 698.95 695.491C647.329 660.805 588.788 621.506 584.878 597.538C580.743 572.051 593.767 535.762 601.56 517.083L607.58 517.336C600.181 534.862 586.397 571.939 590.448 596.638C593.964 618.187 656.444 660.187 702.073 690.821C727.588 707.953 749.586 722.722 759.798 732.371C774.904 746.69 786.607 779.491 798.985 814.261C809.675 844.277 820.702 875.25 833.474 890.469Z" fill="#407BFF"/>
<path opacity="0.1" d="M680.828 604.322C680.828 604.322 660.096 590.763 634.074 573.884L672.08 589.103C672.08 589.103 684.542 562.744 685.329 534.304C685.667 563.701 680.828 604.322 680.828 604.322Z" fill="black"/>
<path d="M595.258 516.83L685.334 526.057C685.334 526.057 706.798 443.351 707.36 373.923C707.36 373.923 672.872 385.148 641.871 381.406C610.87 377.665 583.442 361.489 583.442 361.489C583.442 361.489 597.986 452.072 595.286 516.83H595.258Z" fill="#2E353A"/>
<path d="M650.822 399.47C629.386 393.9 624.013 383.745 624.013 383.745C639.513 372.464 630.905 348.384 630.905 348.384L656.504 356.626C655.266 360.874 654.507 364.475 654.057 367.541C651.834 383.435 659.008 384.504 659.008 384.504C662.524 393.703 650.794 399.442 650.794 399.442L650.822 399.47Z" fill="#E4897B"/>
<path opacity="0.2" d="M656.53 356.654C655.292 360.902 654.533 364.503 654.082 367.569C636.36 365.319 630.902 348.412 630.902 348.412L656.502 356.654H656.53Z" fill="black"/>
<path d="M651.383 281.457C674.338 283.117 680.837 295.945 680.809 319.744C680.78 349.478 672.707 370.014 644.435 361.603C606.064 350.21 613.237 278.7 651.355 281.457H651.383Z" fill="#E4897B"/>
<path d="M666.067 317.379C666.067 317.379 668.824 323.596 672.059 327.394C672.059 327.394 669.864 330.376 665.813 329.56L666.067 317.407V317.379Z" fill="#DE5753"/>
<path d="M652.146 314.479C652.061 316.363 650.964 317.854 649.698 317.798C648.432 317.742 647.504 316.167 647.588 314.254C647.673 312.369 648.77 310.878 650.036 310.934C651.302 310.99 652.23 312.566 652.146 314.479Z" fill="#2E353A"/>
<path d="M649.526 310.994L653.718 309.587C653.718 309.587 651.496 312.935 649.526 310.994Z" fill="#2E353A"/>
<path d="M675.663 315.212C675.579 317.097 674.482 318.588 673.216 318.532C671.95 318.475 671.022 316.9 671.106 314.987C671.19 313.102 672.287 311.611 673.553 311.668C674.819 311.724 675.748 313.299 675.663 315.212Z" fill="#2E353A"/>
<path d="M673.025 311.753L677.217 310.346C677.217 310.346 674.995 313.694 673.025 311.753Z" fill="#2E353A"/>
<path d="M661.816 338.334C660.297 341.006 658.553 346.126 658.553 346.126C658.075 346.042 657.569 345.986 657.09 345.873C650.451 344.72 647.751 341.991 646.794 339.318C646.26 337.856 646.26 336.393 646.429 335.211C646.597 333.861 647.019 332.933 647.019 332.933C650.17 335.661 656.275 337.209 659.566 337.912C660.944 338.221 661.816 338.334 661.816 338.334Z" fill="#2E353A"/>
<path d="M659.565 337.884L658.552 340.162C652.307 339.065 648.059 337.434 646.428 335.211C646.597 333.861 647.019 332.933 647.019 332.933C650.169 335.661 656.274 337.209 659.565 337.912V337.884Z" fill="white"/>
<path d="M657.088 345.845C650.449 344.691 647.748 341.963 646.792 339.29C649.042 339.768 651.687 340.612 653.909 342.047C655.597 343.144 656.554 344.522 657.116 345.873L657.088 345.845Z" fill="#DE5753"/>
<path d="M623.509 318.334C623.509 318.334 635.606 300.246 635.043 285.561C635.043 285.561 681.881 270.258 680.784 316.618C680.784 316.618 688.211 275.94 648.799 272.171C609.444 268.401 605.393 326.155 624.522 344.834C624.522 344.834 616.026 329.671 623.509 318.334Z" fill="#2E353A"/>
<path d="M626.907 323.454C627.02 319.74 623.672 313.214 616.724 313.467C609.55 313.72 605.106 328.095 622.547 332.878C625.051 333.553 626.654 331.19 626.907 323.454Z" fill="#E4897B"/>
<path d="M583.448 361.491C583.448 361.491 599.595 388.638 590.846 418.119C590.846 418.119 528.592 348.832 522.965 333.022C517.339 317.213 557.876 227.193 557.876 227.193C557.876 227.193 551.097 208.204 552.503 203.984C553.91 199.765 571.492 189.919 575.712 192.732C579.931 195.545 578.525 226.489 576.415 230.709L574.305 234.929C574.305 234.929 552.644 316.453 555.373 322.445C558.13 328.465 583.448 361.491 583.448 361.491Z" fill="#E4897B"/>
<path d="M663.951 281.374C663.951 281.374 639.308 318.282 606.62 312.375C606.62 312.375 605.016 284.412 626.903 278.308C648.789 272.203 663.951 281.402 663.951 281.402V281.374Z" fill="#2E353A"/>
<path d="M692.005 496.971L694.565 492.639C694.565 492.639 691.414 491.682 685.957 490.444C688.235 474.719 695.324 415.221 678.052 376.597L674.845 379.073C674.845 379.073 682.834 391.31 683.622 415.306L624.012 414.968C624.012 414.968 617.176 381.548 608.708 371.309L606.57 372.321C606.57 372.321 626.965 423.211 619.117 484.593C609.974 485.128 600.522 486.337 591.154 488.475L593.433 492.695C593.433 492.695 616.191 489.741 643.957 490.669L675.267 493.539C680.921 494.439 686.547 495.592 691.977 497.027L692.005 496.971Z" fill="#407BFF"/>
<path opacity="0.6" d="M692.005 496.971L694.565 492.639C694.565 492.639 691.414 491.682 685.957 490.444C688.235 474.719 695.324 415.221 678.052 376.597L674.845 379.073C674.845 379.073 682.834 391.31 683.622 415.306L624.012 414.968C624.012 414.968 617.176 381.548 608.708 371.309L606.57 372.321C606.57 372.321 626.965 423.211 619.117 484.593C609.974 485.128 600.522 486.337 591.154 488.475L593.433 492.695C593.433 492.695 616.191 489.741 643.957 490.669L675.267 493.539C680.921 494.439 686.547 495.592 691.977 497.027L692.005 496.971Z" fill="white"/>
<path d="M656.58 458.883C656.58 462.231 655.82 464.762 654.273 466.507C652.726 468.251 650.363 469.123 647.128 469.123C644.089 469.123 641.783 468.279 640.235 466.563C638.688 464.847 637.901 462.399 637.901 459.221V458.208H643.752V459.614C643.752 461.049 644.033 462.034 644.624 462.624C645.215 463.215 645.974 463.497 646.959 463.497C648.056 463.497 648.9 463.159 649.491 462.484C650.081 461.809 650.391 460.543 650.391 458.658V451.456C649.294 453.791 647.381 454.945 644.652 454.945C642.373 454.945 640.657 454.185 639.504 452.638C638.351 451.091 637.788 448.868 637.788 445.943V438.741C637.788 435.562 638.604 433.115 640.207 431.399C641.811 429.683 644.146 428.839 647.184 428.839C650.222 428.839 652.557 429.683 654.16 431.399C655.764 433.115 656.58 435.562 656.58 438.741V458.883ZM647.212 449.318C648.197 449.318 648.956 449.037 649.547 448.446C650.138 447.856 650.419 446.871 650.419 445.436V438.347C650.419 436.913 650.138 435.928 649.547 435.365C648.956 434.803 648.197 434.521 647.212 434.521C646.227 434.521 645.468 434.803 644.877 435.365C644.286 435.928 644.005 436.913 644.005 438.347V445.436C644.005 446.871 644.286 447.856 644.877 448.446C645.468 449.037 646.227 449.318 647.212 449.318Z" fill="#407BFF"/>
<path d="M678.867 458.883C678.867 462.231 678.107 464.762 676.56 466.507C675.013 468.251 672.65 469.123 669.415 469.123C666.377 469.123 664.07 468.279 662.523 466.563C660.975 464.847 660.188 462.399 660.188 459.221V458.208H666.039V459.614C666.039 461.049 666.32 462.034 666.911 462.624C667.502 463.215 668.261 463.497 669.246 463.497C670.343 463.497 671.187 463.159 671.778 462.484C672.369 461.809 672.678 460.543 672.678 458.658V451.456C671.581 453.791 669.668 454.945 666.939 454.945C664.661 454.945 662.945 454.185 661.791 452.638C660.638 451.091 660.075 448.868 660.075 445.943V438.741C660.075 435.562 660.891 433.115 662.494 431.399C664.098 429.683 666.433 428.839 669.471 428.839C672.509 428.839 674.844 429.683 676.448 431.399C678.051 433.115 678.867 435.562 678.867 438.741V458.883ZM669.471 449.318C670.456 449.318 671.215 449.037 671.806 448.446C672.397 447.856 672.678 446.871 672.678 445.436V438.347C672.678 436.913 672.397 435.928 671.806 435.365C671.215 434.803 670.456 434.521 669.471 434.521C668.486 434.521 667.727 434.803 667.136 435.365C666.545 435.928 666.264 436.913 666.264 438.347V445.436C666.264 446.871 666.545 447.856 667.136 448.446C667.727 449.037 668.486 449.318 669.471 449.318Z" fill="#407BFF"/>
<path d="M1099.65 444.45C1094.03 442.593 989.997 399.131 855.192 439.977C820.141 450.583 783.007 464.001 747.112 476.998C737.407 480.514 727.645 484.031 717.912 487.519C712.454 489.46 702.805 493.258 702.018 498.687L710.851 519.898C728.939 513.597 738.11 510.193 756.705 503.441C792.263 490.585 829.058 477.279 863.378 466.899C957.421 438.402 1036.81 454.437 1070.87 464.367L1078.55 459.444L1074.81 452.918H1085.14L1074.81 444.478H1099.65V444.45Z" fill="#407BFF"/>
<path d="M705.342 526.06C705.342 526.06 752.94 528.254 768.159 536.834L768.638 513.766C768.638 513.766 768.413 512.36 764.08 512.275C749.396 511.966 717.186 509.097 709.59 505.158C692.318 496.156 717.439 487.717 717.439 487.717C717.439 487.717 701.545 492.696 701.995 498.716C701.995 498.716 706.721 516.017 705.314 526.088L705.342 526.06Z" fill="#407BFF"/>
<path opacity="0.3" d="M705.342 526.06C705.342 526.06 752.94 528.254 768.159 536.834L768.638 513.766C768.638 513.766 768.413 512.36 764.08 512.275C749.396 511.966 717.186 509.097 709.59 505.158C692.318 496.156 717.439 487.717 717.439 487.717C717.439 487.717 701.545 492.696 701.995 498.716C701.995 498.716 706.721 516.017 705.314 526.088L705.342 526.06Z" fill="black"/>
<path d="M772.851 537.676C773.357 539.983 772.035 542.346 769.756 542.993C756.169 546.931 741.428 548.676 725.675 548.676C661.761 548.676 581.615 519.7 497.84 489.375C462.282 476.519 425.487 463.213 391.166 452.833C297.124 424.336 217.737 440.37 183.671 450.301L175.991 445.378L179.732 438.851H169.408L179.732 430.412H154.414C160.04 428.527 264.323 385.064 399.099 425.911C434.151 436.516 471.397 449.935 507.292 462.932C604.626 498.152 713.353 528.365 764.974 515.003C768.265 514.159 767.956 513.258 767.112 512.78C766.549 512.471 765.762 512.386 765.762 512.386C768.265 512.527 768.716 513.512 768.744 514.412C768.912 519.419 771.444 531.375 772.851 537.676Z" fill="#407BFF"/>
</svg>
