<svg width="54" height="15" viewBox="0 0 54 15" fill="none" xmlns="http://www.w3.org/2000/svg">
<path d="M10.956 12.096C10.956 12.624 10.824 13.108 10.56 13.548C10.296 13.988 9.944 14.34 9.504 14.604C9.064 14.868 8.58 15 8.052 15H3.828C3.35867 15 2.91133 14.89 2.486 14.67L2.464 14.648C1.98 14.3987 1.59867 14.0467 1.32 13.592C1.04133 13.1227 0.902 12.624 0.902 12.096V3.054C0.902 2.51133 1.034 2.02 1.298 1.58C1.562 1.14 1.914 0.787999 2.354 0.523999C2.80867 0.259999 3.3 0.127999 3.828 0.127999H8.052C8.184 0.127999 8.36 0.149999 8.58 0.193999C8.81467 0.223333 9.05667 0.304 9.306 0.435999H9.328C9.82667 0.685332 10.2227 1.04467 10.516 1.514C10.8093 1.96867 10.956 2.482 10.956 3.054V12.096ZM6.864 3.01C6.89333 2.93667 6.89333 2.878 6.864 2.834C6.83467 2.77533 6.78333 2.746 6.71 2.746H3.828C3.75467 2.746 3.68133 2.77533 3.608 2.834C3.54933 2.89267 3.52 2.966 3.52 3.054V8.774C3.52 8.83267 3.54933 8.86933 3.608 8.884C3.66667 8.89867 3.71067 8.87667 3.74 8.818L6.864 3.01ZM8.338 12.096V6.222C8.338 6.14867 8.30867 6.10467 8.25 6.09C8.206 6.07533 8.162 6.09733 8.118 6.156L4.928 12.14C4.91333 12.1987 4.92067 12.2573 4.95 12.316C4.97933 12.3747 5.02333 12.404 5.082 12.404H8.052C8.12533 12.404 8.19133 12.3747 8.25 12.316C8.30867 12.2427 8.338 12.1693 8.338 12.096ZM16.0394 7.256C16.0394 7.71067 15.878 8.09933 15.5554 8.422C15.2327 8.74467 14.844 8.906 14.3894 8.906C13.9347 8.906 13.546 8.74467 13.2234 8.422C12.9007 8.09933 12.7394 7.71067 12.7394 7.256C12.7394 6.80133 12.9007 6.41267 13.2234 6.09C13.546 5.76733 13.9347 5.606 14.3894 5.606C14.844 5.606 15.2327 5.76733 15.5554 6.09C15.878 6.41267 16.0394 6.80133 16.0394 7.256ZM16.0394 11.788C16.0394 12.2427 15.878 12.6387 15.5554 12.976C15.2327 13.2987 14.844 13.46 14.3894 13.46C13.9347 13.46 13.546 13.2987 13.2234 12.976C12.9007 12.6387 12.7394 12.2427 12.7394 11.788C12.7394 11.3333 12.9007 10.9447 13.2234 10.622C13.546 10.2993 13.9347 10.138 14.3894 10.138C14.844 10.138 15.2327 10.2993 15.5554 10.622C15.878 10.9447 16.0394 11.3333 16.0394 11.788ZM27.9287 12.096C27.9287 12.624 27.7967 13.108 27.5327 13.548C27.2687 13.988 26.9167 14.34 26.4767 14.604C26.0367 14.868 25.5527 15 25.0247 15H20.8007C20.3313 15 19.884 14.89 19.4587 14.67L19.4367 14.648C18.9527 14.3987 18.5713 14.0467 18.2927 13.592C18.014 13.1227 17.8747 12.624 17.8747 12.096V3.054C17.8747 2.51133 18.0067 2.02 18.2707 1.58C18.5347 1.14 18.8867 0.787999 19.3267 0.523999C19.7813 0.259999 20.2727 0.127999 20.8007 0.127999H25.0247C25.1567 0.127999 25.3327 0.149999 25.5527 0.193999C25.7873 0.223333 26.0293 0.304 26.2787 0.435999H26.3007C26.7993 0.685332 27.1953 1.04467 27.4887 1.514C27.782 1.96867 27.9287 2.482 27.9287 3.054V12.096ZM23.8367 3.01C23.866 2.93667 23.866 2.878 23.8367 2.834C23.8073 2.77533 23.756 2.746 23.6827 2.746H20.8007C20.7273 2.746 20.654 2.77533 20.5807 2.834C20.522 2.89267 20.4927 2.966 20.4927 3.054V8.774C20.4927 8.83267 20.522 8.86933 20.5807 8.884C20.6393 8.89867 20.6833 8.87667 20.7127 8.818L23.8367 3.01ZM25.3107 12.096V6.222C25.3107 6.14867 25.2813 6.10467 25.2227 6.09C25.1787 6.07533 25.1347 6.09733 25.0907 6.156L21.9007 12.14C21.886 12.1987 21.8933 12.2573 21.9227 12.316C21.952 12.3747 21.996 12.404 22.0547 12.404H25.0247C25.098 12.404 25.164 12.3747 25.2227 12.316C25.2813 12.2427 25.3107 12.1693 25.3107 12.096ZM39.788 12.096C39.788 12.624 39.656 13.108 39.392 13.548C39.128 13.988 38.776 14.34 38.336 14.604C37.896 14.868 37.412 15 36.884 15H32.66C32.1907 15 31.7434 14.89 31.318 14.67L31.296 14.648C30.812 14.3987 30.4307 14.0467 30.152 13.592C29.8734 13.1227 29.734 12.624 29.734 12.096V3.054C29.734 2.51133 29.866 2.02 30.13 1.58C30.394 1.14 30.746 0.787999 31.186 0.523999C31.6407 0.259999 32.132 0.127999 32.66 0.127999H36.884C37.016 0.127999 37.192 0.149999 37.412 0.193999C37.6467 0.223333 37.8887 0.304 38.138 0.435999H38.16C38.6587 0.685332 39.0547 1.04467 39.348 1.514C39.6414 1.96867 39.788 2.482 39.788 3.054V12.096ZM35.696 3.01C35.7254 2.93667 35.7254 2.878 35.696 2.834C35.6667 2.77533 35.6154 2.746 35.542 2.746H32.66C32.5867 2.746 32.5134 2.77533 32.44 2.834C32.3814 2.89267 32.352 2.966 32.352 3.054V8.774C32.352 8.83267 32.3814 8.86933 32.44 8.884C32.4987 8.89867 32.5427 8.87667 32.572 8.818L35.696 3.01ZM37.17 12.096V6.222C37.17 6.14867 37.1407 6.10467 37.082 6.09C37.038 6.07533 36.994 6.09733 36.95 6.156L33.76 12.14C33.7454 12.1987 33.7527 12.2573 33.782 12.316C33.8114 12.3747 33.8554 12.404 33.914 12.404H36.884C36.9574 12.404 37.0234 12.3747 37.082 12.316C37.1407 12.2427 37.17 12.1693 37.17 12.096ZM53.6597 9.61C53.6597 9.88867 53.5571 10.1307 53.3517 10.336C53.1611 10.5267 52.9264 10.622 52.6477 10.622H51.7237C51.5477 10.622 51.4597 10.7173 51.4597 10.908V11.81C51.4597 12.0887 51.3571 12.3233 51.1517 12.514C50.9611 12.7047 50.7264 12.8 50.4477 12.8H49.8537C49.5751 12.8 49.3331 12.7047 49.1277 12.514C48.9371 12.3233 48.8417 12.0887 48.8417 11.81V10.908C48.8417 10.7173 48.7537 10.622 48.5777 10.622H47.6537C47.3751 10.622 47.1331 10.5267 46.9277 10.336C46.7371 10.1307 46.6417 9.88867 46.6417 9.61V8.994C46.6417 8.71533 46.7371 8.488 46.9277 8.312C47.1331 8.12133 47.3751 8.026 47.6537 8.026H48.5777C48.6511 8.026 48.7097 7.99667 48.7537 7.938C48.8124 7.86467 48.8417 7.79133 48.8417 7.718V6.794C48.8417 6.53 48.9371 6.30267 49.1277 6.112C49.3331 5.92133 49.5751 5.826 49.8537 5.826H50.4477C50.7264 5.826 50.9611 5.92133 51.1517 6.112C51.3571 6.30267 51.4597 6.53 51.4597 6.794V7.718C51.4597 7.79133 51.4891 7.86467 51.5477 7.938C51.6064 7.99667 51.6651 8.026 51.7237 8.026H52.6477C52.9264 8.026 53.1611 8.12133 53.3517 8.312C53.5571 8.488 53.6597 8.71533 53.6597 8.994V9.61Z" fill="black"/>
</svg>
