<svg width="65" height="64" viewBox="0 0 65 64" fill="none" xmlns="http://www.w3.org/2000/svg">
<path d="M32.5466 0.208205C36.7936 0.221393 40.9964 1.04904 44.9149 2.6439C48.8335 4.23875 52.391 6.56958 55.3845 9.5033C58.3781 12.437 60.7489 15.9162 62.3616 19.7421C63.9743 23.5681 64.7974 27.6659 64.7839 31.8016C64.7704 35.9373 63.9204 40.03 62.2827 43.8458C60.6449 47.6617 58.2514 51.126 55.2387 54.0411C52.226 56.9562 48.6533 59.2649 44.7244 60.8353C40.7955 62.4058 36.5874 63.2074 32.3404 63.1942L32.4435 31.7012L32.5466 0.208205Z" fill="black"/>
<path d="M32.3426 63.1407C28.0956 63.1203 23.8944 62.2855 19.9787 60.6839C16.063 59.0824 12.5096 56.7456 9.5214 53.8068C6.53316 50.868 4.16859 47.3848 2.56271 43.5561C0.956829 39.7274 0.141078 35.6282 0.162036 31.4925C0.182994 27.3568 1.04025 23.2656 2.68486 19.4526C4.32946 15.6395 6.72922 12.1792 9.7471 9.26926C12.765 6.35932 16.3419 4.05671 20.2736 2.49291C24.2053 0.929106 28.4148 0.134731 32.6618 0.155139L32.5022 31.6479L32.3426 63.1407Z" fill="white"/>
</svg>
