<svg width="197" height="132" viewBox="0 0 197 132" fill="none" xmlns="http://www.w3.org/2000/svg">
<path d="M100.187 27.1301C100.187 27.1301 96.1721 16.4951 108.206 11.262C127.028 22.4155 149.986 45.9162 171.666 51.0046C181.071 53.8141 191.115 65.4981 178.961 72.7811C178.961 72.7811 174.343 74.8671 169.11 76.1331C162.719 77.6765 154.568 79.6299 150.505 79.9675C148.081 80.1725 174.741 83.0664 163.889 83.7175C158.969 84.0189 137.555 83.1749 130.983 82.7529C96.8955 80.5704 85.4527 74.65 63.845 64.4491C73.5154 66.716 98.8851 74.0351 111.703 74.3847C124.52 74.7344 157.896 76.8204 166.698 70.7192C151.795 70.7192 132.092 71.7682 85.8144 57.1179C78.4953 54.2241 77.808 53.7538 69.4519 50.0279C58.1296 44.9757 52.5951 41.7804 46.8435 36.4629C51.8113 38.5489 62.3619 43.2635 70.4648 41.2619C70.1995 39.7788 19.8219 28.0586 14.0703 14.3729C18.2544 17.2548 49.6289 36.8608 102.719 40.9604C69.669 31.1213 20.2439 19.5337 14.7576 0C19.7254 6.10126 48.2301 28.6735 82.402 27.7209L75.8667 23.2716C75.8667 23.2716 76.132 13.1551 85.103 12.721L100.199 27.1181L100.187 27.1301Z" fill="white"/>
</svg>
