<svg width="146" height="54" viewBox="0 0 146 54" fill="none" xmlns="http://www.w3.org/2000/svg">
<path d="M24.8675 22.9702C24.7434 22.9914 24.5771 23.1465 24.5687 23.1751C23.4089 25.0028 22.1422 26.8228 21.0974 28.62C20.6052 29.4657 20.1711 30.5863 19.7801 31.6301C19.6272 32.0418 19.6445 32.5268 19.8474 32.9514C19.9243 33.283 19.7406 33.4575 19.4392 33.5102C18.6407 33.6097 17.9867 33.326 17.5355 32.43C17.2681 32.3871 17.0979 32.3139 16.822 32.2997C16.3965 32.3736 16.059 32.3985 15.7423 32.0805C15.2897 31.6126 15.0426 31.2078 15.0508 30.6558C15.061 30.218 15.1684 29.7405 15.322 29.3668C15.7666 27.8274 16.5743 26.2056 17.3623 24.9837C18.5141 23.2037 19.939 21.2763 21.2142 19.4371C21.2738 19.2839 21.3249 19.1498 21.5066 18.8612C21.2416 18.961 21.1789 18.9335 21.0547 18.9547C19.9599 19.9155 18.4386 20.3794 17.343 21.2927C16.7799 21.6354 16.3598 21.5094 15.9781 21.0308C15.7809 20.9391 15.7776 20.7489 15.7149 20.7214C14.4779 20.1435 14.896 19.1278 15.0418 18.307C15.1711 17.5532 15.4223 16.6546 15.5768 15.8242C14.8249 17.074 14.5994 18.4289 14.3419 19.9936C13.4927 19.2186 14.1199 18.4657 13.8135 17.7194C13.0761 18.2649 12.5375 18.9973 11.8983 19.5696C11.2241 20.1712 10.5883 20.9433 9.83509 21.6032C9.19591 22.1756 8.58488 22.8331 7.89072 23.3113C9.6272 20.8933 12.0318 19.0631 13.5319 16.3448C12.929 16.9545 12.3169 17.555 11.7665 18.1163C9.54145 20.5618 7.13749 22.9437 4.76925 25.3346C4.37813 25.8551 3.80298 26.531 3.48496 26.6507C3.08727 26.7908 2.65058 26.218 2.25388 25.9014C2.31067 25.5864 2.38541 25.2807 2.45192 25.0132C2.4934 24.8412 2.63167 24.6105 2.69176 24.4857C4.11514 22.9865 5.45967 21.5552 6.81047 19.9716C7.17738 19.5942 7.44422 19.0853 7.81081 18.1752C7.4067 18.4581 7.20374 18.5472 7.12686 18.7293C5.91023 19.8444 4.81162 21.1002 3.53425 22.302C3.0796 22.7475 2.54594 23.2515 2.0205 23.7172C1.64388 24.0472 1.0136 24.1057 0.371302 23.9836C0.482745 23.7438 0.46135 23.5349 0.628592 23.4368C5.43834 17.75 10.6825 12.5029 15.9709 7.24542C17.3062 5.79525 18.8772 4.6074 20.1798 3.31954C20.6522 2.87374 21.1538 2.57014 21.5222 2.27835C21.8116 2.04502 22.1413 2.08689 22.4045 2.39629C22.6209 2.57331 22.4474 2.82367 22.2907 3.01666C22.2734 3.0455 22.3106 3.13999 22.2594 3.26456C22.7306 3.25641 23.257 3.36148 23.5929 3.25102C24.5147 3.08286 24.7671 3.79203 25.2286 4.25974C25.4194 4.49429 25.2204 4.81169 25.1353 5.03198C24.6067 5.83077 24.1038 6.57203 23.5221 7.38125C21.5973 10.2211 20.113 13.3388 19.0058 16.6687C18.9834 16.9165 18.9322 17.041 18.9029 17.4031C19.1039 17.1998 19.2818 17.2062 19.45 17.1653C21.2466 16.1638 22.8252 14.8997 24.3955 13.6738C26.1238 12.3215 27.7982 10.9416 29.3463 9.45922C30.1671 8.58878 31.1427 7.93449 32.01 7.18693C32.2403 7.13538 32.3536 7.00023 32.5825 6.87259C33.1903 6.53861 33.5216 6.67558 33.9326 7.3059C34.024 7.44703 34.0612 7.54153 34.3015 7.5564C35.0933 7.58077 35.4334 8.22183 35.8189 8.91919C35.462 9.363 35.1319 9.81585 34.7648 10.1837C32.7931 12.3679 30.8819 14.4465 29.1605 16.712C28.5771 17.4261 28.041 18.3011 27.4507 19.1295C26.4291 20.2127 25.4734 21.5041 24.7601 22.934C24.796 22.9524 24.8229 22.9614 24.8587 22.9799L24.8675 22.9702ZM18.1884 28.5371C17.7578 29.3437 17.1501 30.1914 17.3767 31.4719C17.6966 30.4293 17.928 29.4169 18.1884 28.5371ZM27.8377 18.885C28.4991 18.0553 29.1811 17.3871 29.8425 16.5575C29.9916 16.4407 30.2461 16.2461 30.4578 16.1473C28.8849 18.7717 27.0504 21.1724 25.3229 23.5997C23.6215 25.9886 22.0027 28.5282 20.3484 31.0685C20.4078 30.9057 20.4399 30.7054 20.5013 30.6567C21.1897 29.3319 21.7711 27.9899 22.5593 26.7776C23.3649 25.5459 24.1695 24.2571 24.8675 22.9702C24.8316 22.9518 24.8048 22.9427 24.7689 22.9243C25.4143 22.1996 26.0048 21.3807 26.6125 20.533C26.8909 20.1762 27.2267 19.5425 27.4594 19.1198C27.5836 19.0987 27.6884 18.9922 27.8464 18.8753L27.8377 18.885Z" fill="black"/>
<path d="M29.6637 21.0801C29.8828 20.8955 30.5563 21.2834 30.8749 20.6786C30.481 20.5236 30.1484 20.3201 29.8262 20.1925C29.9804 19.8568 30.281 19.7565 30.5738 19.7229C30.84 19.6897 31.1511 19.6844 31.5068 19.6877C31.7112 19.6842 31.9832 19.4702 32.1949 19.3714C33.6115 17.9959 34.9493 16.6884 36.294 15.2666C36.0652 14.89 35.8109 14.5805 35.5885 14.0611C35.5331 13.9415 35.6243 13.7338 35.8622 13.4379C36.6767 13.7473 37.4253 13.8485 38.3119 13.7C38.2066 13.2642 37.9931 13.2584 37.6798 13.1401C37.111 13.15 36.5131 13.0271 36.0715 12.6827C35.9883 12.5034 35.8784 12.315 35.7513 12.165C36.3046 11.7654 36.6535 11.8925 37.0359 11.8954C37.5604 11.8864 38.0242 11.9735 38.4456 11.6618C38.6367 11.4016 39.0293 11.4804 39.2422 11.4482C41.7733 11.7945 44.2929 11.9888 46.6152 12.5956C48.2945 13.0422 50.0346 13.4022 51.6428 13.8501C52.8488 14.1813 54.1981 14.567 55.1895 15.3395C56.0998 16.0468 56.6226 16.9702 56.5916 18.2646C56.4816 18.5899 56.5055 18.9415 56.5666 19.3876C55.9009 19.4562 55.506 20.2717 54.7628 20.4844C54.5228 20.4885 54.2979 20.8539 54.1955 21.1031C53.7457 21.8244 53.2367 22.2137 52.3672 22.3239C51.719 21.8594 51.653 21.128 51.7627 20.2699C51.7959 20.1361 51.8116 20.0121 51.7999 19.8506C51.7656 19.4136 51.6779 18.9679 51.2829 18.7464C50.1173 18.1862 48.8258 17.5426 47.5397 17.2128C46.0573 16.8389 44.628 16.4545 43.1758 16.2893C42.7388 16.2112 42.1601 16.1642 41.6526 16.1254C41.4122 16.1105 41.1721 16.1051 40.9726 16.394C40.0366 17.2855 38.9864 18.255 37.9257 19.1296C37.8917 19.2253 37.9736 19.3285 37.948 19.3956C38.6307 19.2791 39.0256 18.4636 39.6141 18.0444C40.1849 17.6349 40.6471 17.1132 41.2894 16.7215C40.604 17.7038 39.7199 18.5087 38.9546 19.5019C39.1783 19.5836 39.4377 19.6743 39.5444 19.6724C41.576 19.9227 43.6811 20.3144 45.5994 20.6999C46.0189 20.7878 46.5379 20.9786 47.0044 21.2179C47.695 21.5675 48.0186 22.2849 47.919 23.2095C47.894 23.3051 47.8357 23.5344 47.9635 23.7225C48.1854 24.2134 48.0082 24.7682 47.8746 25.2652C47.4245 24.9496 47.037 24.6518 46.6795 24.5438C46.2861 24.4174 45.9031 24.3765 45.3864 24.3188C45.3867 24.8516 45.3131 25.2239 45.3199 25.6139C44.4366 25.4389 43.6868 25.2711 42.9459 25.1031C40.3454 24.8626 37.9198 24.4479 35.2813 24.0654C33.3381 26.3538 31.5475 28.7252 30.035 31.2439C30.1226 31.6801 30.4148 31.6084 30.7087 31.6414C32.6343 31.9316 34.6473 32.1346 36.4757 32.4645C38.4201 32.8114 40.3497 33.3394 42.089 33.6518C43.0523 33.8255 43.6942 34.4423 43.7372 35.3834C43.7312 35.5547 43.6891 35.6887 43.8339 35.8384C44.2501 36.2498 44.1164 36.7468 44.0708 37.1948C43.5165 37.0236 42.9266 36.8435 42.5422 36.7265C42.0952 36.582 41.6942 36.5318 41.4155 36.8696C41.1951 36.9781 40.937 36.9635 40.7582 36.9095C37.3403 36.7022 33.9391 36.4281 30.6267 35.6386C29.8763 35.4328 29.2249 35.3013 28.4832 35.0858C28.3903 35.3728 28.4384 35.5813 28.4254 35.8574C27.7559 36.221 27.2748 35.649 26.9038 35.2749C26.5418 34.9101 26.3731 34.4087 25.9916 33.9397C25.386 33.8835 25.0569 33.366 24.8163 32.8183C24.5477 32.195 24.588 31.4428 24.7287 30.841C25.085 29.3316 25.8195 28.1011 26.642 26.8216C27.4821 25.5227 28.3384 24.1379 29.2064 22.9146C29.4488 22.5394 29.7097 22.2019 29.8811 21.8279C29.7078 21.574 29.3211 21.3238 29.628 21.0712L29.6637 21.0801ZM26.5852 30.7327C26.6869 30.4456 26.7612 30.1113 26.9868 29.7934C28.055 27.8056 29.0894 25.923 30.5981 24.213C30.7286 24.049 30.9811 23.7402 30.7887 23.4105C29.9041 24.7007 29.0185 25.9338 28.151 27.1856C27.1271 28.6494 26.3804 30.2035 26.159 31.2824C26.3849 30.9741 26.427 30.8401 26.585 30.7232L26.5852 30.7327ZM28.0121 34.0665C27.9724 33.8293 28.0064 33.7336 27.8006 33.661C27.729 33.6337 27.605 33.6644 27.5966 33.6931C27.5543 33.8175 27.5125 33.9704 27.5583 34.0458C27.604 34.1211 27.6605 34.3009 27.8243 34.5169C27.9003 34.2872 27.9426 34.1628 28.0123 34.076L28.0121 34.0665ZM33.0341 24.7132C32.4431 25.5035 31.931 26.2259 31.4013 26.9581C30.4895 28.2202 29.7039 29.5752 28.8648 30.9312C28.7152 31.0194 28.4964 31.223 28.8028 31.4555C28.8296 31.4646 28.8475 31.4738 28.8744 31.4828C28.9005 31.4538 28.918 31.4345 28.944 31.396C30.5832 29.0082 32.1585 26.5264 33.933 24.2505C33.9497 24.1836 33.9752 24.1165 34.0596 23.8582C33.575 24.1139 33.2341 24.4528 33.043 24.713L33.0341 24.7132ZM30.0098 34.9262C30.4735 35.0038 30.9553 35.1001 31.441 34.911C30.4764 34.6613 29.6007 34.41 28.5542 34.0476C28.5938 34.2847 28.4819 34.496 28.4606 34.8103C29.0386 34.8098 29.5638 34.8483 30.0098 34.9262ZM48.3965 15.3428C47.4196 14.8935 46.4093 14.5685 45.3298 14.3588C45.2315 14.332 45.1898 14.4944 45.1898 14.4944C44.3026 14.0912 43.6516 13.9787 42.5858 14.0447C43.4559 14.4864 44.3107 14.5572 45.1541 14.4855C46.2106 14.9049 47.2734 15.1815 48.3878 15.3525L48.3965 15.3428ZM47.1472 22.7947C46.3229 22.4284 45.5094 22.1761 44.6202 22.1724C45.3105 22.503 46.4715 22.7969 47.1472 22.7947ZM41.311 34.9401C41.8736 35.0826 42.4172 35.1493 43.0947 35.2518C42.4294 34.8257 41.8751 34.6545 41.311 34.9401ZM53.1805 16.3922C53.6819 17.1066 54.4644 17.1121 55.0827 17.3868C54.5584 16.8917 54.028 16.5583 53.1805 16.3922Z" fill="black"/>
<path d="M65.3176 35.9009C65.2029 35.9505 65.0636 36.1241 65.0554 36.1623C64.2279 38.184 63.3029 40.2265 62.5812 42.1988C62.2416 43.1275 62.0043 44.3113 61.8011 45.4185C61.7198 45.8575 61.8169 46.3315 62.09 46.6978C62.2198 47.0095 62.0724 47.2214 61.7897 47.3309C61.0296 47.5914 60.3423 47.4416 59.7506 46.6431C59.4839 46.6477 59.3055 46.6128 59.0395 46.6554C58.6331 46.8052 58.3147 46.9058 57.9547 46.6552C57.4326 46.2836 57.1243 45.937 57.0438 45.3961C56.9829 44.9595 57.0101 44.4738 57.0921 44.0728C57.2689 42.4714 57.781 40.7215 58.3532 39.3607C59.1815 37.3865 60.2466 35.218 61.189 33.1562C61.2216 32.9844 61.246 32.8508 61.3827 32.5344C61.1365 32.6909 61.0739 32.673 60.959 32.713C60.0543 33.8703 58.6448 34.6273 57.7215 35.7373C57.2313 36.1834 56.8038 36.1432 56.3436 35.7516C56.1381 35.6981 56.1084 35.5178 56.0369 35.5C54.7331 35.1706 54.9723 34.0914 54.9757 33.2636C54.9802 32.4929 55.0707 31.559 55.0829 30.7216C54.5555 32.1007 54.5705 33.4799 54.58 35.0591C53.6271 34.4571 54.1102 33.6021 53.6895 32.9243C53.061 33.6012 52.6574 34.4263 52.127 35.1205C51.5705 35.8437 51.0789 36.7274 50.4615 37.5278C49.9309 38.2124 49.4463 38.9819 48.8522 39.5915C50.1479 36.8767 52.1804 34.6058 53.1959 31.6295C52.7103 32.3419 52.2158 33.0545 51.7649 33.7187C50.009 36.5557 48.0572 39.3769 46.1408 42.1881C45.8397 42.7737 45.3997 43.5519 45.1093 43.7282C44.7485 43.9437 44.2246 43.4676 43.7848 43.2278C43.7882 42.9138 43.8095 42.5995 43.8312 42.3137C43.8458 42.1327 43.9393 41.8837 43.9726 41.7499C45.116 39.9986 46.1807 38.3248 47.2339 36.499C47.5285 36.0562 47.7057 35.5014 47.9113 34.5369C47.5618 34.895 47.3862 35.0217 47.3363 35.2224C46.3369 36.5621 45.4729 38.0136 44.4306 39.4397C44.0663 39.9692 43.632 40.5666 43.1971 41.1259C42.8839 41.5214 42.2824 41.703 41.6335 41.7143C41.7002 41.4562 41.6434 41.2574 41.7922 41.1216C45.5292 34.5876 49.7611 28.3876 54.0461 22.177C55.1017 20.4939 56.4365 19.0152 57.495 17.4937C57.8859 16.9637 58.3236 16.566 58.6285 16.1992C58.8724 15.9096 59.201 15.8849 59.5078 16.146C59.7501 16.275 59.6217 16.5626 59.5009 16.774C59.5016 16.8121 59.5384 16.8875 59.5052 17.0213C59.9659 16.9277 60.4992 16.9185 60.7987 16.7516C61.6729 16.4035 62.0398 17.0536 62.5619 17.4251C62.7876 17.621 62.6515 17.9754 62.6021 18.2046C62.2174 19.096 61.8493 19.9205 61.4205 20.8318C60.0171 24.0051 59.0882 27.3605 58.5705 30.842C58.5925 31.089 58.5593 31.2228 58.5922 31.5837C58.7481 31.3432 58.9342 31.3114 59.0844 31.2518C60.6705 29.9114 61.9953 28.3663 63.3295 26.8496C64.7945 25.1879 66.1968 23.4987 67.4556 21.7359C68.1139 20.7256 68.9618 19.8832 69.6754 18.9861C69.8871 18.8873 69.9822 18.7334 70.175 18.5683C70.7185 18.1213 71.0663 18.1819 71.5649 18.7346C71.6737 18.8564 71.7285 18.9411 71.9682 18.9179C72.7484 18.7902 73.185 19.3535 73.6845 19.9633C73.4088 20.4723 73.1597 20.9808 72.8649 21.414C71.2993 23.9432 69.7852 26.3669 68.4779 28.9202C68.0296 29.7366 67.6551 30.704 67.2087 31.625C66.3947 32.8854 65.673 34.344 65.2195 35.8836C65.264 35.8828 65.2819 35.892 65.3265 35.9008L65.3176 35.9009ZM59.7266 42.6858C59.4395 43.566 58.9936 44.5156 59.4326 45.7353C59.5649 44.6484 59.627 43.6104 59.7266 42.6858ZM67.5321 31.3055C68.0405 30.3643 68.5957 29.5651 69.104 28.624C69.2349 28.479 69.4441 28.2375 69.6374 28.101C68.5402 30.9836 67.1468 33.7001 65.8603 36.4338C64.5997 39.1195 63.439 41.9271 62.2518 44.7447C62.2844 44.5729 62.2808 44.3636 62.3331 44.3057C62.7796 42.8709 63.1282 41.4378 63.6919 40.0961C64.2728 38.7255 64.844 37.3076 65.3087 35.9011C65.2643 35.9018 65.2463 35.8926 65.2017 35.8839C65.7119 35.0474 66.1583 34.1263 66.6042 33.1767C66.8194 32.7639 67.0388 32.0846 67.1909 31.6253C67.3056 31.5758 67.3926 31.4601 67.5233 31.3056L67.5321 31.3055Z" fill="black"/>
<path d="M74.5089 28.6771C75.0653 27.9444 75.8289 27.3699 76.5328 26.9391C76.9815 26.665 77.427 26.7144 77.8808 26.7351C78.3435 26.7556 78.9297 26.7169 79.4444 26.6605C79.8757 25.8919 80.4274 24.8929 80.8329 24.1724C81.2729 23.3942 81.863 22.5562 82.5557 21.9925C82.634 21.896 82.7119 21.7709 82.8253 21.6453C83.1573 20.7928 83.8074 20.8482 84.4019 20.7808C84.6681 20.7477 84.8831 20.8391 85.2128 20.881C86.2969 20.8432 87.3346 21.2058 88.2901 21.9599C88.7843 22.2558 89.3572 22.4838 89.938 22.645C90.8608 23.0476 91.5577 23.7586 91.9911 24.6549C92.6187 25.9855 92.8802 27.2273 92.8758 28.5118C92.8762 31.109 92.2882 33.6118 91.1372 35.9531C89.0713 40.4033 85.6636 44.3819 81.32 46.6927C78.9938 47.9127 77.5499 48.223 75.6961 47.4559C74.7832 47.1102 73.8665 46.5457 72.784 46.1648C72.3994 46.0288 71.9869 45.8266 71.5664 45.6816C69.6039 44.7927 68.5613 43.1173 68.5341 41.0342C68.5021 39.1796 68.7612 37.1962 69.4593 35.4051C70.498 32.7423 71.8345 30.3312 73.7188 28.2341C74.3815 27.4806 75.0741 26.9073 75.8569 26.418C75.971 26.3305 76.1404 26.3561 76.3955 26.1994C75.6092 27.0027 74.9631 27.6893 74.2451 28.3297C74.131 28.4173 74.0912 28.6843 73.9883 28.9049C73.6095 29.2793 73.3317 29.671 73.155 30.08C73.7423 29.5942 73.759 29.5273 73.9883 28.9049C74.1845 28.9396 74.3427 28.8322 74.5 28.6773L74.5089 28.6771ZM72.3566 33.7852C73.7071 31.1551 75.4795 28.7555 77.9474 26.9908C77.5272 26.8553 77.2907 27.0592 76.9721 27.1504C76.2602 27.6288 75.5397 28.1265 75.0083 28.7636C72.5489 31.5366 70.9583 34.6751 69.9618 38.241C69.695 39.2636 69.6329 40.3017 69.7056 41.4231C69.7206 41.7748 69.7795 42.0973 70.1239 42.4719C69.9513 39.1736 71.0234 36.3865 72.3566 33.7852ZM77.5941 29.1851C77.1413 29.7352 76.6183 30.3436 76.1133 30.9612C75.9635 31.0399 75.9945 31.2868 75.9084 31.45C75.6677 31.4161 75.5577 31.7415 75.3842 31.9918C74.5243 33.1674 73.7144 34.6655 73.1432 36.0835C72.521 37.6355 72.0984 39.4219 72.0032 41.117C71.969 41.7074 71.9904 42.4301 72.2587 43.0343C72.2936 42.9957 72.311 42.9764 72.3461 42.9472C72.3704 42.8136 72.3859 42.6801 72.3306 42.5669C72.1491 41.3237 72.2944 39.9607 72.5868 38.8711C73.23 36.472 74.2399 34.1998 75.6358 32.1397C75.766 31.9567 75.8057 31.6801 75.9085 31.4595C76.7322 30.7603 77.2439 30.0093 77.8226 29.0289C78.1252 29.0427 78.31 28.9349 78.3734 28.4866C78.1369 28.6905 77.8618 28.7238 77.9135 29.1415C77.8154 29.1242 77.6817 29.1075 77.5943 29.1946L77.5941 29.1851ZM79.749 28.8529C78.9286 30.7699 78.0907 32.7061 77.4494 34.6961C76.9094 36.3799 76.4597 38.1382 76.6514 39.971C76.6359 40.1045 76.6277 40.1427 76.513 40.1923C76.1052 40.2659 75.8876 40.0223 75.8644 39.7087C75.7377 38.5503 75.6375 37.3818 75.9815 36.1961C76.3595 34.9147 76.7788 33.4519 77.1994 32.0651C77.3093 31.7397 77.3567 31.3964 77.4596 31.1758C77.1327 31.2956 76.9515 31.6127 76.7702 31.9298C76.286 32.7183 75.7488 33.5363 75.3465 34.4375C74.359 36.462 73.6316 38.6152 73.4745 40.8442C73.283 43.6541 73.9623 44.8886 76.5753 43.7969C81.9029 41.3168 85.5304 36.678 87.4281 31.2413C87.8235 29.9406 88.061 28.7663 88.2438 27.5073C88.4267 26.2578 88.3891 25.1168 88.0861 24.047C88.0107 23.8009 87.8652 23.6132 87.7814 23.3958C87.2684 23.5474 86.7767 23.9079 86.4096 24.2757C85.413 25.2634 84.632 26.371 83.924 27.5915C82.6886 29.6773 81.4726 31.858 80.5863 34.0805C80.4414 34.4446 80.2406 34.6574 80.1306 34.9827C80.2623 33.8578 80.7954 32.8021 81.1885 31.882C81.6076 30.9233 82.0798 29.9543 82.5357 29.0616C82.9916 28.1784 83.5888 27.2358 84.0539 26.362C83.8847 26.3459 83.7087 26.4535 83.6736 26.4827C81.976 29.0903 80.6459 31.8723 79.6498 34.9435C79.3754 36.0423 78.9305 37.0489 78.9877 38.3038C79.087 38.3877 78.9645 38.504 78.9415 38.7137C78.6616 38.9849 78.7046 39.4123 78.7181 39.6784C78.7235 39.9923 78.6479 40.2505 78.7235 40.506C78.1915 40.5914 77.705 40.5649 77.2639 40.4266C77.0011 39.1088 77.1486 37.8694 77.3038 36.5633C77.3425 36.2297 77.4332 35.819 77.5712 35.5693C78.0041 33.8683 78.7004 32.4863 79.3059 30.9917C79.6397 30.2438 79.9974 29.3338 80.3657 28.5188C79.8896 28.2416 79.8427 28.6134 79.7489 28.8434L79.749 28.8529ZM83.1524 22.5625C82.1716 23.9494 81.369 25.3523 80.6556 26.7727C80.5611 26.9646 80.6086 27.1446 80.6633 27.2197C81.1344 27.2116 81.1968 26.7063 81.4042 26.3602C82.2383 24.7189 83.1619 23.1141 84.3993 21.6561C83.8861 21.7982 83.5112 22.2328 83.1435 22.5626L83.1524 22.5625ZM84.4454 40.2644C84.6034 40.1475 84.6378 40.0803 84.8665 39.9337C86.2467 38.5113 87.2321 36.8769 88.1598 34.9961C89.0534 33.1921 89.6501 31.1934 89.8347 29.0115C89.9308 27.8872 89.9557 26.7546 89.7425 25.7403C89.6178 25.2097 89.4937 24.7171 89.0287 24.0497C89.0751 24.6768 89.1077 25.0188 89.1136 25.3611C89.5537 27.1612 89.4179 29.0758 88.9767 30.8149C88.2278 33.7867 86.9611 36.6342 85.0922 39.1021C84.841 39.487 84.554 39.863 84.2755 40.2103C84.3468 40.2185 84.4536 40.2262 84.4454 40.2644ZM88.7305 37.6596C88.1392 38.431 87.6967 39.0665 87.2039 39.8742C87.1249 39.9327 87.1891 40.0457 87.1588 40.3507C87.5733 39.6395 87.8956 39.2534 88.2869 38.7424C88.4941 38.3868 88.7007 37.9931 88.9435 37.6369C89.4411 37.1051 89.6702 36.4732 89.9261 35.8409C89.9249 35.7743 89.9409 35.6694 89.834 35.6617C89.9397 35.6028 90.1178 35.6187 90.1167 35.5521C91.3532 33.0191 92.0038 30.5343 91.9811 27.6805C91.904 27.3298 91.8701 26.9118 91.7097 26.3818C91.6801 26.7248 91.5673 26.8885 91.6598 27.0962C91.8736 29.176 91.4832 31.2758 90.709 33.2966C90.4466 34.0623 90.2765 35.0261 89.932 35.6695C89.6737 36.1592 89.1856 36.7289 88.9637 37.2655C88.8854 37.362 88.9412 37.5038 88.9346 37.6371C88.8635 37.6383 88.7297 37.6121 88.7214 37.6503L88.7305 37.6596Z" fill="black"/>
<path d="M105.637 39.8982C106.528 41.0816 107.473 42.2545 108.425 43.3226C109.097 44.0816 109.846 44.7346 110.641 45.4534C111.181 45.8246 111.8 46.1755 112.374 46.47C113.047 46.8104 113.707 46.3804 114.321 46.4363C114.499 46.4333 114.605 46.4314 114.792 46.4282C114.152 46.953 112.44 48.7236 111.789 49.144C110.814 49.7983 109.808 49.7681 108.805 49.3193C107.998 48.9622 107.359 48.488 106.64 48.0343C106.281 47.8597 106.037 47.6261 105.635 47.5379C105.421 47.494 105.246 47.1545 105.101 46.9478C104.982 46.7785 104.889 46.5708 104.709 46.4217C103.86 45.6468 102.99 44.7295 102.335 43.818C101.679 42.9065 101.004 41.9192 100.331 41.065C100.267 40.9615 100.123 40.8879 99.9957 40.7093C99.8829 40.873 99.699 41.0379 99.6949 41.3139C98.6248 44.2151 97.5271 47.0692 96.3593 49.9816C96.2673 50.3161 96.2537 50.5542 96.0193 50.8818C95.942 51.0448 95.7486 51.1718 95.4472 51.2246C95.1404 51.4773 95.0454 51.1269 94.6514 50.9625C94.6525 51.0291 94.5304 51.1644 94.4514 51.2228C94.3379 51.3485 94.0295 51.506 93.9653 51.393C93.8229 51.3859 93.6489 51.094 93.6566 51.0273C93.8134 50.3205 93.4815 49.6413 93.3016 49.007C93.188 48.6093 93.2873 48.1795 93.3146 47.7033C93.3277 47.4272 93.3502 47.189 93.2571 46.9432C92.9092 47.9101 92.695 48.8938 93.1836 49.8938C92.4333 50.2112 92.1306 50.1879 91.8101 49.6511C91.517 49.152 91.417 48.5163 91.4949 47.8775C91.6121 46.9431 91.8431 45.9021 92.1289 44.9458C92.44 43.9129 92.9106 42.8487 93.3018 41.8145C93.3166 41.643 93.3938 41.4799 93.5498 41.2489C93.215 40.9122 92.8524 40.5093 92.5627 40.2099C92.2641 39.9106 92.4369 39.6222 92.8529 39.5104C93.3131 39.3883 93.7391 39.3428 94.3148 39.2092C93.875 38.9694 93.5485 39.1178 93.3355 39.1405C92.7849 39.1786 92.463 39.07 92.2505 38.6075C92.8174 38.4835 93.5079 38.3098 94.0661 38.1955C94.642 38.0809 95.1426 37.7203 95.3545 37.1172C96.5395 34.6897 97.6884 32.2248 99.0708 29.8986C99.3294 29.4279 99.7198 28.8694 99.9424 28.3708C100.02 28.2077 100.124 28.1013 100.235 27.8044C99.6589 27.919 99.386 28.076 99.1416 28.3371C98.6176 28.8884 98.4486 28.8818 97.8636 28.4733C97.7021 28.3905 97.6107 28.2494 97.574 28.1834C96.9052 27.5575 96.9201 27.386 97.6392 26.8123C98.5076 26.1218 99.4881 25.7528 100.431 25.2798C101.101 24.9448 102.015 24.8148 102.401 24.5418C102.814 24.2492 103.16 23.6534 103.483 23.3433C103.851 23.004 104.246 22.7498 104.736 22.7604C105.225 22.7709 105.782 22.6186 106.305 22.4859C107.971 22.1717 109.814 21.8258 111.622 22.0039C112.531 22.0928 113.582 22.2078 114.43 22.412C115.751 22.7126 117.008 23.4044 117.934 24.5301C118.009 24.7 118.205 24.7632 118.243 24.8958C119.262 25.7154 119.53 27.8228 118.803 29.0151C118.675 29.2932 118.59 29.542 118.424 29.7162C117.388 30.9899 116.138 32.2008 114.721 33.053C114.115 33.482 113.543 33.8344 112.857 34.2459C110.066 35.8544 108.575 36.5366 105.459 37.8749C105.211 37.9362 104.831 38.0665 104.621 38.2319C104.813 39.0562 105.128 39.2696 105.637 39.8982ZM94.0572 44.3702C93.9647 44.6762 93.8014 45.0025 93.7106 45.4036C93.7106 45.4036 93.7817 45.4024 93.9242 45.419C94.0162 45.0844 94.1516 44.6825 94.2352 44.3766C94.1878 44.3774 94.1284 44.3721 94.0571 44.3606L94.0572 44.3702ZM105.385 29.9987C104.479 31.5841 103.635 33.14 102.693 34.7165C102.624 34.8509 102.405 35.0164 102.612 35.1936C103.45 34.8081 104.351 34.4595 105.144 34.0367C107.251 32.9918 109.34 31.9092 111.145 30.3938C111.882 29.8388 112.521 29.2189 113.272 28.4543C113.666 28.105 113.898 27.6253 114.119 27.0316C112.673 26.2003 109.763 26.0604 107.07 26.6397C106.529 27.7622 105.98 28.8848 105.385 29.9987ZM103.24 30.9015L103.276 30.9009C103.388 30.6706 103.562 30.4678 103.665 30.2663C103.664 30.2219 103.633 30.14 103.572 30.0205C103.392 30.3947 103.253 30.5969 103.177 30.8265C103.177 30.8265 103.178 30.8931 103.24 30.9015ZM104.95 27.9702C104.777 28.2491 104.373 28.5415 104.363 28.9508C104.607 28.6802 104.94 28.3795 104.949 27.9037C105.562 27.3318 105.665 27.1302 105.874 26.3845C106.139 26.2562 106.313 26.0534 106.314 25.5682C106.079 25.8767 105.779 26.0341 105.866 26.4512C105.294 26.7465 105.183 27.5761 104.941 27.9704L104.95 27.9702ZM106.977 23.321C109.638 22.9515 112.243 22.935 114.835 23.2232C112.847 22.3823 108.291 22.6609 106.977 23.321Z" fill="black"/>
<path d="M122.669 21.6401C122.927 21.6261 123.096 21.6803 123.365 21.7708C123.742 21.4693 123.926 20.8097 124.72 20.9577C124.793 21.0896 124.777 21.185 124.806 21.3272C124.826 21.4125 124.977 21.4479 124.977 21.4479C125.601 21.5038 125.844 21.6898 125.889 22.2409C125.975 22.0586 126.195 21.9406 126.292 21.8629C126.439 21.6415 126.603 21.3818 127.086 21.5256C127.747 21.714 128.243 22.0955 128.116 22.4973C127.999 22.8799 127.916 23.2713 127.805 23.5206C126.844 26.0489 125.893 28.6151 125.008 30.9517C123.818 34.1119 122.979 37.4943 122.231 40.5611C121.733 42.5962 121.51 44.6075 121.055 46.5847C120.91 47.453 120.781 48.2258 120.759 48.9683C120.735 49.6727 120.714 50.5103 121.375 51.2029C120.581 51.5496 119.833 51.5055 119.244 51.3349C118.922 51.2358 118.752 51.2102 118.362 51.2645C117.36 51.415 116.625 51.1043 116.284 50.3681C115.961 49.6887 116.062 48.8307 116.119 48.0115C116.405 45.0287 117.164 42.1519 117.897 39.2566C118.371 37.3646 118.95 35.4138 119.45 33.4738C119.16 33.1459 118.173 33.1534 118.553 32.4809C118.121 32.6691 118.017 32.8422 117.648 33.0959C117.643 32.7916 117.498 32.6514 117.558 32.5171C117.706 31.8581 117.856 31.2371 118.104 30.681C119.327 27.8628 120.325 24.9343 121.398 22.1663C121.555 22.0209 121.615 21.8486 121.847 21.4164C121.995 21.7183 122.069 21.9168 122.107 22.0208C122.182 22.2574 122.133 22.4961 122.218 22.799C121.866 23.0239 121.783 23.3393 122.001 23.6305C121.951 23.3269 122.035 23.0115 122.084 22.8014C122.533 22.5367 122.302 21.9984 122.678 21.6304L122.669 21.6401ZM118.635 45.9796C119.055 43.4988 119.562 40.9783 120.363 38.4053C121.681 33.4067 123.107 28.4634 125.302 23.7637C125.387 23.5529 125.401 23.3053 125.461 23.1711C125.168 23.1952 125.072 23.3396 124.986 23.5123C123.766 25.9689 122.734 28.5079 121.943 31.0903C120.451 35.8065 119.2 40.585 118.288 45.4148C118.043 46.7224 117.908 48.1328 117.875 49.3321C117.865 49.7794 117.911 50.359 118.587 50.8801C118.014 49.1489 118.369 47.535 118.635 45.9796Z" fill="black"/>
<path d="M126.424 41.9069C125.469 42.1803 124.436 42.084 123.722 41.4019C123.316 41.1139 123.316 41.0854 123.703 40.3366C123.311 40.2578 122.866 39.219 122.471 39.007C123.302 38.7167 124.505 38.3724 125.743 38.0085C127.46 37.5031 129.372 37.0515 130.451 36.6903C130.875 36.5498 131.11 36.2508 131.397 35.8748C132.232 34.2811 133.131 32.7719 133.94 31.2357C134.394 30.2574 134.784 29.1375 135.148 28.0657C135.725 26.4764 136.33 24.9913 136.844 23.3365C137.027 22.6198 137.149 21.9137 137.374 21.0916C137.441 20.805 137.481 20.595 137.549 20.3751C138.011 20.348 138.422 20.4646 138.591 21.023C138.602 21.1275 138.71 21.1827 138.755 21.239C139.114 21.4326 139.218 21.7638 139.083 22.2323C139.067 22.3372 139.088 22.47 139.109 22.679C140.067 21.5398 140.58 20.3512 141.496 19.3079C141.701 19.3424 141.89 19.4913 142.167 19.5817C142.887 19.046 143.497 19.3303 144.065 19.7867C144.218 19.8982 144.362 20.0099 144.398 20.0093C144.905 20.0291 145.079 20.359 145.236 20.6988C145.467 21.18 145.494 21.6933 145.344 22.2762C145.014 24.2799 144.692 26.2358 144.398 28.2673C144.376 29.0383 144.353 29.7522 144.206 30.5159C144.059 31.289 143.964 31.9757 143.791 32.7683C143.664 33.132 143.62 33.637 143.582 34.0182C143.551 34.3232 143.714 34.4821 143.922 34.6593C144.212 34.9587 144.458 35.316 144.704 35.6447C144.895 35.9078 145.202 36.1974 145.333 36.5472C145.537 37.0669 145.505 37.2768 145.023 37.6371C144.47 38.0558 143.48 38.4249 143.186 38.8962C142.901 39.3673 143.022 40.7162 142.976 41.6588C142.893 43.563 142.92 45.627 143.031 47.3947C143.055 47.7939 143.114 48.0973 143.199 48.4098C143.323 48.8643 143.403 49.3862 143.983 49.5379C144.064 49.5936 144.155 49.6871 144.236 49.7428C144.17 50.0674 143.949 50.0998 143.823 50.0449C143.339 49.8059 142.85 49.7763 142.259 50.1005C141.837 50.3361 141.442 50.1431 140.978 50.037C140.594 49.9485 140.316 49.8201 139.887 49.6658C139.33 49.3615 138.961 49.0634 138.71 48.4779C138.525 48.0434 138.249 47.4869 138.189 47.0979C137.921 45.5042 137.927 43.7821 137.96 42.1261C137.977 41.0222 138.002 39.9181 138.069 38.6612C137.892 38.6833 137.739 38.6003 137.633 38.6116C136.349 38.9478 135.048 39.2652 133.959 39.5599C133.57 39.6713 133.221 40.0484 132.944 40.4908C131.888 42.1835 130.851 43.8664 129.857 45.5675C129.443 46.2596 128.877 46.9925 128.277 47.764C128.148 47.4618 128.137 47.3953 128.135 47.2622C128.029 47.264 127.958 47.2748 127.958 47.2748C127.721 47.4977 127.592 47.7187 127.428 48.0355C126.958 48.624 126.49 48.7938 125.795 48.7012C125.501 48.6492 125.001 48.5627 124.901 48.4217C124.728 48.1773 125.074 47.6196 125.391 47.4618C125.709 47.3041 125.336 46.8159 125.707 46.6858C126.034 46.5755 125.741 46.0953 125.942 45.8825C126.248 45.5823 126.376 45.3042 126.424 44.9894C126.624 44.7005 126.778 44.3839 126.943 44.1242C127.001 43.8758 127.191 43.5491 127.319 43.271C127.465 42.9545 127.612 42.6951 127.758 42.4071C127.913 42.1 128.041 41.8314 128.184 41.3723C127.521 41.5645 126.982 41.7641 126.442 41.9256L126.424 41.9069ZM128.486 42.328C128.569 42.0125 128.948 41.8443 128.939 41.2926C128.653 41.7257 128.489 41.9854 128.486 42.328ZM131.793 41.2718C131.912 40.9939 132.174 40.6849 132.323 40.0449C131.652 40.8366 131.307 41.4895 131.161 42.2627C131.387 41.9638 131.63 41.6457 131.793 41.2718ZM136.422 37.0057C136.245 37.0278 136.052 37.1548 135.874 37.1769C136.195 37.2379 136.576 37.1267 136.851 37.0934C136.957 37.0821 136.937 36.9397 136.998 36.8721C137.4 36.9983 137.746 36.9447 138.187 36.7183C137.8 36.6299 137.404 36.6811 136.998 36.8721C136.856 36.8935 136.688 36.9155 136.414 37.0154L136.422 37.0057ZM140.141 27.361C139.243 28.8702 137.345 33.3079 136.585 34.6054C136.489 34.6832 136.606 34.7763 136.617 34.9093C137.228 34.7655 138.21 34.4346 138.962 34.2218C139.135 31.8879 140.284 28.9568 140.15 27.3513L140.141 27.361ZM137.117 31.9133C137.726 31.1417 138.235 30.2481 138.657 29.4321C137.958 30.1863 137.43 31.0136 137.117 31.9133ZM139.618 38.2443C139.278 38.6403 139.382 38.9619 139.387 39.2758C139.278 40.153 139.322 41.1512 139.223 42.1233C139.057 43.8291 139.266 45.6236 139.357 47.3155C139.372 47.6482 139.475 47.989 139.543 48.2922C139.087 45.0369 139.499 41.6428 139.618 38.2348L139.618 38.2443ZM138.666 24.8368C138.564 25.0954 138.427 25.3832 138.385 25.5647C138.712 25.4544 138.815 25.2242 138.666 24.8368ZM138.897 28.9142C139.299 28.5457 139.401 28.2585 139.483 27.8671C139.203 28.1097 138.932 28.3903 138.897 28.9142ZM141.781 37.8644C141.801 37.9973 141.741 38.1125 141.751 38.1789C141.536 40.6657 141.373 43.0755 141.496 45.5375C141.538 46.4596 141.591 47.4576 141.847 48.357C141.948 48.5551 142.004 48.7159 142.131 48.8373C142.262 48.6829 142.243 48.6261 142.16 48.4563C141.92 47.9752 141.941 47.0901 141.902 46.4153C141.852 45.5694 141.783 44.6478 141.775 43.706C141.772 42.9735 141.766 42.1079 141.796 41.3177C141.836 40.5083 141.971 39.5641 141.99 38.6314C141.96 38.4322 141.997 38.0319 141.933 37.9094C141.906 37.8623 141.852 37.8537 141.781 37.8644ZM140.017 34.0418C140.016 33.9752 140.078 33.9647 140.068 33.8982C140.406 31.8469 140.786 29.6807 141.133 27.6292C141.122 27.5248 141.113 27.4964 140.994 27.3367C140.586 28.3713 139.872 32.8551 140.026 34.0417L140.017 34.0418ZM141.193 21.3205C141.218 21.244 141.189 21.1113 141.194 20.8733C140.228 22.0983 139.86 22.9038 139.784 23.6472C140.276 22.7825 140.778 22.0127 141.184 21.3302L141.193 21.3205ZM142.316 32.8128C142.235 33.2709 142.169 33.5575 142.103 33.844C142.489 33.5424 142.475 33.2382 142.316 32.8128ZM143.057 28.8518C143.441 26.8853 143.904 24.9079 144.217 22.9427C144.233 22.8377 144.151 22.7155 144.111 22.4783C143.983 22.7755 143.916 22.9954 143.9 23.1004C143.553 24.6476 143.321 26.1453 143.028 27.7106C143.002 28.2343 142.909 28.5594 142.854 28.9504C142.587 29.9921 142.455 31.0884 142.455 32.1254C142.507 32.0104 142.583 31.7902 142.573 31.7238C142.686 31.0464 142.808 30.4068 142.94 29.8337C142.89 29.4921 142.895 29.2542 142.854 28.9504C142.925 28.9397 143.022 28.919 143.048 28.8519L143.057 28.8518Z" fill="black"/>
</svg>
