<svg width="340" height="118" viewBox="0 0 340 118" fill="none" xmlns="http://www.w3.org/2000/svg">
<path d="M68.4651 60.5321C68.2419 60.6257 68.0515 60.9249 68.0597 60.9686C67.3699 64.0788 66.4658 67.2341 65.9736 70.2426C65.741 71.6587 65.8569 73.4216 65.9907 75.0567C66.0461 75.701 66.4951 76.3572 67.2535 76.8342C67.6871 77.2492 67.4793 77.584 66.9384 77.8131C65.4708 78.3647 63.956 78.3156 62.3111 77.3211C61.7541 77.4013 61.3605 77.3894 60.8117 77.5133C60.0476 77.836 59.4127 78.0455 58.5244 77.774C57.2434 77.3676 56.4161 76.9407 55.9593 76.1793C55.6041 75.5734 55.4037 74.8625 55.3823 74.27C54.9281 71.9271 55.1096 69.2824 55.5952 67.1965C56.3102 64.1559 57.4299 60.7711 58.3342 57.5851C58.3188 57.3439 58.3032 57.1334 58.4094 56.6431C57.9795 56.9177 57.834 56.9126 57.6108 57.0062C56.3048 58.8935 53.7439 60.3209 52.3956 62.1433C51.5941 62.9063 50.6693 62.9519 49.517 62.4939C49.0549 62.4706 48.8856 62.2114 48.7401 62.2063C45.8394 62.0566 45.7824 60.4459 45.363 59.2443C44.9685 58.143 44.6872 56.7796 44.2764 55.5602C43.8848 57.6656 44.6069 59.6414 45.4466 61.9217C43.1314 61.3002 43.706 59.9413 42.471 59.0768C41.5042 60.2086 41.0842 61.4933 40.3316 62.6108C39.5357 63.7865 38.9609 65.1762 38.0614 66.4732C37.3088 67.5907 36.6838 68.8103 35.7436 69.8272C37.049 65.6074 40.1573 61.8465 40.7457 57.3375C40.0956 58.4876 39.4198 59.6294 38.8302 60.6857C36.5982 65.1972 33.9639 69.7147 31.4067 74.2258C31.0921 75.1431 30.5526 76.3694 30.0367 76.6989C29.3833 77.0978 28.0434 76.5392 27.0007 76.3111C26.8414 75.8496 26.7248 75.3913 26.625 74.9897C26.5583 74.7322 26.6296 74.3439 26.6395 74.1415C28.1232 71.3448 29.5117 68.6823 30.7818 65.8076C31.1721 65.0991 31.2551 64.2624 31.1883 62.8232C30.6447 63.4214 30.3264 63.6492 30.3329 63.939C28.9223 66.1012 27.8617 68.3951 26.4072 70.7079C25.9047 71.5554 25.2986 72.5242 24.6758 73.4363C24.2261 74.0848 23.0505 74.4927 21.6969 74.6592C21.7082 74.2723 21.4876 73.9969 21.7289 73.7754C26.2104 63.4736 31.9133 53.5489 37.6935 43.5872C39.048 40.9036 41.0855 38.4573 42.5152 36.0133C43.052 35.1562 43.7673 34.4789 44.2337 33.8871C44.5966 33.4165 45.2736 33.3025 46.0505 33.5901C46.6231 33.7204 46.5001 34.1541 46.3607 34.5003C46.3518 34.5488 46.5051 34.6591 46.5123 34.8566C47.4214 34.6005 48.5351 34.4709 49.0938 34.1447C50.7423 33.4347 51.8406 34.2763 53.1388 34.6779C53.7107 34.9005 53.5956 35.4393 53.6188 35.7858C53.2752 37.1564 52.9323 38.4347 52.4943 39.8472C51.184 44.7437 50.9684 49.7922 51.6679 54.9358C51.8366 55.2873 51.8438 55.4848 52.0969 55.9966C52.3136 55.6133 52.6652 55.5296 52.9572 55.3859C55.5929 53.078 57.5799 50.5232 59.5835 48.025C61.7858 45.2714 63.8598 42.5078 65.6005 39.6693C66.4509 38.0486 67.7877 36.6437 68.8339 35.1673C69.2375 34.9768 69.342 34.7325 69.6779 34.4384C70.5736 33.6643 71.3353 33.6799 72.6746 34.3308C72.9731 34.4769 73.1264 34.5872 73.6065 34.4826C75.1671 34.1044 76.3776 34.8069 77.7246 35.5631C77.4108 36.3575 77.157 37.1503 76.7583 37.8458C74.7951 41.8672 72.859 45.7123 71.4524 49.7151C70.9297 50.998 70.6367 52.4771 70.1984 53.9204C69.1398 55.9375 68.3875 58.2059 68.2254 60.5383C68.311 60.5448 68.3709 60.5433 68.4564 60.5499L68.4651 60.5321ZM60.2458 71.6414C60.0994 72.9718 59.6437 74.4507 61.1814 76.0893C60.9103 74.4929 60.493 72.9837 60.2458 71.6414ZM70.7415 53.3837C71.317 51.9018 72.0707 50.6305 72.6462 49.1485C72.8362 48.9108 73.1643 48.5115 73.4914 48.2659C72.681 52.6839 71.1699 56.9309 69.8901 61.1589C68.6279 65.3205 67.6556 69.646 66.6146 73.9908C66.5908 73.7367 66.4816 73.4451 66.5593 73.3465C66.7631 71.1712 66.7441 69.028 67.2382 66.9551C67.7497 64.8466 68.2103 62.6604 68.4651 60.5321C68.3796 60.5255 68.3196 60.527 68.2341 60.5205C68.8684 59.1907 69.3151 57.7604 69.7708 56.2815C70.0064 55.6473 70.1165 54.6034 70.2071 53.9026C70.4303 53.809 70.543 53.6085 70.7502 53.3659L70.7415 53.3837Z" fill="black"/>
<path d="M80.4402 58.0448C80.7179 57.6805 82.361 57.8837 82.4867 56.8878C81.5853 56.8687 80.7642 56.7517 80.026 56.7348C80.0515 56.1934 80.5588 55.9053 81.1061 55.7135C81.6013 55.5355 82.2078 55.3737 82.909 55.2019C83.3075 55.0956 83.6647 54.6642 83.9987 54.4224C85.6441 51.8144 87.1907 49.3397 88.6566 46.7032C87.8962 46.2951 87.1411 45.9925 86.2753 45.3834C86.0677 45.2453 86.0753 44.9123 86.2981 44.3845C88.1529 44.4089 89.7065 44.1777 91.3247 43.5321C90.7578 42.9808 90.3338 43.0786 89.621 43.0702C88.5121 43.3661 87.2367 43.4925 86.085 43.2346C85.7736 43.0275 85.4021 42.8211 85.0286 42.6763C85.7848 41.8483 86.5751 41.8513 87.3283 41.6656C88.3506 41.3929 89.3334 41.2834 89.9033 40.6426C90.0636 40.1874 90.8996 40.1018 91.2909 39.9516C96.5471 39.1755 101.655 38.1946 106.716 37.8829C110.383 37.6684 114.097 37.3038 117.625 37.1263C120.266 36.9866 123.235 36.8515 125.819 37.4296C128.191 37.9577 129.98 38.9773 130.989 40.7855C131.042 41.2908 131.379 41.7659 131.868 42.3535C130.617 42.7788 130.516 44.1043 129.232 44.7675C128.764 44.8923 128.624 45.51 128.629 45.9059C128.342 47.1282 127.664 47.92 126.048 48.5039C124.391 48.1822 123.657 47.2018 123.164 45.9588C123.119 45.757 123.047 45.5776 122.89 45.3596C122.462 44.7713 121.922 44.1976 120.963 44.0867C118.212 43.8891 115.144 43.6383 112.346 43.8196C109.126 44.0371 106.002 44.2138 103.014 44.7055C102.092 44.8142 100.916 45.0361 99.888 45.2341C99.4038 45.3328 98.9278 45.4445 98.7747 45.9436C97.6733 47.6427 96.4121 49.5066 95.0518 51.2443C95.0643 51.3937 95.3102 51.4961 95.3155 51.6016C96.5597 51.1016 96.6614 49.7762 97.4705 48.9035C98.2532 48.0531 98.7298 47.1011 99.6674 46.24C99.133 47.9406 98.062 49.4941 97.3798 51.2494C97.8866 51.2517 98.4708 51.2485 98.6788 51.1931C102.875 50.5318 107.332 50.03 111.417 49.6122C112.313 49.5258 113.49 49.5326 114.604 49.6326C116.249 49.7742 117.477 50.6074 118.045 51.9374C118.075 52.0822 118.15 52.4288 118.556 52.6259C119.397 53.1957 119.508 54.0522 119.656 54.8069C118.512 54.5929 117.505 54.3727 116.714 54.4006C115.837 54.4207 115.051 54.554 113.988 54.7305C114.429 55.4682 114.592 56.0205 114.928 56.5572C113.049 56.753 111.438 56.8926 109.844 57.0275C104.54 57.9846 99.434 58.6136 93.9371 59.3928C92.012 63.5265 90.455 67.6995 89.5661 71.9386C90.0983 72.4992 90.6129 72.255 91.2174 72.1549C95.2381 71.6015 99.3584 70.884 103.221 70.4338C107.326 69.9497 111.551 69.7237 115.224 69.2935C117.259 69.0561 119.029 69.592 119.891 70.8742C120.021 71.1145 120.049 71.3209 120.457 71.4564C121.614 71.8198 121.762 72.5746 122.042 73.2176C120.813 73.2555 119.506 73.2988 118.654 73.3274C117.657 73.349 116.828 73.4785 116.56 74.0846C116.217 74.3442 115.698 74.4521 115.302 74.466C108.42 75.8746 101.515 77.1823 94.3585 77.7321C92.7149 77.8193 91.3274 77.9604 89.6929 78.0299C89.7477 78.4735 90.0143 78.7384 90.2169 79.1273C89.2028 79.9631 87.7854 79.4095 86.7478 79.0753C85.7357 78.7496 84.9903 78.1389 83.8535 77.6785C82.6181 77.9012 81.5444 77.3476 80.6194 76.7084C79.5771 75.9784 79.0348 74.9164 78.814 74.013C78.2665 71.7457 78.6922 69.6769 79.2503 67.4965C79.8267 65.2807 80.364 62.9378 81.0578 60.8128C81.2239 60.1727 81.4574 59.5758 81.4849 58.9728C80.9349 58.7071 79.9689 58.5524 80.3627 58.0502L80.4402 58.0448ZM82.3698 72.9421C82.3323 72.4939 82.202 71.994 82.3825 71.4418C82.8377 68.1585 83.3136 65.0377 84.8632 61.9207C84.984 61.6288 85.2247 61.0758 84.5746 60.7146C83.9034 62.9405 83.1832 65.0878 82.5139 67.252C81.7128 69.7875 81.5305 72.3106 81.9871 73.9149C82.1758 73.3757 82.1479 73.1693 82.3616 72.929L82.3698 72.9421ZM87.9258 76.8517C87.652 76.5429 87.6395 76.3935 87.1755 76.3951C87.0124 76.3928 86.7943 76.4968 86.8015 76.5407C86.8213 76.734 86.8655 76.9666 87.0176 77.0482C87.1697 77.1298 87.429 77.3508 87.9291 77.5687C87.8887 77.2129 87.869 77.0196 87.934 76.8648L87.9258 76.8517ZM90.0597 61.4049C89.5522 62.7928 89.1435 64.0475 88.7083 65.3244C87.9606 67.5249 87.5373 69.7916 87.01 72.086C86.789 72.2824 86.5277 72.6729 87.3213 72.843C87.3814 72.8422 87.4243 72.8461 87.4844 72.8453C87.5119 72.7922 87.5302 72.7567 87.5494 72.6905C88.7955 68.5699 89.8384 64.3508 91.4425 60.318C91.4199 60.2171 91.4147 60.1116 91.3671 59.7119C90.6268 60.3066 90.2373 60.9451 90.077 61.4003L90.0597 61.4049ZM92.5586 77.0515C93.5332 76.9289 94.5588 76.8233 95.3564 76.3203C93.2561 76.453 91.329 76.5394 88.9745 76.5566C89.2484 76.8654 89.2031 77.2135 89.421 77.6595C90.5555 77.3721 91.6186 77.1648 92.5586 77.0515ZM112.484 40.8044C110.194 40.6667 107.942 40.7178 105.649 40.9629C105.434 40.9745 105.486 41.2202 105.486 41.2202C103.411 41.1018 102.04 41.2691 100.001 41.8892C102.075 42.0693 103.812 41.7433 105.409 41.2256C107.83 41.2823 110.145 41.1381 112.475 40.8221L112.484 40.8044ZM116.187 51.7458C114.266 51.6474 112.46 51.7015 110.711 52.1376C112.339 52.253 114.862 52.0841 116.187 51.7458ZM114.761 71.4639C115.983 71.3822 117.106 71.2049 118.521 71.0107C116.862 70.7505 115.633 70.7884 114.761 71.4639ZM122.744 39.8845C124.319 40.6252 125.86 40.2446 127.301 40.3184C125.863 39.8927 124.546 39.6941 122.744 39.8845Z" fill="black"/>
<path d="M166.879 58.6388C166.699 58.7661 166.578 59.0758 166.594 59.1323C166.717 62.3268 166.668 65.6002 166.953 68.6722C167.088 70.1187 167.639 71.861 168.191 73.4807C168.408 74.1235 169.001 74.7215 169.843 75.081C170.361 75.44 170.256 75.8063 169.802 76.1027C168.551 76.8531 167.09 77.0045 165.261 76.2191C164.748 76.3637 164.373 76.4084 163.893 76.6046C163.233 77.0202 162.702 77.3229 161.79 77.1667C160.461 76.9292 159.567 76.6149 158.949 75.9167C158.458 75.3511 158.096 74.6727 157.912 74.0817C156.888 71.7995 156.386 69.1404 156.333 66.9823C156.253 63.8524 156.466 60.3339 156.532 57.0251C156.448 56.7732 156.381 56.5778 156.376 56.0741C156.033 56.4159 155.896 56.4238 155.707 56.5381C154.942 58.5902 152.856 60.3564 152.014 62.3535C151.445 63.2179 150.582 63.3846 149.355 63.0875C148.911 63.1208 148.699 62.8897 148.546 62.9024C145.737 63.1278 145.279 61.5276 144.579 60.3935C143.929 59.337 143.307 58.0126 142.615 56.8608C142.771 59.0207 143.978 60.8995 145.345 63.0546C142.983 62.7253 143.19 61.3052 141.795 60.5963C141.155 61.848 141.077 63.186 140.642 64.4105C140.181 65.6882 139.982 67.152 139.469 68.5668C139.025 69.7784 138.743 71.0823 138.112 72.2242C138.305 67.8389 140.306 63.6788 139.733 59.0811C139.4 60.3073 139.049 61.5384 138.743 62.6808C137.762 67.4718 136.387 72.3429 135.073 77.1818C134.989 78.1389 134.801 79.4315 134.389 79.8232C133.873 80.3051 132.451 79.9254 131.393 79.8255C131.132 79.3942 130.905 78.9533 130.703 78.5511C130.577 78.2959 130.545 77.9068 130.495 77.7066C131.216 74.7182 131.851 71.8767 132.333 68.8331C132.526 68.0747 132.396 67.2239 131.971 65.7981C131.599 66.469 131.367 66.7334 131.442 67.0338C130.648 69.3844 130.213 71.8179 129.41 74.309C129.156 75.2223 128.825 76.2645 128.459 77.2551C128.19 77.9585 127.179 78.5188 125.931 78.8706C125.839 78.4831 125.56 78.2406 125.732 77.9777C127.396 67.1025 130.305 56.4275 133.308 45.7107C133.917 42.861 135.242 40.1462 135.995 37.5162C136.3 36.5886 136.809 35.8177 137.086 35.1579C137.312 34.6353 137.928 34.4311 138.746 34.6291C139.325 34.68 139.322 35.14 139.269 35.4918C139.302 35.5435 139.438 35.6276 139.488 35.8278C140.301 35.4609 141.327 35.1718 141.765 34.7882C143.163 33.8588 144.429 34.5578 145.759 34.7953C146.363 34.9462 146.402 35.5016 146.502 35.8407C146.518 37.2595 146.508 38.5782 146.455 40.047C146.445 45.1153 147.51 50.1866 149.479 55.2173C149.733 55.5437 149.783 55.7439 150.155 56.2206C150.251 55.8107 150.585 55.6708 150.825 55.5113C152.756 52.8555 154.004 50.0551 155.295 47.2887C156.716 44.2561 157.992 41.2185 158.927 38.1545C159.34 36.4312 160.265 34.8393 160.882 33.2422C161.208 32.9973 161.261 32.7375 161.493 32.4118C162.165 31.5185 162.891 31.421 164.33 31.9185C164.645 32.0287 164.824 32.1161 165.268 31.9602C166.672 31.381 167.999 31.9252 169.488 32.5002C169.389 33.3394 169.34 34.1641 169.138 34.9096C168.263 39.181 167.398 43.2812 167.044 47.4516C166.872 48.8008 166.973 50.3182 166.894 51.8095C166.392 53.9556 166.239 56.3249 166.674 58.666C166.76 58.6419 166.803 58.6452 166.897 58.634L166.879 58.6388ZM161.835 70.8185C162.03 72.1714 161.977 73.7015 163.87 75.1422C163.198 73.5869 162.432 72.1348 161.835 70.8185ZM167.248 51.2047C167.43 49.6538 167.823 48.2727 168.005 46.7217C168.135 46.4556 168.334 46.0168 168.592 45.7299C168.927 50.2418 168.546 54.6801 168.387 59.0864C168.236 63.4136 168.384 67.8558 168.489 72.3255C168.405 72.0735 168.22 71.7892 168.272 71.6827C167.912 69.4887 167.364 67.3476 167.311 65.2201C167.266 63.0442 167.163 60.8086 166.862 58.6436C166.777 58.6677 166.734 58.6644 166.64 58.6756C166.915 57.2669 166.994 55.7755 167.047 54.2454C167.112 53.5692 166.957 52.5263 166.86 51.8192C167.04 51.6919 167.109 51.4886 167.231 51.2095L167.248 51.2047Z" fill="black"/>
<path d="M183.619 52.5632C184.497 51.4156 185.859 50.4705 187.151 49.7438C187.975 49.2812 188.91 49.292 189.852 49.2598C190.812 49.226 192.004 49.0887 193.043 48.9353C193.651 47.7523 194.422 46.216 194.994 45.1068C195.615 43.9086 196.524 42.6024 197.745 41.6828C197.871 41.531 197.985 41.3375 198.173 41.1382C198.545 39.8463 199.904 39.8377 201.103 39.6573C201.639 39.5721 202.115 39.6762 202.809 39.6919C205.027 39.4874 207.295 39.8744 209.538 40.8451C210.663 41.2096 211.926 41.4638 213.18 41.6195C215.227 42.0809 216.921 43.0243 218.14 44.2748C219.918 46.1334 220.91 47.9126 221.369 49.7909C222.318 53.5875 222.021 57.3271 220.506 60.9082C217.877 67.6981 212.314 73.9837 204.216 77.9602C199.872 80.064 197.013 80.7167 192.917 79.8507C190.911 79.4711 188.818 78.7722 186.451 78.3646C185.609 78.2187 184.686 77.98 183.768 77.8261C179.403 76.7971 176.645 74.4915 175.829 71.4502C175.086 68.7435 174.896 65.8085 175.679 63.094C176.846 59.0584 178.717 55.3497 181.831 52.0245C182.92 50.8317 184.136 49.8982 185.57 49.0752C185.772 48.9314 186.13 48.9455 186.598 48.6814C185.273 49.9639 184.193 51.0567 182.949 52.0917C182.746 52.2355 182.762 52.6314 182.63 52.968C181.987 53.5675 181.558 54.1784 181.344 54.8006C182.376 54.0094 182.385 53.9094 182.63 52.968C183.047 52.9916 183.333 52.8129 183.601 52.5647L183.619 52.5632ZM181.052 60.3268C182.873 56.296 185.646 52.5441 190.082 49.6244C189.168 49.4843 188.755 49.8149 188.133 49.992C186.842 50.7896 185.54 51.6163 184.679 52.6209C180.628 57.0133 178.499 61.8204 177.749 67.1704C177.573 68.702 177.824 70.228 178.383 71.8572C178.542 72.3694 178.781 72.8326 179.627 73.3328C178.067 68.535 179.257 64.3131 181.052 60.3268ZM190.156 52.8807C189.424 53.7473 188.57 54.7087 187.755 55.6811C187.476 55.8168 187.63 56.1734 187.512 56.4238C187.004 56.4074 186.897 56.8982 186.631 57.2881C185.29 59.125 184.169 61.4266 183.511 63.5781C182.796 65.9325 182.578 68.6021 183.001 71.0932C183.146 71.961 183.454 73.0145 184.227 73.8608C184.284 73.7995 184.313 73.7689 184.375 73.7214C184.376 73.5227 184.359 73.3255 184.204 73.1676C183.377 71.3754 183.178 69.3629 183.383 67.7298C183.831 64.1341 185.081 60.6734 187.202 57.4696C187.404 57.1841 187.384 56.7744 187.516 56.4377C188.956 55.3021 189.735 54.1339 190.569 52.6209C191.197 52.5994 191.538 52.4163 191.505 51.7523C191.092 52.0829 190.538 52.1695 190.797 52.773C190.589 52.7612 190.308 52.7552 190.16 52.8946L190.156 52.8807ZM194.471 52.0982C193.481 55.0135 192.463 57.9594 191.869 60.9567C191.372 63.4925 191.088 66.1247 192.152 68.7776C192.168 68.9748 192.165 69.0318 191.947 69.1201C191.135 69.2839 190.598 68.9578 190.436 68.5026C189.752 66.8266 189.119 65.1323 189.395 63.3517C189.705 61.4265 190.034 59.2303 190.394 57.1451C190.502 56.6543 190.474 56.1459 190.605 55.8093C189.976 56.0295 189.719 56.518 189.461 57.0065C188.752 58.2259 187.945 59.4956 187.446 60.8685C186.152 63.964 185.44 67.2117 185.93 70.4917C186.561 74.6256 188.411 76.3367 193.391 74.3808C203.454 70.0213 209.228 62.7404 211.151 54.5315C211.49 52.5756 211.55 50.8263 211.467 48.9607C211.387 47.109 210.894 45.4462 209.88 43.9241C209.635 43.5748 209.266 43.3204 209.015 43.0142C208.014 43.3065 207.133 43.9012 206.512 44.4896C204.821 46.0706 203.617 47.7973 202.605 49.679C200.823 52.8984 199.116 56.2536 198.102 59.6247C197.937 60.1768 197.601 60.5155 197.493 61.0063C197.354 59.3437 198.066 57.727 198.539 56.3278C199.052 54.8687 199.671 53.387 200.283 52.0193C200.9 50.6655 201.785 49.2052 202.424 47.8638C202.069 47.8635 201.746 48.0452 201.685 48.0927C199.142 52.1384 197.419 56.3884 196.489 61.0151C196.325 62.6592 195.777 64.1921 196.353 66.0185C196.588 66.1275 196.378 66.3143 196.407 66.6241C195.93 67.0591 196.174 67.6779 196.299 68.0651C196.425 68.5232 196.364 68.911 196.612 69.2742C195.548 69.4722 194.537 69.5005 193.579 69.3592C192.557 67.4689 192.408 65.6369 192.251 63.7063C192.209 63.2132 192.246 62.6004 192.438 62.2163C192.709 59.6702 193.638 57.554 194.339 55.2857C194.753 54.1465 195.157 52.767 195.618 51.5248C194.537 51.1852 194.576 51.7352 194.467 52.0843L194.471 52.0982ZM199.181 42.4339C197.668 44.5965 196.528 46.7578 195.578 48.9325C195.453 49.226 195.617 49.4825 195.757 49.5849C196.723 49.508 196.668 48.7608 196.968 48.2263C198.086 45.7121 199.402 43.239 201.417 40.9372C200.412 41.2156 199.799 41.9025 199.163 42.4353L199.181 42.4339ZM208.304 68.1326C208.586 67.9399 208.633 67.837 209.05 67.5911C211.372 65.3216 212.804 62.7967 214.028 59.9195C215.208 57.1593 215.707 54.1553 215.291 50.9404C215.079 49.2836 214.717 47.6246 213.908 46.1713C213.457 45.4128 213.022 44.7098 211.821 43.7982C212.145 44.7086 212.337 45.2039 212.474 45.7036C214.037 48.2743 214.457 51.0918 214.183 53.6949C213.726 58.1422 212.158 62.4793 209.211 66.3443C208.834 66.9416 208.381 67.5307 207.934 68.0768C208.084 68.0791 208.307 68.0756 208.304 68.1326ZM216.174 63.7345C215.239 64.9435 214.56 65.9335 213.84 67.1821C213.699 67.2784 213.872 67.4349 213.921 67.8848C214.515 66.7881 215.037 66.1792 215.656 65.3783C215.953 64.83 216.235 64.2261 216.605 63.6719C217.435 62.8259 217.676 61.8706 217.972 60.911C217.945 60.8139 217.94 60.6583 217.717 60.6618C217.913 60.5611 218.286 60.5599 218.259 60.4627C219.88 56.5895 220.312 52.8675 219.224 48.699C218.937 48.197 218.715 47.5906 218.191 46.8379C218.256 47.3434 218.083 47.5982 218.349 47.8891C219.549 50.9 219.511 54.0233 218.655 57.084C218.394 58.2394 218.396 59.6717 217.921 60.6597C217.568 61.4111 216.772 62.3112 216.511 63.1262C216.385 63.2781 216.551 63.4776 216.586 63.6734C216.44 63.685 216.155 63.6651 216.152 63.722L216.174 63.7345Z" fill="black"/>
<path d="M248.108 66.6511C250.381 68.2613 252.76 69.8488 255.116 71.2819C256.778 72.301 258.563 73.1541 260.466 74.0972C261.716 74.5664 263.123 74.9948 264.416 75.3469C265.929 75.7526 267.132 75.0317 268.421 75.0288C268.786 74.9998 269.006 74.9824 269.39 74.9519C268.261 75.8089 265.376 78.6388 264.187 79.3443C262.413 80.4374 260.327 80.532 258.092 80.0131C256.297 79.6014 254.804 78.9952 253.154 78.4298C252.35 78.2236 251.761 77.9152 250.9 77.8414C250.442 77.8067 249.957 77.3336 249.58 77.0509C249.274 76.8194 249.007 76.5279 248.58 76.3344C246.544 75.3165 244.415 74.0929 242.728 72.8484C241.04 71.6038 239.286 70.2509 237.586 69.0927C237.416 68.9499 237.092 68.8618 236.764 68.6179C236.591 68.8732 236.272 69.1402 236.364 69.545C235.217 73.9422 233.996 78.2742 232.652 82.7014C232.585 83.2041 232.644 83.5547 232.28 84.0668C232.18 84.3164 231.827 84.5291 231.225 84.648C230.684 85.0605 230.36 84.5604 229.486 84.3739C229.513 84.4713 229.311 84.6864 229.169 84.7829C228.981 84.9826 228.402 85.2559 228.228 85.0992C227.932 85.1085 227.466 84.7049 227.457 84.6061C227.522 83.5493 226.589 82.6002 225.986 81.6959C225.606 81.1292 225.653 80.4859 225.536 79.7846C225.462 79.3784 225.421 79.0263 225.139 78.6792C224.775 80.1435 224.693 81.6139 226.067 83.0112C224.634 83.5797 224.001 83.5873 223.144 82.8454C222.356 82.1547 221.917 81.2374 221.844 80.291C221.744 78.9062 221.84 77.3495 222.08 75.9093C222.344 74.3534 222.926 72.7297 223.355 71.1608C223.323 70.9075 223.422 70.658 223.66 70.2981C222.846 69.8511 221.95 69.3111 221.243 68.9126C220.517 68.5154 220.768 68.0691 221.586 67.8479C222.491 67.6054 223.353 67.4801 224.492 67.2049C223.497 66.9144 222.877 67.1768 222.446 67.2395C221.324 67.3712 220.62 67.2566 220.012 66.6085C221.137 66.3486 222.498 65.9989 223.608 65.7544C224.755 65.5071 225.656 64.9097 225.872 63.9971C227.43 60.2779 228.899 56.5088 230.9 52.9106C231.262 52.1856 231.863 51.3135 232.14 50.5525C232.24 50.303 232.417 50.1326 232.536 49.6825C231.39 49.9299 230.884 50.1975 230.475 50.6137C229.596 51.4936 229.244 51.5073 227.888 50.9897C227.524 50.8907 227.284 50.6966 227.184 50.605C225.575 49.7806 225.543 49.5274 226.817 48.5877C228.356 47.4564 230.245 46.7806 232.018 45.9576C233.278 45.3743 235.116 45.0579 235.814 44.6045C236.558 44.119 237.053 43.1986 237.608 42.6998C238.242 42.152 238.965 41.7251 239.979 41.673C240.992 41.6209 242.087 41.3208 243.116 41.0543C246.44 40.3641 250.117 39.603 253.913 39.6142C255.821 39.6191 258.032 39.6424 259.857 39.8244C262.693 40.0823 265.54 40.9221 267.863 42.443C268.078 42.6818 268.507 42.7472 268.634 42.9361C271.036 43.9959 272.36 47.0458 271.297 48.8925C271.133 49.3176 271.05 49.6937 270.771 49.9717C269.099 51.9804 266.962 53.9266 264.35 55.3705C263.256 56.0826 262.205 56.6777 260.939 57.3752C255.768 60.1165 252.941 61.3216 247.002 63.7119C246.513 63.836 245.776 64.0793 245.402 64.3506C246.1 65.5315 246.828 65.8006 248.108 66.6511ZM225.849 74.7999C225.77 75.261 225.552 75.7614 225.511 76.3616C225.511 76.3616 225.658 76.3499 225.958 76.3545C226.025 75.8518 226.158 75.2444 226.218 74.7848C226.121 74.7925 225.996 74.7929 225.845 74.786L225.849 74.7999ZM243.968 52.1855C242.678 54.6329 241.504 57.0284 240.137 59.4677C240.045 59.674 239.652 59.9468 240.145 60.1776C241.734 59.4972 243.465 58.8623 244.947 58.1335C248.913 56.3122 252.826 54.4381 255.998 51.9692C257.316 51.0544 258.407 50.0583 259.678 48.8346C260.363 48.2686 260.666 47.5339 260.904 46.6339C257.617 45.6159 251.561 45.8126 246.215 47.033C245.51 48.7517 244.787 50.472 243.968 52.1855ZM239.872 53.8041L239.945 53.7983C240.091 53.4456 240.376 53.1245 240.516 52.815C240.498 52.7501 240.404 52.6344 240.233 52.4679C239.998 53.0408 239.786 53.3561 239.713 53.703C239.713 53.703 239.74 53.8004 239.872 53.8041ZM242.328 49.2745C242.073 49.7069 241.346 50.1909 241.474 50.7919C241.879 50.3618 242.455 49.8755 242.301 49.1771C243.356 48.2549 243.495 47.9454 243.654 46.8242C244.153 46.5998 244.439 46.2787 244.262 45.5679C243.891 46.0522 243.33 46.3241 243.663 46.923C242.589 47.4347 242.665 48.665 242.309 49.2759L242.328 49.2745ZM244.809 42.1847C250.165 41.2762 255.535 40.8924 260.99 40.9566C256.579 39.9994 247.278 41.0365 244.809 42.1847Z" fill="black"/>
<path d="M281.821 41.5689C282.323 41.514 282.676 41.5686 283.236 41.6619C283.873 41.1791 284.005 40.2094 285.62 40.314C285.81 40.493 285.812 40.6319 285.919 40.8316C285.987 40.9512 286.298 40.9814 286.298 40.9814C287.544 40.977 288.088 41.2106 288.37 41.9938C288.475 41.7212 288.867 41.5224 289.03 41.3979C289.242 41.0609 289.475 40.6667 290.476 40.8075C291.843 40.9878 292.952 41.4672 292.844 42.0598C292.745 42.6238 292.72 43.1956 292.589 43.5678C291.581 47.3192 290.605 51.1236 289.681 54.5902C288.443 59.2777 287.972 64.2362 287.574 68.7302C287.304 71.7125 287.568 74.6236 287.364 77.5173C287.382 78.7806 287.398 79.9051 287.613 80.9716C287.813 81.9838 288.065 83.1864 289.608 84.089C288.166 84.6931 286.679 84.731 285.458 84.5664C284.79 84.468 284.448 84.4543 283.698 84.5849C281.778 84.936 280.224 84.5902 279.294 83.582C278.421 82.6525 278.319 81.4099 278.145 80.2288C277.666 75.9176 278.155 71.6942 278.585 67.4479C278.857 64.6738 279.316 61.8011 279.622 58.9547C278.936 58.5242 276.996 58.6685 277.508 57.6538C276.723 57.9819 276.579 58.2438 275.941 58.6572C275.825 58.222 275.491 58.0407 275.562 57.8403C275.624 56.8763 275.701 55.9666 275.995 55.1365C277.417 50.9343 278.359 46.6045 279.502 42.4946C279.762 42.2649 279.818 42.0102 280.125 41.3597C280.521 41.7722 280.737 42.0464 280.847 42.1904C281.078 42.519 281.064 42.8676 281.338 43.29C280.724 43.6597 280.67 44.1228 281.202 44.5103C280.998 44.0822 281.052 43.6191 281.076 43.3113C281.867 42.8716 281.223 42.1319 281.835 41.5538L281.821 41.5689ZM282.389 76.9779C282.347 73.3677 282.466 69.6888 283.141 65.895C283.989 58.5568 285.068 51.2832 287.746 44.2545C287.84 43.9411 287.78 43.5846 287.851 43.3842C287.283 43.4584 287.146 43.6781 287.037 43.9371C285.494 47.621 284.35 51.3974 283.696 55.2034C282.407 62.1605 281.615 69.1745 281.507 76.2159C281.484 78.1219 281.709 80.1605 282.065 81.8828C282.201 82.5249 282.493 83.3489 284.006 84.0038C282.274 81.6016 282.408 79.2419 282.389 76.9779Z" fill="black"/>
<path d="M296.944 75.2648C295.093 75.7929 292.95 75.7945 291.246 74.9012C290.315 74.5384 290.304 74.497 290.823 73.3561C289.993 73.2954 288.71 71.8471 287.827 71.5932C289.418 71.0577 291.748 70.3927 294.144 69.6943C297.463 68.725 301.202 67.8068 303.272 67.1344C304.087 66.8721 304.459 66.4055 304.908 65.8199C306.035 63.3901 307.322 61.0744 308.418 58.7317C308.991 57.2482 309.381 55.5679 309.735 53.9608C310.338 51.5728 311.036 49.3322 311.486 46.8577C311.6 45.7914 311.592 44.7489 311.755 43.5236C311.787 43.0982 311.794 42.7875 311.852 42.4587C312.784 42.3562 313.665 42.4692 314.214 43.2572C314.273 43.4075 314.513 43.473 314.626 43.5486C315.429 43.7806 315.76 44.2476 315.655 44.9466C315.661 45.1013 315.75 45.2915 315.869 45.5921C317.412 43.8058 318.029 42.0087 319.52 40.3675C319.951 40.3896 320.391 40.58 320.989 40.6733C322.264 39.7964 323.611 40.1261 324.935 40.7113C325.288 40.8523 325.622 40.9948 325.695 40.9891C326.737 40.9483 327.212 41.4038 327.656 41.8759C328.3 42.5435 328.541 43.2855 328.446 44.153C328.497 47.1091 328.548 49.9948 328.684 52.9865C328.917 54.1097 329.128 55.1501 329.105 56.2797C329.086 57.4231 329.14 58.4336 329.074 59.6089C328.947 60.1547 329.038 60.8945 329.099 61.4536C329.147 61.9008 329.537 62.1094 330.025 62.3383C330.724 62.7337 331.356 63.219 331.976 63.6629C332.462 64.019 333.194 64.3976 333.587 64.8879C334.192 65.6149 334.203 65.9242 333.348 66.5139C332.371 67.1978 330.486 67.8696 330.056 68.5946C329.645 69.3181 330.38 71.2612 330.627 72.6371C331.148 75.4149 331.949 78.4099 332.814 80.9629C333.009 81.5394 333.239 81.9722 333.526 82.4145C333.942 83.058 334.295 83.8052 335.534 83.946C335.72 84.0158 335.938 84.1394 336.124 84.2092C336.107 84.6898 335.667 84.7672 335.391 84.7046C334.316 84.4237 333.307 84.4478 332.22 84.9996C331.442 85.3998 330.568 85.1735 329.582 85.0829C328.767 85.0069 328.153 84.8584 327.221 84.6931C325.975 84.3271 325.113 83.9448 324.391 83.1283C323.855 82.5226 323.09 81.7519 322.827 81.1949C321.704 78.9162 321.093 76.4135 320.562 74.003C320.196 72.3969 319.849 70.7895 319.531 68.9541C319.177 69.0105 318.835 68.9108 318.622 68.9419C316.125 69.6061 313.584 70.2455 311.469 70.8228C310.715 71.038 310.139 71.6336 309.735 72.3143C308.193 74.9181 306.685 77.5052 305.274 80.1127C304.678 81.1751 303.789 82.3172 302.844 83.5203C302.47 83.099 302.425 83.0039 302.372 82.8107C302.156 82.828 302.015 82.8534 302.015 82.8534C301.613 83.2095 301.429 83.5485 301.21 84.0311C300.464 84.9504 299.57 85.2613 298.118 85.2219C297.499 85.1867 296.448 85.1294 296.193 84.9384C295.751 84.6071 296.255 83.7493 296.846 83.4767C297.436 83.2041 296.498 82.5458 297.209 82.306C297.836 82.1009 297.065 81.4434 297.398 81.1068C297.914 80.6287 298.075 80.207 298.059 79.7431C298.362 79.2961 298.562 78.815 298.804 78.4151C298.832 78.0463 299.102 77.5456 299.264 77.1239C299.446 76.6442 299.652 76.2472 299.846 75.8088C300.05 75.3414 300.216 74.9336 300.342 74.2469C299.058 74.6171 298.03 74.9809 296.988 75.2895L296.944 75.2648ZM301.302 75.5941C301.358 75.1245 302.072 74.828 301.852 74.0279C301.426 74.6962 301.184 75.096 301.302 75.5941ZM307.668 73.6067C307.812 73.1865 308.233 72.7018 308.306 71.7516C307.223 72.9937 306.757 73.9895 306.737 75.1328C307.09 74.6677 307.472 74.1721 307.668 73.6067ZM315.571 66.7745C315.217 66.8309 314.869 67.042 314.515 67.0984C315.192 67.1431 315.928 66.9294 316.477 66.8433C316.69 66.8122 316.598 66.6082 316.698 66.5015C317.564 66.6298 318.251 66.5046 319.068 66.1153C318.246 66.0398 317.456 66.1685 316.698 66.5015C316.416 66.5522 316.08 66.6071 315.557 66.7898L315.571 66.7745ZM319.67 52.2529C318.382 54.5686 316.117 61.2758 315.035 63.2649C314.867 63.3912 315.14 63.5104 315.211 63.7021C316.405 63.4095 318.288 62.7943 319.745 62.3822C319.254 58.9677 320.539 54.5518 319.684 52.2377L319.67 52.2529ZM315.146 59.281C316.109 58.0765 316.825 56.7085 317.39 55.4653C316.238 56.6566 315.46 57.9309 315.146 59.281ZM322.54 68.1363C321.99 68.7581 322.317 69.2113 322.442 69.6666C322.536 70.9559 322.987 72.4001 323.137 73.826C323.416 76.327 324.491 78.9055 325.29 81.351C325.44 81.8324 325.775 82.3132 326.023 82.7446C323.913 78.0776 323.527 73.0901 322.537 68.1225L322.54 68.1363ZM315.746 48.7877C315.631 49.1775 315.455 49.6144 315.437 49.8837C316.064 49.6787 316.19 49.3303 315.746 48.7877ZM317.692 54.68C318.38 54.0895 318.484 53.6583 318.51 53.0783C318.026 53.4693 317.575 53.9141 317.692 54.68ZM326.816 67.2881C326.905 67.4784 326.824 67.654 326.869 67.7491C327.33 71.3915 327.87 74.9149 329.011 78.4749C329.431 79.8087 329.9 81.2515 330.747 82.5232C331.025 82.797 331.198 83.0229 331.5 83.1821C331.711 82.9397 331.652 82.8598 331.422 82.6245C330.759 81.9584 330.48 80.6696 330.158 79.6945C329.749 78.4725 329.274 77.1429 328.918 75.7758C328.646 74.7121 328.32 73.4553 328.097 72.303C327.884 71.1218 327.818 69.7315 327.52 68.3738C327.386 68.0884 327.318 67.5018 327.143 67.3326C327.069 67.2679 326.957 67.2628 326.816 67.2881ZM321.833 61.9762C321.807 61.8796 321.929 61.8557 321.885 61.7606C321.832 58.7341 321.825 55.5348 321.79 52.5068C321.73 52.3565 321.701 52.3166 321.402 52.1008C320.942 53.6598 321.108 60.2719 321.851 61.9747L321.833 61.9762ZM319.63 43.3331C319.654 43.2184 319.546 43.0296 319.47 42.6833C317.943 44.5952 317.482 45.816 317.596 46.9064C318.287 45.5827 319.034 44.3955 319.615 43.3483L319.63 43.3331ZM326.08 59.8757C326.081 60.5523 326.049 60.9777 326.018 61.403C326.697 60.912 326.558 60.472 326.08 59.8757ZM326.158 54.0195C326.23 51.1099 326.461 48.1736 326.388 45.2755C326.382 45.1209 326.171 44.9545 326.004 44.6154C325.85 45.0647 325.792 45.3935 325.797 45.5481C325.65 47.8435 325.718 50.0511 325.687 52.3655C325.822 53.13 325.752 53.6149 325.78 54.1906C325.613 55.7404 325.74 57.3513 326.116 58.8579C326.179 58.6837 326.255 58.3535 326.21 58.2583C326.195 57.2587 326.213 56.3128 326.276 55.462C326.05 54.9726 325.973 54.6263 325.78 54.1906C325.921 54.1652 326.112 54.1218 326.14 54.0209L326.158 54.0195Z" fill="black"/>
</svg>
