<svg width="94" height="76" viewBox="0 0 94 76" fill="none" xmlns="http://www.w3.org/2000/svg">
<g clip-path="url(#clip0_122_826)">
<path d="M15.6062 71.4928H73.5072C74.2897 71.4928 75.0723 71.5003 75.8548 71.4928C75.8898 71.4928 75.9229 71.4928 75.9579 71.4928C76.9687 71.4928 77.9372 70.5884 77.8912 69.5267C77.8451 68.4649 77.0424 67.5605 75.9579 67.5605H18.0569C17.2744 67.5605 16.4919 67.553 15.7094 67.5605C15.6744 67.5605 15.6412 67.5605 15.6062 67.5605C14.5954 67.5605 13.6269 68.4649 13.673 69.5267C13.719 70.5884 14.5218 71.4928 15.6062 71.4928Z" fill="black"/>
<path d="M17.2779 48.4009C17.2779 48.4009 -4.64192 30.4678 0.896483 13.7256C4.12047 3.98473 11.0177 1.21153 16.7494 1.1928C22.6432 1.17221 28.2644 3.90234 31.7223 8.75591C34.3165 12.398 36.1357 17.6747 34.2613 24.8558C33.4972 27.7826 32.1936 30.5333 30.5052 33.0257C23.5086 43.3601 17.2779 48.4009 17.2779 48.4009Z" fill="#7E0E18"/>
<path d="M76.2468 47.21C76.2468 47.21 54.327 29.2769 59.8673 12.5328C63.0894 2.79379 69.9866 0.0187188 75.7183 -6.35918e-06C81.6121 -0.0206041 87.2334 2.70953 90.6912 7.5631C93.2855 11.2052 95.1046 16.4819 93.2302 23.663C92.4661 26.5898 91.1625 29.3405 89.4741 31.8328C82.4775 42.1673 76.2468 47.2081 76.2468 47.2081V47.21Z" fill="#7E0E18"/>
<path d="M17.7294 75.9981C21.6352 75.9981 24.8015 72.778 24.8015 68.8058C24.8015 64.8335 21.6352 61.6134 17.7294 61.6134C13.8235 61.6134 10.6572 64.8335 10.6572 68.8058C10.6572 72.778 13.8235 75.9981 17.7294 75.9981Z" fill="black"/>
<path d="M77.4344 75.9981C81.3403 75.9981 84.5066 72.778 84.5066 68.8058C84.5066 64.8335 81.3403 61.6134 77.4344 61.6134C73.5286 61.6134 70.3623 64.8335 70.3623 68.8058C70.3623 72.778 73.5286 75.9981 77.4344 75.9981Z" fill="black"/>
<path d="M13.1738 19.5847V15.8397H14.5547V11.0085H13.6341V7.26351L18.2372 6.28979V15.8397H19.6181V19.5847H13.1738Z" fill="white"/>
<path d="M9.0166 27.9344C9.0166 28.3576 8.9632 28.7545 8.85457 29.1272C8.74594 29.4998 8.57286 29.8668 8.3335 30.2263L8.18068 30.4548L8.34639 30.5634L12.0914 24.9421H15.2933L12.1522 29.6608L15.2933 34.3796H12.0914L11.2426 33.1063C11.0751 32.8497 10.9867 32.5707 10.9775 32.2674C10.9683 31.964 11.0567 31.67 11.2426 31.3873L11.3881 31.1645L11.2297 31.0428L9.0166 34.3796H6.36523V24.9421H9.0166V27.9344Z" fill="white"/>
<path d="M23.8843 29.7207C23.8972 29.9678 23.8935 30.2337 23.8714 30.5165C23.8493 30.7992 23.8144 31.0857 23.7683 31.3722C23.7223 31.6606 23.6634 31.9415 23.5934 32.2149C23.5234 32.4883 23.4406 32.741 23.3485 32.9695L22.798 34.3776H20.1466L18.7952 30.9191L18.6221 34.3776H15.9634L16.4274 24.9401H19.2905L20.7616 28.6608C20.85 28.8855 20.9181 29.129 20.9641 29.393C21.0102 29.6551 21.0341 29.9229 21.0341 30.1925C21.0341 30.4622 21.0102 30.7281 20.9641 30.9921C20.9181 31.2543 20.85 31.4996 20.7616 31.7243L20.7358 31.7917L20.9218 31.8722L23.6523 24.942H26.5154L26.9794 34.3795H24.3207L24.0758 29.4997L23.8696 29.5128L23.8825 29.7225L23.8843 29.7207Z" fill="white"/>
<path d="M68.0425 21.0827V17.3377H69.4234V12.5066H68.5028V8.76155L73.1058 7.78784V17.3377H74.4868V21.0827H68.0425Z" fill="white"/>
<path d="M85.847 16.0644C85.847 17.025 85.7567 17.8321 85.5745 18.4837C85.394 19.1353 85.0976 19.6634 84.6852 20.066C84.2746 20.4686 83.7351 20.7569 83.0704 20.9311C82.4039 21.1052 81.5901 21.1932 80.6271 21.1932C79.6641 21.1932 78.8503 21.1052 78.1875 20.9311C77.5246 20.7569 76.987 20.4667 76.5764 20.066C76.1658 19.6634 75.8675 19.1335 75.6834 18.4781C75.4993 17.8227 75.4072 17.0175 75.4072 16.0625V12.8792C75.4072 11.9299 75.4956 11.1378 75.6742 10.5011C75.8528 9.86448 76.1456 9.35516 76.5525 8.97129C76.9612 8.58742 77.497 8.31216 78.1635 8.14738C78.8301 7.9826 79.6494 7.90021 80.6271 7.90021C81.6048 7.90021 82.4241 7.98073 83.0907 8.14364C83.7572 8.30655 84.293 8.57993 84.7017 8.96754C85.1105 9.35516 85.4032 9.86635 85.58 10.503C85.7586 11.1397 85.847 11.9317 85.847 12.8811V16.0644ZM82.1645 13.9765C82.1645 13.471 82.1443 13.0553 82.1038 12.7313C82.0633 12.4074 81.9896 12.1508 81.8773 11.9636C81.765 11.7763 81.6122 11.6452 81.4133 11.5703C81.2145 11.4954 80.9512 11.458 80.6271 11.458C80.303 11.458 80.0471 11.4936 79.8446 11.5647C79.642 11.6359 79.4855 11.767 79.3751 11.9542C79.2646 12.1415 79.1891 12.3999 79.1504 12.7257C79.1099 13.0534 79.0897 13.471 79.0897 13.9747V15.0233C79.0897 15.542 79.1099 15.9689 79.1504 16.306C79.1909 16.643 79.2664 16.9108 79.3806 17.1055C79.4947 17.3021 79.6512 17.4388 79.8501 17.5175C80.049 17.5961 80.3086 17.6336 80.6289 17.6336C80.9493 17.6336 81.1979 17.5942 81.3967 17.5175C81.5956 17.4388 81.7521 17.3003 81.8662 17.0999C81.9804 16.8995 82.0577 16.6318 82.1001 16.2947C82.1424 15.9577 82.1645 15.5326 82.1645 15.0214V13.9728V13.9765Z" fill="white"/>
<path d="M68.8564 28.6833C68.8564 29.1065 68.803 29.5035 68.6944 29.8761C68.5858 30.2488 68.4127 30.6158 68.1733 30.9753L68.0205 31.2037L68.1862 31.3123L71.9313 25.691H75.1332L71.992 30.4098L75.1332 35.1285H71.9313L71.0825 33.8552C70.9149 33.5987 70.8265 33.3197 70.8173 33.0163C70.8081 32.713 70.8965 32.419 71.0825 32.1363L71.2279 31.9134L71.0696 31.7917L68.8564 35.1285H66.2051V25.691H68.8564V28.6833Z" fill="white"/>
<path d="M83.7242 30.4696C83.7371 30.7168 83.7334 30.9827 83.7113 31.2655C83.6892 31.5482 83.6542 31.8347 83.6082 32.1212C83.5621 32.4096 83.5032 32.6904 83.4333 32.9638C83.3633 33.2372 83.2804 33.49 83.1884 33.7185L82.6378 35.1266H79.9865L78.635 31.668L78.462 35.1266H75.8032L76.2672 25.6891H79.1303L80.6015 29.4098C80.6898 29.6345 80.758 29.8779 80.804 30.1419C80.85 30.4041 80.8739 30.6719 80.8739 30.9415C80.8739 31.2112 80.85 31.477 80.804 31.7411C80.758 32.0032 80.6898 32.2485 80.6015 32.4732L80.5757 32.5406L80.7616 32.6212L83.4922 25.691H86.3553L86.8193 35.1285H84.1605L83.9157 30.2487L83.7094 30.2618L83.7223 30.4715L83.7242 30.4696Z" fill="white"/>
</g>
<defs>
<clipPath id="clip0_122_826">
<rect width="94" height="76" fill="white"/>
</clipPath>
</defs>
</svg>
