<svg width="164" height="62" viewBox="0 0 164 62" fill="none" xmlns="http://www.w3.org/2000/svg">
<path d="M33.0736 31.7308C32.965 31.7805 32.8704 31.9374 32.8741 31.9602C32.5142 33.5854 32.0505 35.235 31.7869 36.8063C31.6624 37.546 31.7031 38.465 31.7537 39.3173C31.7749 39.6532 31.9861 39.9935 32.3482 40.2391C32.554 40.4537 32.4507 40.6292 32.1876 40.751C31.4741 41.045 30.7431 41.0258 29.9574 40.514C29.6877 40.5582 29.4978 40.5537 29.2317 40.6206C28.86 40.7922 28.5516 40.9041 28.125 40.7663C27.5099 40.5597 27.1141 40.3405 26.9001 39.9453C26.7338 39.6308 26.6431 39.2608 26.6379 38.9519C26.4387 37.7317 26.5491 36.3515 26.8016 35.2614C27.173 33.6724 27.7428 31.9021 28.2069 30.2365C28.2016 30.1107 28.1958 30.001 28.2514 29.7448C28.0414 29.8899 27.9712 29.8878 27.8626 29.9376C27.2157 30.9275 25.9668 31.6829 25.3 32.6392C24.9065 33.0406 24.4595 33.0683 23.907 32.8342C23.6841 32.824 23.6046 32.6896 23.5344 32.6875C22.135 32.6217 22.1213 31.7818 21.9291 31.1568C21.7481 30.5841 21.624 29.8741 21.4361 29.2398C21.2289 30.3396 21.5606 31.3672 21.9465 32.553C20.8338 32.2387 21.123 31.5274 20.5341 31.0817C20.0575 31.6761 19.8436 32.348 19.4706 32.9341C19.0761 33.5507 18.7866 34.278 18.3411 34.9583C17.968 35.5444 17.6558 36.1832 17.193 36.7176C17.8597 34.511 19.393 32.5362 19.7159 30.1818C19.3921 30.7844 19.0559 31.3829 18.7621 31.9363C17.6455 34.299 16.3346 36.6665 15.0609 39.0303C14.9011 39.5101 14.6301 40.152 14.3781 40.3261C14.0592 40.5369 13.4169 40.2512 12.9154 40.1367C12.8425 39.8966 12.7901 39.6581 12.7453 39.449C12.7154 39.315 12.7531 39.1121 12.7597 39.0065C13.5002 37.5415 14.1936 36.1468 14.8317 34.642C15.0262 34.2708 15.0735 33.834 15.0536 33.0836C14.786 33.3979 14.6303 33.5181 14.631 33.6692C13.9312 34.803 13.3993 36.004 12.677 37.2165C12.4271 37.6607 12.1261 38.1686 11.8175 38.647C11.5948 38.9872 11.0236 39.2049 10.3685 39.2975C10.3773 39.0956 10.2732 38.9529 10.3916 38.8364C12.6443 33.4439 15.4836 28.2431 18.3605 23.0225C19.0376 21.617 20.0425 20.3324 20.754 19.0516C21.0205 18.6022 21.3718 18.2459 21.6021 17.9352C21.7814 17.6883 22.1093 17.6259 22.4819 17.7726C22.7573 17.8382 22.6942 18.0649 22.6239 18.2461C22.6192 18.2714 22.6923 18.3283 22.694 18.4313C23.1352 18.2938 23.6741 18.2215 23.9467 18.049C24.7489 17.6717 25.2719 18.106 25.8954 18.31C26.1696 18.4237 26.1094 18.7053 26.1176 18.8859C25.9399 19.6022 25.7633 20.2704 25.5396 21.0091C24.8648 23.5686 24.7172 26.2028 25.0107 28.8828C25.0892 29.0654 25.0909 29.1684 25.2087 29.4344C25.3167 29.2335 25.4872 29.1883 25.6294 29.1122C26.922 27.8972 27.9035 26.5562 28.8925 25.2446C29.9796 23.799 31.0049 22.3487 31.8699 20.8608C32.2945 20.0118 32.9521 19.2734 33.47 18.4988C33.6666 18.3978 33.7191 18.2699 33.8838 18.1151C34.323 17.7075 34.6907 17.7124 35.3318 18.0463C35.4747 18.1212 35.5478 18.1781 35.7805 18.1215C36.5373 17.9176 37.1158 18.279 37.7598 18.6677C37.6014 19.0834 37.472 19.498 37.2735 19.8624C36.2909 21.9683 35.3229 23.9821 34.6092 26.0759C34.3457 26.7473 34.1915 27.5201 33.9675 28.2747C33.4389 29.3313 33.0561 30.5177 32.9578 31.735C32.999 31.7381 33.028 31.737 33.0692 31.7401L33.0736 31.7308ZM29.009 37.5602C28.9268 38.2548 28.6941 39.0281 29.4225 39.8763C29.3053 39.0447 29.1168 38.2593 29.009 37.5602ZM34.2343 27.9925C34.525 27.2171 34.8999 26.5508 35.1905 25.7754C35.2843 25.6506 35.4462 25.4409 35.6062 25.3114C35.1769 27.6193 34.4107 29.8409 33.7563 32.0517C33.111 34.2277 32.6042 36.488 32.0642 38.7587C32.0548 38.6262 32.0046 38.4746 32.043 38.4229C32.1601 37.2874 32.1694 36.1695 32.4258 35.0862C32.6909 33.9843 32.9322 32.842 33.0736 31.7308C33.0323 31.7277 33.0034 31.7287 32.9621 31.7257C33.2799 31.0294 33.5079 30.2814 33.7406 29.5081C33.8599 29.1763 33.922 28.6313 33.9718 28.2654C34.0804 28.2157 34.1366 28.1106 34.2387 27.9832L34.2343 27.9925Z" fill="white"/>
<path d="M38.7713 30.6094C38.9085 30.4183 39.6999 30.5173 39.7691 29.9978C39.3342 29.9916 38.9388 29.9341 38.5826 29.9284C38.5996 29.6462 38.847 29.4939 39.1128 29.3916C39.3534 29.2968 39.6475 29.2099 39.9875 29.1174C40.1807 29.0603 40.3569 28.834 40.5202 28.7066C41.3368 27.3406 42.1047 26.0444 42.8349 24.6643C42.4714 24.4549 42.1095 24.3004 41.6968 23.9866C41.5978 23.9155 41.6044 23.742 41.7164 23.466C42.6116 23.4709 43.3635 23.3438 44.1501 23.0005C43.8813 22.7156 43.6757 22.7684 43.3317 22.767C42.7939 22.9259 42.1772 22.9972 41.6235 22.8677C41.4749 22.761 41.2974 22.6551 41.1183 22.5812C41.4905 22.1465 41.8719 22.1447 42.2371 22.0448C42.7329 21.8983 43.2083 21.8371 43.4889 21.5008C43.5702 21.2629 43.9745 21.2148 44.1647 21.1348C46.7085 20.7082 49.1827 20.1753 51.6284 19.9915C53.4001 19.8642 55.1961 19.6585 56.9005 19.5511C58.1769 19.4671 59.6108 19.3842 60.8536 19.6745C61.9939 19.9397 62.8489 20.4634 63.3201 21.4014C63.3413 21.6645 63.5001 21.9107 63.7308 22.2148C63.1235 22.4417 63.063 23.1328 62.4377 23.4839C62.2108 23.5509 62.1381 23.8734 62.137 24.0797C61.9877 24.7179 61.6537 25.1333 60.8686 25.4445C60.0717 25.2838 59.7259 24.776 59.4983 24.1304C59.4782 24.0254 59.4451 23.9322 59.3715 23.8193C59.1699 23.5145 58.9139 23.2178 58.4521 23.1641C57.1256 23.0728 55.647 22.9551 54.2949 23.0614C52.7388 23.1884 51.2293 23.2937 49.7828 23.5625C49.3365 23.6231 48.7673 23.7437 48.2691 23.8512C48.0345 23.9047 47.8038 23.9649 47.7256 24.2256C47.1793 25.1157 46.5545 26.0924 45.8829 27.0037C45.8877 27.0815 46.0055 27.1338 46.0072 27.1888C46.612 26.923 46.6725 26.2318 47.0706 25.7736C47.4557 25.3272 47.694 24.8291 48.154 24.3763C47.8814 25.2648 47.351 26.0789 47.0066 26.9965C47.2512 26.9955 47.5333 26.9914 47.6341 26.9616C49.6652 26.5993 51.8211 26.3189 53.7967 26.0839C54.23 26.0351 54.7979 26.0337 55.3347 26.0811C56.1275 26.1479 56.7132 26.5769 56.976 27.2676C56.9892 27.3429 57.0224 27.5232 57.2168 27.6242C57.618 27.9176 57.664 28.3634 57.729 28.7561C57.1784 28.6494 56.6943 28.5389 56.3121 28.5568C55.8887 28.571 55.5081 28.6438 54.9939 28.7402C55.2003 29.1228 55.2743 29.4099 55.4315 29.6882C54.5229 29.7982 53.7441 29.8778 52.9737 29.9548C50.4048 30.476 47.9349 30.8254 45.2748 31.2547C44.31 33.417 43.5225 35.5982 43.057 37.811C43.309 38.1009 43.5595 37.9714 43.8522 37.9167C45.7978 37.6113 47.7929 37.22 49.6614 36.969C51.6468 36.6994 53.6883 36.5637 55.4651 36.324C56.4494 36.1917 57.2992 36.4634 57.7042 37.128C57.7649 37.2527 57.7765 37.3601 57.9724 37.429C58.5277 37.6135 58.5927 38.0062 58.7226 38.3401C58.1287 38.365 57.4974 38.3931 57.0861 38.4116C56.6046 38.4271 56.2034 38.4981 56.0688 38.8151C55.9009 38.9518 55.6495 39.0102 55.4584 39.0191C52.124 39.7823 48.7796 40.493 45.3205 40.8098C44.5263 40.8622 43.8553 40.9416 43.0658 40.9847C43.0884 41.2156 43.2148 41.3526 43.3093 41.5544C42.8125 41.9942 42.1332 41.7117 41.6352 41.5419C41.1494 41.3765 40.7948 41.0614 40.2501 40.8263C39.6518 40.9476 39.1383 40.6636 38.6973 40.3344C38.2004 39.9584 37.9478 39.4073 37.849 38.9375C37.6042 37.7582 37.8275 36.6784 38.1156 35.5398C38.4129 34.3826 38.6924 33.1594 39.0456 32.0492C39.1313 31.7149 39.2492 31.4029 39.2676 31.0885C39.0044 30.9524 38.5394 30.8759 38.7338 30.6125L38.7713 30.6094ZM39.5746 38.3644C39.5604 38.1309 39.5017 37.871 39.5936 37.5825C39.8416 35.8696 40.0982 34.2413 40.873 32.6104C40.9338 32.4578 41.0548 32.1686 40.744 31.9831C40.4009 33.1459 40.0348 34.2679 39.6931 35.3986C39.2846 36.7233 39.1749 38.0388 39.3815 38.8729C39.4772 38.5911 39.4655 38.4837 39.5708 38.3576L39.5746 38.3644ZM42.2229 40.3782C42.0934 40.2184 42.0886 40.1406 41.8647 40.1434C41.7859 40.1429 41.6798 40.198 41.6829 40.2209C41.6907 40.3215 41.7101 40.4425 41.7828 40.4844C41.8555 40.5263 41.9788 40.6404 42.2183 40.7518C42.2019 40.5666 42.194 40.4659 42.2267 40.385L42.2229 40.3782ZM43.3858 32.3196C43.1289 33.045 42.9208 33.7006 42.6998 34.3679C42.3199 35.5177 42.0961 36.7007 41.8218 37.8986C41.7135 38.0019 41.584 38.2065 41.9656 38.2918C41.9946 38.2911 42.0153 38.2929 42.0443 38.2923C42.058 38.2645 42.0672 38.2459 42.077 38.2113C42.7139 36.0588 43.2537 33.8557 44.0627 31.7474C44.0526 31.6949 44.051 31.64 44.0314 31.4319C43.669 31.7449 43.4755 32.0793 43.3942 32.3171L43.3858 32.3196ZM44.4575 40.4627C44.929 40.3947 45.425 40.3353 45.8143 40.0698C44.7993 40.1479 43.8683 40.2011 42.7317 40.22C42.8612 40.3798 42.8363 40.5614 42.9377 40.7928C43.4878 40.6382 44.0028 40.5257 44.4575 40.4627ZM54.3873 21.4895C53.2833 21.4275 52.1956 21.4636 51.0867 21.6011C50.9828 21.608 51.006 21.7358 51.006 21.7358C50.0052 21.6829 49.3419 21.7759 48.3526 22.1077C49.3519 22.1927 50.1932 22.0155 50.9685 21.739C52.1366 21.7583 53.2555 21.6733 54.3827 21.4988L54.3873 21.4895ZM56.0807 27.1756C55.1541 27.1325 54.282 27.1683 53.434 27.4029C54.2192 27.4562 55.4382 27.3575 56.0807 27.1756ZM55.2228 37.457C55.8136 37.4092 56.3569 37.3121 57.0416 37.2049C56.2433 37.0764 55.6494 37.1013 55.2228 37.457ZM59.3481 20.9668C60.1018 21.3461 60.849 21.1412 61.5439 21.1736C60.8532 20.9578 60.2193 20.8599 59.3481 20.9668Z" fill="white"/>
<path d="M80.415 30.7398C80.3269 30.807 80.2654 30.9691 80.273 30.9986C80.3046 32.6655 80.2528 34.3744 80.3642 35.9767C80.4169 36.7312 80.6681 37.6383 80.9207 38.4814C81.0202 38.816 81.3016 39.1257 81.7055 39.3097C81.9527 39.495 81.8988 39.6866 81.6767 39.8432C81.0656 40.2402 80.3587 40.3254 79.4817 39.9232C79.2325 40.0009 79.0506 40.0258 78.8173 40.1303C78.4948 40.35 78.2355 40.5102 77.7962 40.4326C77.1558 40.3142 76.7266 40.1539 76.434 39.7921C76.2017 39.499 76.0326 39.1464 75.949 38.8386C75.4734 37.6517 75.2539 36.2659 75.2469 35.1396C75.2352 33.5062 75.3683 31.6687 75.4287 29.9412C75.3905 29.8101 75.3599 29.7084 75.3619 29.4455C75.1928 29.6254 75.1267 29.6301 75.0346 29.6905C74.6471 30.7649 73.6238 31.6957 73.1998 32.7417C72.9173 33.1954 72.4988 33.286 71.9086 33.1362C71.6938 33.1554 71.5935 33.0357 71.5191 33.043C70.1599 33.1725 69.9523 32.3391 69.6238 31.7501C69.319 31.2014 69.0298 30.5127 68.7056 29.9144C68.762 31.0412 69.329 32.0168 69.9711 33.136C68.8329 32.9741 68.9448 32.2319 68.2771 31.8678C67.9569 32.5239 67.9078 33.2226 67.6869 33.8636C67.453 34.5325 67.3446 35.2974 67.0843 36.0381C66.8594 36.6724 66.7118 37.3542 66.397 37.953C66.5282 35.6631 67.5308 33.4831 67.2934 31.0856C67.122 31.7271 66.9422 32.3712 66.7841 32.9688C66.2687 35.4737 65.5627 38.0222 64.8859 40.5536C64.8373 41.0535 64.7351 41.7291 64.5325 41.9353C64.2793 42.189 63.5952 41.9969 63.0851 41.9492C62.9625 41.7251 62.8565 41.4959 62.7624 41.2869C62.7036 41.1542 62.6918 40.9512 62.6695 40.8469C63.0436 39.284 63.3747 37.7981 63.634 36.2073C63.7339 35.8107 63.6781 35.3671 63.485 34.6246C63.2996 34.9764 63.1851 35.1154 63.2186 35.2719C62.8151 36.5023 62.5837 37.7743 62.1744 39.0781C62.0438 39.5558 61.8746 40.1013 61.6894 40.6199C61.5531 40.9882 61.0598 41.2849 60.4536 41.4739C60.4129 41.272 60.2798 41.1466 60.3654 41.0086C61.2633 35.3249 62.7609 29.7404 64.3042 24.1337C64.6231 22.6436 65.2866 21.221 65.6729 19.845C65.8284 19.3594 66.081 18.9549 66.2209 18.6093C66.3344 18.3356 66.6337 18.2264 67.0272 18.3263C67.3069 18.3504 67.3014 18.5905 67.2724 18.7744C67.2883 18.8012 67.3533 18.8445 67.3756 18.9488C67.7717 18.7539 68.27 18.5986 68.4849 18.3965C69.1682 17.9055 69.7742 18.265 70.4145 18.3833C70.7055 18.4595 70.7194 18.7492 70.7648 18.9258C70.7601 19.6664 70.7442 20.3547 70.7059 21.1216C70.6572 23.7673 71.128 26.4099 72.0364 29.0275C72.1562 29.1968 72.1785 29.3011 72.3542 29.5483C72.4045 29.334 72.567 29.2595 72.6843 29.1753C73.64 27.7808 74.2674 26.3137 74.9151 24.8642C75.6279 23.2753 76.2706 21.6843 76.7487 20.081C76.9633 19.1797 77.4236 18.3449 77.7356 17.5086C77.8953 17.3794 77.9231 17.2435 78.0384 17.0725C78.3708 16.6034 78.7224 16.5494 79.4133 16.803C79.5645 16.8592 79.65 16.9041 79.8663 16.8208C80.5495 16.5125 81.1862 16.7909 81.9009 17.0848C81.8454 17.5233 81.8149 17.954 81.711 18.3439C81.2514 20.5772 80.7979 22.7212 80.591 24.8995C80.4964 25.6045 80.5317 26.3961 80.4808 27.1749C80.2199 28.2973 80.1254 29.5346 80.3157 30.7548C80.3572 30.7419 80.3778 30.7434 80.4233 30.7372L80.415 30.7398ZM77.8726 37.1187C77.9553 37.8241 77.9163 38.623 78.8184 39.367C78.5073 38.558 78.1495 37.8033 77.8726 37.1187ZM80.6571 26.8577C80.7583 26.0474 80.9604 25.3248 81.0616 24.5145C81.1266 24.375 81.2268 24.1451 81.3539 23.9943C81.4769 26.348 81.2544 28.6663 81.1394 30.967C81.0296 33.2264 81.0627 35.5445 81.0748 37.8771C81.0366 37.746 80.9493 37.5984 80.9753 37.5426C80.8203 36.3988 80.574 35.2835 80.5666 34.1733C80.564 33.0377 80.5332 31.8711 80.4067 30.7423C80.3652 30.7553 80.3446 30.7537 80.2991 30.76C80.4439 30.0235 80.4948 29.2447 80.5339 28.4458C80.5709 28.0925 80.5051 27.5488 80.4642 27.1801C80.5523 27.1129 80.5877 27.0065 80.6488 26.8603L80.6571 26.8577Z" fill="white"/>
<path d="M88.4243 27.7274C88.8607 27.1263 89.5306 26.6286 90.1644 26.2449C90.5685 26.0006 91.0226 26.0022 91.4803 25.9814C91.947 25.9598 92.5275 25.8832 93.0335 25.7989C93.3387 25.1806 93.7266 24.3776 94.0138 23.7979C94.3262 23.1715 94.779 22.4878 95.3796 22.0039C95.4422 21.9244 95.4995 21.8232 95.5924 21.7186C95.7844 21.0446 96.4443 21.0343 97.0285 20.9353C97.2895 20.8887 97.5198 20.9408 97.8568 20.9461C98.936 20.8302 100.035 21.022 101.116 21.5177C101.659 21.7026 102.27 21.8296 102.878 21.9052C103.869 22.1367 104.683 22.6205 105.265 23.2662C106.113 24.2261 106.579 25.148 106.786 26.1236C107.214 28.0958 107.038 30.0436 106.271 31.914C104.936 35.4594 102.18 38.7548 98.2115 40.859C96.0835 41.9726 94.6889 42.3245 92.7065 41.8912C91.7355 41.7022 90.7248 41.3473 89.5783 41.1452C89.1707 41.0729 88.7244 40.9526 88.2796 40.8763C86.1682 40.3593 84.8483 39.171 84.478 37.5915C84.1404 36.1858 84.0731 34.6589 84.477 33.2426C85.0783 31.1371 86.0192 29.1987 87.5603 27.4546C88.0997 26.8291 88.6986 26.3381 89.4018 25.9036C89.5016 25.8279 89.6754 25.8337 89.9051 25.6942C89.2501 26.3674 88.7163 26.9408 88.1029 27.4848C88.0031 27.5605 88.0073 27.7665 87.9406 27.9423C87.623 28.2571 87.4094 28.5769 87.2999 28.9017C87.8079 28.4855 87.8135 28.4334 87.9406 27.9423C88.1428 27.9529 88.2834 27.8586 88.4155 27.7283L88.4243 27.7274ZM87.1109 31.7794C88.0297 29.6736 89.4089 27.7088 91.5892 26.1702C91.1461 26.1012 90.9429 26.275 90.639 26.3699C90.005 26.7905 89.3657 27.2264 88.9386 27.7529C86.933 30.0565 85.8575 32.5677 85.4473 35.3556C85.3486 36.1535 85.4574 36.9468 85.715 37.7924C85.7879 38.0583 85.9 38.2984 86.3065 38.5552C85.5903 36.0645 86.2046 33.8619 87.1109 31.7794ZM91.597 27.8648C91.2342 28.319 90.8108 28.8231 90.407 29.3327C90.2699 29.4045 90.3416 29.5895 90.2823 29.7203C90.0357 29.714 89.9792 29.9699 89.8468 30.174C89.1795 31.1358 88.6154 32.3386 88.2771 33.4612C87.9098 34.6898 87.781 36.0803 87.9649 37.3751C88.0279 37.8262 88.1684 38.3732 88.5365 38.8104C88.5651 38.7783 88.5794 38.7622 88.6097 38.7372C88.6121 38.6338 88.6056 38.5312 88.5316 38.4497C88.145 37.5203 88.066 36.4737 88.1792 35.6228C88.4279 33.7493 89.0648 31.9426 90.123 30.266C90.2232 30.1165 90.2173 29.9033 90.284 29.7275C90.9935 29.1303 91.382 28.5189 91.8 27.7279C92.1052 27.714 92.2725 27.6172 92.2621 27.2718C92.0589 27.4456 91.789 27.493 91.9095 27.8061C91.8084 27.8008 91.6719 27.7989 91.5987 27.8721L91.597 27.8648ZM93.6997 27.4392C93.1941 28.9608 92.6742 30.4985 92.3599 32.0612C92.0967 33.3832 91.9361 34.7545 92.43 36.1308C92.4365 36.2334 92.4345 36.2631 92.3278 36.3099C91.9317 36.3987 91.6737 36.2312 91.5988 35.995C91.2811 35.1255 90.9883 34.2463 91.1374 33.3183C91.3047 32.3149 91.4835 31.1704 91.6762 30.0835C91.7327 29.8276 91.7236 29.5631 91.7902 29.3873C91.4827 29.5046 91.3535 29.7599 91.2242 30.0153C90.8693 30.653 90.4662 31.3174 90.2119 32.0341C89.5567 33.6508 89.1831 35.3444 89.393 37.0495C89.6642 39.1986 90.5477 40.0813 92.984 39.0421C97.9094 36.7301 100.777 32.9157 101.782 28.6347C101.963 27.6152 102.008 26.7044 101.983 25.7337C101.96 24.7702 101.735 23.9068 101.255 23.1189C101.139 22.9381 100.963 22.8072 100.843 22.6489C100.354 22.8053 99.9213 23.1186 99.6143 23.4275C98.7793 24.2577 98.1797 25.1616 97.6719 26.1453C96.7786 27.8286 95.9204 29.5823 95.3992 31.3413C95.3141 31.6294 95.1481 31.8071 95.0916 32.063C95.0382 31.1982 95.3979 30.3537 95.6399 29.6234C95.9016 28.8617 96.2148 28.0879 96.5241 27.3734C96.8352 26.6661 97.2778 25.9022 97.5994 25.2012C97.4274 25.2026 97.2689 25.2986 97.2386 25.3235C95.9685 27.4402 95.0951 29.6597 94.6038 32.0719C94.51 32.9284 94.2304 33.7286 94.4944 34.6768C94.6076 34.7325 94.5042 34.8307 94.5156 34.9918C94.2801 35.2202 94.3936 35.5413 94.4509 35.7423C94.508 35.9802 94.4749 36.1823 94.5927 36.3703C94.0741 36.4779 93.5826 36.497 93.1183 36.4275C92.638 35.4479 92.5815 34.495 92.5218 33.4907C92.5055 33.2343 92.5287 32.9151 92.6257 32.7144C92.7789 31.388 93.2484 30.2825 93.6084 29.0989C93.8194 28.5041 94.0276 27.7844 94.2621 27.1358C93.7398 26.9637 93.7541 27.2498 93.698 27.432L93.6997 27.4392ZM96.0709 22.3888C95.3175 23.5208 94.745 24.6507 94.2647 25.7867C94.2017 25.94 94.279 26.0728 94.3461 26.1255C94.8164 26.0814 94.7956 25.6927 94.9463 25.4132C95.511 24.0998 96.1714 22.8069 97.1701 21.6002C96.6796 21.7494 96.3759 22.1095 96.0621 22.3896L96.0709 22.3888ZM100.282 35.7263C100.421 35.6248 100.444 35.571 100.649 35.4413C101.796 34.2501 102.514 32.9298 103.133 31.427C103.73 29.9852 103.998 28.4195 103.824 26.7479C103.735 25.8864 103.573 25.0244 103.193 24.2714C102.98 23.8785 102.775 23.5145 102.199 23.0451C102.349 23.5175 102.438 23.7746 102.5 24.0341C103.238 25.3655 103.417 26.8302 103.262 28.1863C103.002 30.5031 102.202 32.7673 100.738 34.7916C100.55 35.1041 100.324 35.4127 100.103 35.6989C100.175 35.6994 100.284 35.6966 100.282 35.7263ZM104.143 33.4035C103.678 34.0368 103.34 34.555 102.979 35.208C102.91 35.2587 102.993 35.3394 103.013 35.5734C103.31 35 103.569 34.6809 103.877 34.2614C104.026 33.9747 104.168 33.6592 104.352 33.3691C104.763 32.9252 104.888 32.427 105.04 31.9262C105.028 31.8758 105.027 31.7948 104.919 31.7976C105.015 31.7444 105.196 31.7421 105.184 31.6917C106.004 29.6687 106.246 27.7296 105.754 25.5644C105.618 25.3044 105.516 24.9897 105.268 24.6001C105.295 24.863 105.209 24.9964 105.336 25.1466C105.892 26.7087 105.847 28.3346 105.405 29.9313C105.268 30.5338 105.257 31.2794 105.018 31.7957C104.84 32.1883 104.445 32.6602 104.311 33.0855C104.249 33.1651 104.328 33.2682 104.344 33.37C104.273 33.3766 104.134 33.3675 104.132 33.3972L104.143 33.4035Z" fill="white"/>
<path d="M119.409 34.9958C120.499 35.8238 121.64 36.6395 122.771 37.3751C123.57 37.8982 124.429 38.3344 125.345 38.817C125.948 39.0557 126.627 39.2726 127.252 39.4503C127.983 39.6549 128.573 39.2747 129.199 39.2678C129.377 39.2511 129.484 39.2411 129.67 39.2236C129.115 39.6743 127.69 41.1588 127.106 41.5309C126.236 42.1071 125.222 42.1652 124.142 41.9048C123.274 41.6982 122.554 41.3892 121.758 41.1021C121.369 40.9983 121.086 40.8403 120.668 40.8056C120.446 40.7895 120.215 40.5454 120.035 40.3999C119.888 40.2808 119.761 40.1303 119.555 40.0314C118.575 39.5106 117.552 38.883 116.743 38.2428C115.935 37.6025 115.095 36.9061 114.279 36.3108C114.198 36.2372 114.042 36.1927 113.884 36.0672C113.798 36.2008 113.641 36.341 113.682 36.5512C113.088 38.8438 112.458 41.1027 111.767 43.4116C111.73 43.6735 111.756 43.8556 111.575 44.1236C111.524 44.2538 111.351 44.366 111.057 44.4304C110.791 44.6473 110.638 44.3885 110.216 44.2952C110.228 44.3458 110.128 44.4585 110.058 44.5093C109.965 44.614 109.682 44.7587 109.599 44.6779C109.455 44.684 109.232 44.476 109.229 44.4247C109.269 43.8746 108.824 43.3848 108.539 42.9169C108.36 42.6237 108.388 42.2888 108.337 41.9245C108.305 41.7135 108.288 41.5305 108.154 41.3511C107.965 42.1144 107.912 42.8797 108.567 43.6008C107.867 43.9027 107.559 43.9093 107.149 43.527C106.773 43.171 106.568 42.6957 106.541 42.2036C106.504 41.4836 106.564 40.6733 106.693 39.923C106.834 39.1125 107.131 38.2653 107.352 37.4473C107.339 37.3156 107.389 37.1854 107.508 36.9971C107.116 36.7681 106.686 36.491 106.346 36.2866C105.997 36.0831 106.123 35.8498 106.522 35.7312C106.963 35.6013 107.383 35.5324 107.938 35.3844C107.458 35.2375 107.155 35.3766 106.945 35.4111C106.399 35.4844 106.058 35.4278 105.768 35.0932C106.317 34.9532 106.981 34.7655 107.522 34.6335C108.08 34.5 108.523 34.1853 108.636 33.7097C109.424 31.7681 110.17 29.801 111.172 27.9206C111.354 27.5418 111.654 27.0856 111.795 26.6885C111.845 26.5583 111.933 26.4688 111.995 26.2342C111.436 26.3678 111.188 26.5091 110.986 26.7274C110.551 27.1889 110.38 27.1975 109.726 26.934C109.551 26.8841 109.436 26.7841 109.388 26.7369C108.614 26.3148 108.6 26.1832 109.227 25.6889C109.984 25.0939 110.907 24.7342 111.775 24.2985C112.392 23.9897 113.287 23.8173 113.629 23.5784C113.995 23.3227 114.243 22.8417 114.517 22.5799C114.829 22.2922 115.184 22.067 115.677 22.0356C116.169 22.0042 116.703 21.8434 117.205 21.7004C118.825 21.3271 120.617 20.9156 122.46 20.9052C123.386 20.8996 124.459 20.9024 125.344 20.9893C126.718 21.1114 128.093 21.5362 129.208 22.3175C129.311 22.4408 129.518 22.473 129.578 22.5708C130.735 23.1119 131.352 24.693 130.82 25.6582C130.737 25.8801 130.693 26.0761 130.555 26.2219C129.726 27.274 128.672 28.2957 127.391 29.0579C126.854 29.4331 126.339 29.7472 125.718 30.1154C123.184 31.5636 121.801 32.2025 118.897 33.4713C118.659 33.538 118.299 33.6677 118.115 33.8104C118.444 34.4219 118.795 34.5587 119.409 34.9958ZM108.532 39.3299C108.49 39.5701 108.38 39.8314 108.355 40.1437C108.355 40.1437 108.426 40.1371 108.572 40.1382C108.609 39.8763 108.678 39.5598 108.711 39.3204C108.664 39.3249 108.604 39.3256 108.53 39.3226L108.532 39.3299ZM117.523 27.4877C116.876 28.7665 116.285 30.0177 115.601 31.2925C115.554 31.4003 115.361 31.5438 115.599 31.6618C116.376 31.3011 117.222 30.9634 117.947 30.578C119.888 29.6135 121.805 28.6219 123.366 27.324C124.014 26.8425 124.552 26.3196 125.179 25.6776C125.517 25.3802 125.67 24.9967 125.794 24.5274C124.206 24.0118 121.264 24.1399 118.658 24.7976C118.301 25.6947 117.935 26.5928 117.523 27.4877ZM115.52 28.3472L115.556 28.3439C115.63 28.1598 115.771 27.9915 115.842 27.8299C115.833 27.7962 115.789 27.7364 115.708 27.6505C115.589 27.9496 115.483 28.1145 115.444 28.2953C115.444 28.2953 115.456 28.3458 115.52 28.3472ZM116.752 25.9802C116.624 26.2063 116.267 26.4612 116.324 26.7733C116.524 26.5478 116.809 26.2924 116.74 25.9297C117.26 25.4454 117.33 25.2838 117.417 24.6999C117.661 24.581 117.802 24.4127 117.723 24.0437C117.538 24.2972 117.264 24.4411 117.42 24.7512C116.894 25.022 116.921 25.6617 116.743 25.9811L116.752 25.9802ZM118.018 22.2813C120.626 21.7858 123.236 21.5633 125.884 21.5735C123.751 21.0943 119.226 21.6734 118.018 22.2813Z" fill="white"/>
<path d="M135.792 21.9129C136.039 21.8821 136.212 21.9091 136.485 21.9555C136.802 21.7002 136.875 21.1923 137.667 21.24C137.759 21.3329 137.758 21.4055 137.809 21.5096C137.841 21.5718 137.994 21.5863 137.994 21.5863C138.605 21.5787 138.87 21.6985 139.001 22.1071C139.055 21.964 139.25 21.8583 139.331 21.7925C139.438 21.6152 139.555 21.408 140.045 21.4773C140.715 21.5658 141.255 21.8119 141.196 22.1223C141.143 22.4178 141.126 22.7171 141.058 22.9124C140.531 24.8794 140.019 26.8739 139.536 28.6915C138.888 31.1493 138.615 33.7454 138.38 36.0983C138.222 37.6597 138.326 39.1816 138.201 40.6964C138.199 41.3572 138.198 41.9454 138.294 42.5025C138.383 43.0312 138.496 43.6593 139.246 44.1249C138.533 44.4471 137.803 44.4733 137.205 44.3925C136.878 44.3439 136.71 44.3382 136.342 44.4097C135.396 44.6017 134.637 44.4275 134.189 43.904C133.769 43.4214 133.729 42.7718 133.654 42.1546C133.456 39.9012 133.733 37.6895 133.98 35.4661C134.138 34.0136 134.388 32.5087 134.563 31.0182C134.23 30.7959 133.277 30.8797 133.537 30.3467C133.148 30.5217 133.076 30.6594 132.759 30.8784C132.706 30.6512 132.543 30.5578 132.58 30.4527C132.619 29.948 132.664 29.4718 132.816 29.0362C133.55 26.8316 134.049 24.5623 134.646 22.4072C134.775 22.2859 134.805 22.1524 134.961 21.8108C135.152 22.0249 135.256 22.1674 135.308 22.2422C135.419 22.4132 135.409 22.5956 135.54 22.8154C135.235 23.0115 135.205 23.254 135.463 23.4544C135.366 23.2313 135.397 22.9888 135.411 22.8277C135.803 22.5942 135.494 22.21 135.799 21.905L135.792 21.9129ZM135.765 40.4356C135.775 38.547 135.865 36.6218 136.23 34.634C136.709 30.7913 137.301 26.9813 138.676 23.2925C138.725 23.1281 138.699 22.9419 138.735 22.8367C138.456 22.878 138.386 22.9935 138.331 23.1295C137.542 25.0634 136.948 27.0441 136.594 29.0381C135.901 32.6834 135.452 36.3563 135.339 40.0407C135.311 41.038 135.404 42.1036 135.563 43.0031C135.625 43.3384 135.761 43.7683 136.498 44.1044C135.669 42.8551 135.754 41.6199 135.765 40.4356Z" fill="white"/>
<path d="M142.748 39.5611C141.842 39.8443 140.799 39.8543 139.978 39.3959C139.528 39.2107 139.523 39.1892 139.785 38.5922C139.382 38.5641 138.77 37.8145 138.342 37.6859C139.121 37.4 140.261 37.0433 141.433 36.6691C143.057 36.1496 144.885 35.6549 145.898 35.2956C146.297 35.1553 146.482 34.9105 146.706 34.6033C147.275 33.3318 147.922 32.1191 148.475 30.8931C148.767 30.1173 148.971 29.2397 149.157 28.4004C149.471 27.1529 149.83 25.9818 150.07 24.6899C150.135 24.1335 150.14 23.5901 150.23 22.9506C150.249 22.7287 150.255 22.5667 150.286 22.3951C150.741 22.3376 151.169 22.3928 151.429 22.8013C151.457 22.8794 151.573 22.9125 151.627 22.9514C152.016 23.069 152.173 23.311 152.116 23.6759C152.118 23.7565 152.159 23.8553 152.215 24.0115C152.981 23.0736 153.297 22.1341 154.037 21.2722C154.246 21.2818 154.459 21.3793 154.749 21.4253C155.377 20.9628 156.03 21.1289 156.669 21.4283C156.84 21.5003 157.002 21.5732 157.037 21.5699C157.544 21.5442 157.772 21.7796 157.984 22.0238C158.292 22.3691 158.402 22.7549 158.349 23.2076C158.348 24.7484 158.348 26.2525 158.388 27.8116C158.493 28.3962 158.586 28.9376 158.565 29.5266C158.546 30.1227 158.564 30.6493 158.522 31.2623C158.455 31.5474 158.493 31.9327 158.518 32.2239C158.537 32.4568 158.725 32.5639 158.961 32.6812C159.298 32.8843 159.601 33.1346 159.899 33.3634C160.132 33.5469 160.485 33.7412 160.672 33.9951C160.961 34.3715 160.964 34.5327 160.542 34.8438C160.061 35.2045 159.138 35.5628 158.922 35.9425C158.716 36.3215 159.057 37.3313 159.165 38.0475C159.395 39.4934 159.759 41.0514 160.158 42.3786C160.248 42.6783 160.356 42.9029 160.492 43.1323C160.689 43.466 160.854 43.854 161.456 43.9221C161.546 43.9577 161.651 44.0212 161.741 44.0568C161.729 44.3074 161.514 44.3496 161.38 44.3182C160.86 44.1763 160.368 44.1932 159.834 44.4855C159.452 44.6975 159.028 44.5832 158.55 44.5402C158.153 44.504 157.856 44.4293 157.404 44.347C156.801 44.1616 156.384 43.9659 156.04 43.5434C155.784 43.2299 155.418 42.8314 155.295 42.5421C154.768 41.359 154.492 40.0569 154.255 38.8025C154.09 37.9668 153.935 37.1303 153.796 36.1748C153.623 36.2058 153.458 36.1553 153.354 36.1724C152.133 36.5293 150.89 36.8735 149.856 37.1835C149.487 37.2988 149.202 37.6118 148.999 37.9684C148.226 39.3324 147.47 40.6875 146.761 42.0529C146.461 42.6093 146.019 43.2085 145.549 43.8397C145.37 43.6216 145.349 43.5722 145.325 43.4718C145.22 43.4817 145.151 43.4955 145.151 43.4955C144.952 43.6829 144.86 43.8604 144.749 44.1129C144.378 44.5954 143.94 44.7613 143.234 44.7469C142.933 44.7312 142.422 44.7058 142.299 44.6073C142.087 44.4365 142.34 43.9872 142.629 43.8425C142.919 43.6979 142.468 43.3587 142.816 43.2307C143.123 43.1211 142.754 42.7816 142.919 42.6047C143.174 42.3533 143.256 42.1328 143.252 41.891C143.403 41.6567 143.505 41.405 143.626 41.1955C143.643 41.0031 143.779 40.7409 143.861 40.5204C143.954 40.2695 144.057 40.0617 144.156 39.8323C144.259 39.5878 144.343 39.3745 144.411 39.016C143.782 39.2144 143.279 39.4085 142.769 39.5738L142.748 39.5611ZM144.866 39.7142C144.898 39.4691 145.247 39.3115 145.148 38.8953C144.934 39.2456 144.813 39.455 144.866 39.7142ZM147.982 38.651C148.056 38.4313 148.265 38.1768 148.308 37.6811C147.771 38.3333 147.535 38.8544 147.516 39.4505C147.692 39.2065 147.882 38.9466 147.982 38.651ZM151.888 35.0555C151.715 35.0864 151.543 35.1979 151.37 35.2288C151.7 35.2492 152.06 35.1347 152.328 35.0875C152.432 35.0704 152.388 34.9644 152.438 34.9084C152.859 34.9716 153.194 34.9034 153.595 34.6969C153.196 34.6611 152.81 34.7315 152.438 34.9084C152.301 34.936 152.137 34.9661 151.881 35.0635L151.888 35.0555ZM154.007 27.4676C153.361 28.6803 152.2 32.1866 151.657 33.2282C151.574 33.2947 151.706 33.3557 151.738 33.4553C152.322 33.2977 153.244 32.969 153.957 32.7479C153.747 30.9699 154.411 28.6624 154.014 27.4596L154.007 27.4676ZM151.745 31.1508C152.224 30.5188 152.584 29.8026 152.87 29.152C152.299 29.778 151.909 30.4456 151.745 31.1508ZM155.268 35.7357C154.995 36.0622 155.15 36.2971 155.207 36.5338C155.242 37.2056 155.449 37.9566 155.51 38.6993C155.623 40.0019 156.125 41.3416 156.493 42.613C156.562 42.8633 156.72 43.1126 156.837 43.3364C155.851 40.9124 155.706 38.314 155.266 35.7285L155.268 35.7357ZM152.128 25.6779C152.068 25.8816 151.979 26.1101 151.967 26.2506C152.275 26.141 152.339 25.9588 152.128 25.6779ZM153.024 28.7414C153.364 28.4306 153.418 28.2054 153.436 27.9029C153.197 28.1088 152.973 28.3425 153.024 28.7414ZM157.356 35.2753C157.398 35.3741 157.357 35.466 157.378 35.5154C157.571 37.4122 157.804 39.2467 158.328 41.0978C158.522 41.7913 158.737 42.5415 159.139 43.2008C159.272 43.3424 159.354 43.4594 159.5 43.5411C159.604 43.4138 159.576 43.3724 159.466 43.2507C159.149 42.9063 159.025 42.2357 158.876 41.7287C158.688 41.0933 158.468 40.4023 158.307 39.6911C158.183 39.1377 158.035 38.4839 157.937 37.8842C157.843 37.2693 157.823 36.5448 157.69 35.8383C157.627 35.6901 157.599 35.3845 157.515 35.297C157.48 35.2637 157.425 35.2614 157.356 35.2753ZM154.977 32.5273C154.965 32.4771 155.025 32.4641 155.004 32.4147C155.004 30.8371 155.028 29.1693 155.037 27.5909C155.01 27.5128 154.996 27.4921 154.852 27.3809C154.614 28.1957 154.638 31.6419 154.985 32.5265L154.977 32.5273ZM154.065 22.8177C154.077 22.7578 154.027 22.6599 153.993 22.4797C153.233 23.4829 152.998 24.1213 153.044 24.6893C153.392 23.9962 153.765 23.3741 154.057 22.8257L154.065 22.8177ZM157.062 31.4142C157.056 31.7669 157.037 31.9888 157.019 32.2107C157.353 31.9518 157.289 31.723 157.062 31.4142ZM157.15 28.3609C157.21 26.8438 157.348 25.312 157.337 23.8015C157.336 23.7209 157.234 23.6351 157.156 23.459C157.077 23.6939 157.046 23.8656 157.048 23.9461C156.956 25.1434 156.97 26.294 156.935 27.5006C156.994 27.8986 156.956 28.1517 156.965 28.4517C156.87 29.2603 156.918 30.0996 157.088 30.8834C157.12 30.7924 157.16 30.6199 157.139 30.5705C157.14 30.0494 157.157 29.5562 157.195 29.1124C157.089 28.8582 157.055 28.678 156.965 28.4517C157.034 28.4379 157.127 28.4144 157.142 28.3617L157.15 28.3609Z" fill="white"/>
</svg>
