<svg width="126" height="84" viewBox="0 0 126 84" fill="none" xmlns="http://www.w3.org/2000/svg">
<path d="M63.7558 17.2646C63.7558 17.2646 61.2007 10.4969 68.8585 7.16673C80.8363 14.2644 95.446 29.2194 109.242 32.4575C115.227 34.2453 121.619 41.6806 113.885 46.3152C113.885 46.3152 110.946 47.6427 107.616 48.4483C103.549 49.4305 98.3618 50.6736 95.7759 50.8884C94.2336 51.0189 111.199 52.8604 104.293 53.2748C101.162 53.4666 87.535 52.9295 83.3531 52.6609C61.661 51.2721 54.3792 47.5045 40.6289 41.013C46.7828 42.4556 62.9271 47.1132 71.0837 47.3357C79.2403 47.5583 100.48 48.8857 106.081 45.0031C96.597 45.0031 84.059 45.6707 54.6094 36.3478C49.9518 34.5062 49.5144 34.207 44.1969 31.8359C36.9918 28.6209 33.4699 26.5875 29.8098 23.2036C32.9711 24.5311 39.6851 27.5313 44.8415 26.2576C44.6727 25.3138 12.6142 17.8554 8.9541 9.14641C11.6167 10.9803 31.5823 23.4569 65.3672 26.0657C44.3351 19.8044 12.8828 12.4305 9.39147 0C12.5528 3.88262 30.6922 18.2468 52.4379 17.6406L48.2791 14.8092C48.2791 14.8092 48.4479 8.37142 54.1567 8.09519L63.7635 17.2569L63.7558 17.2646Z" fill="black"/>
<path d="M21.1549 59.6894C21.0475 59.7047 20.9017 59.8275 20.894 59.8505C19.8658 61.3084 18.7455 62.7586 17.8171 64.1935C17.3797 64.8688 16.9884 65.7665 16.6354 66.6029C16.4973 66.9328 16.505 67.3242 16.6738 67.6695C16.7352 67.938 16.574 68.0761 16.3131 68.1145C15.6226 68.1836 15.0624 67.9457 14.6864 67.2167C14.4562 67.1784 14.3104 67.117 14.0726 67.1016C13.7043 67.1554 13.4127 67.1707 13.1441 66.9098C12.7605 66.5262 12.5533 66.1962 12.5686 65.7512C12.584 65.3982 12.6837 65.0145 12.8219 64.7153C13.2285 63.4799 13.9498 62.1831 14.6481 61.2087C15.6686 59.7891 16.927 58.2545 18.0549 56.7889C18.1087 56.6662 18.1547 56.5587 18.3158 56.3285C18.0856 56.4053 18.0319 56.3822 17.9245 56.3976C16.9654 57.1572 15.6456 57.5102 14.6864 58.2315C14.1953 58.5 13.8347 58.3926 13.5124 58.0013C13.3436 57.9245 13.3436 57.7711 13.2899 57.7481C12.231 57.2647 12.607 56.4513 12.7451 55.7914C12.8679 55.1852 13.0981 54.464 13.2439 53.7964C12.5763 54.7939 12.3615 55.8835 12.1159 57.1419C11.3946 56.505 11.9471 55.9065 11.6939 55.3003C11.0494 55.73 10.5736 56.3132 10.0135 56.7659C9.42264 57.2416 8.8625 57.8555 8.20261 58.3773C7.64247 58.83 7.10535 59.3518 6.49917 59.7277C8.0338 57.8018 10.1362 56.3592 11.4714 54.1877C10.9419 54.6711 10.4048 55.1469 9.9214 55.5919C7.96474 57.5332 5.85462 59.4208 3.7752 61.3161C3.4299 61.7304 2.92347 62.2676 2.64724 62.3596C2.30195 62.4671 1.93364 61.999 1.59602 61.7381C1.64973 61.4849 1.71879 61.2394 1.78017 61.0245C1.81854 60.8864 1.94131 60.7022 1.99502 60.6025C3.24575 59.4131 4.42741 58.2775 5.61675 57.0191C5.93903 56.7199 6.17689 56.3132 6.50684 55.5842C6.15387 55.8068 5.97739 55.8758 5.90833 56.0216C4.84177 56.904 3.87495 57.9015 2.75466 58.853C2.35566 59.206 1.8876 59.605 1.42721 59.9733C1.09726 60.2342 0.552468 60.2725 0 60.1651C0.0997511 59.9733 0.0844049 59.8045 0.230195 59.7277C4.46578 55.2082 9.06968 51.0494 13.7119 46.8829C14.8859 45.7319 16.2594 44.7958 17.4027 43.7752C17.8171 43.4223 18.2545 43.1844 18.5767 42.9542C18.8299 42.7701 19.1138 42.8084 19.3364 43.0616C19.5205 43.2074 19.3671 43.4069 19.2289 43.5604C19.2136 43.5834 19.2443 43.6601 19.1982 43.7599C19.6049 43.7599 20.0576 43.852 20.3492 43.7676C21.1472 43.6448 21.3544 44.2203 21.7457 44.6039C21.9069 44.7958 21.7304 45.049 21.6537 45.2255C21.1856 45.8623 20.7406 46.4532 20.2265 47.0977C18.523 49.3613 17.1956 51.8551 16.1904 54.5253C16.1674 54.7248 16.1213 54.8246 16.0906 55.1162C16.2671 54.955 16.4206 54.9627 16.5664 54.932C18.1317 54.1493 19.5128 53.1518 20.8863 52.185C22.398 51.1185 23.8635 50.0289 25.2217 48.8549C25.943 48.1643 26.7947 47.6502 27.5543 47.0594C27.7538 47.021 27.8536 46.9136 28.0531 46.8138C28.5825 46.5529 28.8664 46.668 29.2117 47.1821C29.2885 47.2972 29.3192 47.374 29.5263 47.3893C30.2092 47.42 30.4931 47.9418 30.8154 48.5096C30.5008 48.8625 30.2092 49.2232 29.887 49.5148C28.1528 51.2489 26.4724 52.8986 24.9531 54.7018C24.439 55.2696 23.9633 55.9679 23.4415 56.6278C22.5437 57.4872 21.6997 58.5154 21.0628 59.6587C21.0935 59.674 21.1165 59.6817 21.1472 59.697L21.1549 59.6894ZM15.308 64.0861C14.9243 64.7306 14.3872 65.4059 14.5637 66.4418C14.8552 65.6054 15.0701 64.792 15.308 64.0861ZM23.7791 56.436C24.3623 55.7761 24.9608 55.2466 25.544 54.5867C25.6744 54.4946 25.8969 54.3412 26.0811 54.2645C24.6846 56.3592 23.0655 58.2698 21.5386 60.2035C20.0346 62.1064 18.5997 64.1321 17.1342 66.1579C17.1879 66.0274 17.2186 65.8663 17.2723 65.8279C17.8861 64.769 18.4079 63.6948 19.1062 62.7279C19.8198 61.7458 20.5334 60.7176 21.1549 59.6894C21.1242 59.674 21.1012 59.6664 21.0705 59.651C21.6383 59.0755 22.1601 58.4233 22.6972 57.7481C22.9428 57.4642 23.242 56.9577 23.4492 56.6201C23.5566 56.6048 23.6487 56.5204 23.7868 56.4283L23.7791 56.436Z" fill="black"/>
<path d="M25.3214 58.2315C25.5132 58.0857 26.0887 58.408 26.3726 57.9245C26.035 57.7941 25.751 57.6253 25.4748 57.5179C25.6129 57.2493 25.8738 57.1726 26.127 57.1496C26.3572 57.1265 26.6258 57.1265 26.9327 57.1342C27.1092 57.1342 27.3471 56.9654 27.5312 56.8887C28.7743 55.7991 29.9483 54.7632 31.1299 53.6353C30.9381 53.3283 30.7233 53.0751 30.5391 52.6531C30.4931 52.5559 30.5749 52.3896 30.7846 52.1543C31.4829 52.4152 32.1274 52.5073 32.8948 52.3999C32.8104 52.0469 32.6262 52.0392 32.3576 51.9395C31.8666 51.9395 31.3525 51.8321 30.9765 51.5481C30.9074 51.4024 30.8153 51.2489 30.7079 51.1261C31.1913 50.8115 31.4906 50.9189 31.8205 50.9266C32.2732 50.9266 32.6722 51.0034 33.0406 50.7578C33.2094 50.5506 33.547 50.6197 33.7311 50.5967C35.9103 50.9113 38.0818 51.1031 40.0768 51.6249C41.5194 52.0085 43.0157 52.3231 44.3968 52.7068C45.4327 52.9907 46.5914 53.3206 47.4354 53.9575C48.2104 54.5407 48.6478 55.2927 48.6017 56.3362C48.502 56.5971 48.5173 56.881 48.5634 57.2416C47.9879 57.2877 47.6349 57.9399 46.9904 58.101C46.7832 58.101 46.5837 58.3926 46.4916 58.5921C46.0926 59.1676 45.6476 59.4745 44.8956 59.5513C44.3431 59.1676 44.2971 58.5768 44.4045 57.8862C44.4352 57.7788 44.4505 57.679 44.4429 57.5486C44.4199 57.1956 44.3508 56.835 44.0132 56.6508C43.0157 56.1827 41.9107 55.6456 40.8058 55.3617C39.532 55.0394 38.3043 54.7095 37.0536 54.556C36.6776 54.487 36.1789 54.4409 35.7415 54.4026C35.5343 54.3872 35.3272 54.3795 35.1507 54.6097C34.3296 55.3157 33.4089 56.083 32.4804 56.7736C32.4497 56.8503 32.5188 56.9347 32.4958 56.9884C33.0866 56.904 33.4396 56.2518 33.9537 55.9218C34.4524 55.5996 34.8591 55.1852 35.4192 54.8783C34.8131 55.661 34.0381 56.2978 33.3628 57.0882C33.5547 57.1572 33.7772 57.234 33.8693 57.234C35.6187 57.4642 37.4296 57.8094 39.0793 58.1471C39.44 58.2238 39.885 58.3849 40.284 58.5844C40.8748 58.876 41.1434 59.4592 41.0437 60.2035C41.0206 60.2802 40.9669 60.4644 41.0744 60.6178C41.2585 61.0168 41.0974 61.4619 40.9746 61.8609C40.5909 61.6 40.261 61.3544 39.9541 61.2624C39.6165 61.1549 39.2865 61.1166 38.8415 61.0629C38.8338 61.4926 38.7647 61.7918 38.7647 62.1064C38.0051 61.953 37.3605 61.8072 36.7237 61.6614C34.4831 61.4312 32.396 61.0629 30.1248 60.7176C28.4136 62.5361 26.833 64.4237 25.4902 66.4341C25.5592 66.787 25.8124 66.7333 26.0656 66.764C27.7231 67.0249 29.4572 67.2167 31.0302 67.5083C32.7029 67.8152 34.3603 68.268 35.8566 68.5442C36.6853 68.6977 37.2301 69.2041 37.2531 69.9637C37.2454 70.1019 37.2071 70.2093 37.3299 70.332C37.6828 70.6697 37.56 71.0687 37.514 71.4293C37.0383 71.2835 36.5318 71.1301 36.2019 71.0303C35.8182 70.9075 35.4729 70.8615 35.2274 71.1301C35.0356 71.2145 34.8131 71.1991 34.6596 71.1531C31.7131 70.9382 28.7819 70.6697 25.9352 69.9868C25.2907 69.8103 24.7305 69.6952 24.0936 69.511C24.0092 69.7412 24.0476 69.91 24.0323 70.1325C23.4491 70.4165 23.0424 69.9484 22.7278 69.6415C22.4209 69.3422 22.2828 68.9355 21.9605 68.5519C21.4387 68.4982 21.1625 68.0761 20.963 67.6311C20.7405 67.1247 20.7865 66.5185 20.917 66.0351C21.2469 64.8227 21.8991 63.8405 22.6281 62.82C23.3724 61.7841 24.132 60.6792 24.8993 59.7047C25.1142 59.4055 25.3444 59.1369 25.4978 58.8377C25.352 58.6305 25.0221 58.4233 25.2907 58.2238L25.3214 58.2315ZM22.5206 65.9737C22.6127 65.7435 22.6818 65.4749 22.8813 65.2217C23.8328 63.6334 24.7535 62.1294 26.081 60.7713C26.1961 60.6408 26.4186 60.3953 26.2575 60.1267C25.4748 61.1549 24.6922 62.1371 23.9248 63.1346C23.0194 64.3009 22.3518 65.544 22.1447 66.4111C22.3442 66.1655 22.3825 66.0581 22.5206 65.966V65.9737ZM23.7023 68.6823C23.6716 68.4905 23.7023 68.4138 23.5258 68.3524C23.4644 68.3294 23.357 68.3524 23.3493 68.3754C23.311 68.4751 23.2726 68.5979 23.311 68.6593C23.3494 68.7207 23.3954 68.8665 23.5335 69.043C23.6026 68.8588 23.6409 68.759 23.7023 68.69V68.6823ZM28.1758 61.2087C27.654 61.8379 27.2013 62.4133 26.7332 62.9965C25.9275 64.0017 25.2293 65.0836 24.485 66.1655C24.3545 66.2346 24.1627 66.3957 24.4236 66.5875C24.4466 66.5952 24.462 66.6029 24.485 66.6106C24.508 66.5875 24.5233 66.5722 24.5464 66.5415C25.9966 64.6386 27.3931 62.6589 28.9584 60.848C28.9738 60.7943 28.9968 60.7406 29.0735 60.5334C28.6515 60.7329 28.3523 61.0015 28.1834 61.2087H28.1758ZM25.4134 69.4036C25.8124 69.4727 26.2268 69.5571 26.6488 69.4113C25.8201 69.1964 25.0681 68.9816 24.1704 68.6746C24.2011 68.8665 24.1013 69.0353 24.0783 69.2885C24.5771 69.2962 25.0298 69.3345 25.4134 69.4036ZM41.5731 53.8654C40.7367 53.4895 39.8697 53.2132 38.9412 53.0291C38.8568 53.0061 38.8184 53.1365 38.8184 53.1365C38.0588 52.7989 37.4987 52.6991 36.5779 52.7375C37.3222 53.1058 38.0588 53.1749 38.7878 53.1288C39.6932 53.4818 40.6063 53.7197 41.5654 53.8731L41.5731 53.8654ZM40.3838 59.8582C39.6778 59.5513 38.9796 59.3364 38.2123 59.3211C38.8031 59.5973 39.8006 59.8505 40.3838 59.8582ZM35.166 69.5724C35.6494 69.6952 36.1175 69.7566 36.7007 69.8486C36.1328 69.4957 35.6571 69.3499 35.166 69.5724ZM45.6859 54.7785C46.1079 55.3617 46.7832 55.3771 47.3126 55.6073C46.8676 55.2006 46.4149 54.9243 45.6859 54.7785Z" fill="black"/>
<path d="M55.8695 70.6822C55.7697 70.7206 55.6469 70.8587 55.6393 70.8894C54.895 72.5084 54.0663 74.1428 53.414 75.7235C53.1071 76.4678 52.8846 77.4193 52.6928 78.3094C52.616 78.6623 52.6928 79.046 52.923 79.3452C53.0304 79.5985 52.8999 79.7673 52.6544 79.8517C51.9945 80.0512 51.4037 79.9207 50.9049 79.2685C50.6747 79.2685 50.5213 79.2378 50.2911 79.2685C49.9381 79.3836 49.6619 79.4603 49.3549 79.2532C48.9099 78.9462 48.649 78.6623 48.5876 78.225C48.5416 77.872 48.5723 77.4807 48.649 77.1584C48.8255 75.8693 49.2936 74.4651 49.8077 73.3755C50.552 71.7948 51.5034 70.0607 52.3475 68.411C52.3782 68.2729 52.4012 68.1654 52.524 67.9122C52.3091 68.035 52.2554 68.0197 52.1556 68.0503C51.3576 68.9711 50.1299 69.562 49.3166 70.4444C48.8869 70.7973 48.5186 70.759 48.1272 70.4367C47.9508 70.3907 47.9277 70.2449 47.8664 70.2295C46.7461 69.9456 46.9686 69.0785 46.9839 68.411C46.9993 67.7895 47.0914 67.0375 47.1144 66.3622C46.6386 67.4672 46.631 68.5798 46.6156 69.8535C45.8023 69.3548 46.232 68.6719 45.879 68.1194C45.3265 68.6565 44.9659 69.3164 44.4978 69.8689C44.0067 70.4444 43.5694 71.1503 43.0246 71.7872C42.5565 72.332 42.1268 72.9458 41.605 73.4292C42.7637 71.2577 44.5515 69.4545 45.4723 67.0682C45.0426 67.636 44.6053 68.2038 44.2063 68.7333C42.6486 70.9968 40.9221 73.2451 39.2264 75.4856C38.9578 75.9537 38.5665 76.5752 38.3133 76.7133C37.9987 76.8822 37.5536 76.4908 37.1776 76.2913C37.1853 76.0381 37.2083 75.7849 37.2313 75.5547C37.2467 75.4089 37.3311 75.2094 37.3618 75.102C38.3746 73.7055 39.3184 72.3703 40.2546 70.9124C40.5155 70.5595 40.6766 70.1144 40.8684 69.3394C40.5615 69.6233 40.408 69.7231 40.362 69.8842C39.4796 70.9508 38.7123 72.1094 37.7915 73.2451C37.4692 73.6671 37.0856 74.1428 36.7019 74.5879C36.4257 74.9025 35.9039 75.0406 35.3438 75.0406C35.4051 74.8334 35.3591 74.6723 35.4895 74.5649C38.812 69.3471 42.5565 64.4056 46.3471 59.4564C47.2832 58.1136 48.4572 56.9396 49.3933 55.7272C49.7386 55.3052 50.1223 54.9906 50.3908 54.699C50.6057 54.4688 50.8896 54.4535 51.1505 54.6683C51.3576 54.7758 51.2425 55.006 51.1351 55.1748C51.1351 55.2055 51.1658 55.2669 51.1351 55.3743C51.5341 55.3052 51.9945 55.3052 52.2554 55.1748C53.015 54.9062 53.322 55.4357 53.767 55.7426C53.9588 55.9037 53.8361 56.1876 53.79 56.3718C53.4447 57.0854 53.1148 57.7453 52.7311 58.4742C51.4727 61.0141 50.621 63.7073 50.1223 66.508C50.1376 66.7075 50.1069 66.815 50.1299 67.1065C50.268 66.9147 50.4292 66.8917 50.5596 66.8457C51.9485 65.7868 53.1148 64.5591 54.2888 63.3544C55.5779 62.0346 56.8133 60.6918 57.9259 59.2876C58.509 58.4819 59.2533 57.8143 59.8825 57.1007C60.0667 57.024 60.1511 56.9012 60.3199 56.7708C60.7956 56.4178 61.0949 56.4715 61.5169 56.9243C61.609 57.024 61.655 57.0931 61.8622 57.0777C62.5374 56.9856 62.9057 57.446 63.3278 57.9448C63.0822 58.3515 62.8597 58.7581 62.5988 59.1034C61.21 61.1215 59.8672 63.0551 58.7009 65.0962C58.3018 65.7484 57.9642 66.5234 57.5652 67.26C56.844 68.2652 56.1994 69.4315 55.7851 70.6669C55.8234 70.6669 55.8388 70.6746 55.8771 70.6822H55.8695ZM50.9433 76.0765C50.6824 76.7824 50.2834 77.542 50.644 78.5319C50.7745 77.6571 50.8435 76.8208 50.9433 76.0765ZM57.8491 67.0068C58.3018 66.2548 58.7929 65.6179 59.2456 64.866C59.3607 64.7509 59.5449 64.5591 59.7137 64.4516C58.7239 66.7612 57.4808 68.9328 56.3298 71.1196C55.2019 73.2681 54.1583 75.5163 53.0918 77.7722C53.1225 77.6341 53.1225 77.4653 53.1685 77.4193C53.5752 76.2683 53.8975 75.1173 54.4039 74.0431C54.9257 72.9458 55.4398 71.8102 55.8618 70.6822C55.8234 70.6822 55.8081 70.6746 55.7697 70.6669C56.2224 69.9993 56.6214 69.2627 57.0204 68.5031C57.2123 68.1731 57.4118 67.6283 57.5499 67.26C57.6496 67.2216 57.7264 67.1296 57.8415 67.0068H57.8491Z" fill="black"/>
<path d="M63.9099 64.9839C64.401 64.4007 65.0686 63.948 65.6824 63.6104C66.0737 63.3955 66.4574 63.4416 66.8487 63.4646C67.2477 63.4876 67.7542 63.4646 68.1992 63.4262C68.5829 62.8123 69.0739 62.0143 69.4346 61.4389C69.8259 60.8173 70.3477 60.1498 70.9539 59.7047C71.0229 59.628 71.092 59.5282 71.1917 59.4285C71.491 58.7456 72.0511 58.7993 72.5652 58.7533C72.7954 58.7302 72.9796 58.807 73.2635 58.8453C74.1996 58.83 75.0897 59.1369 75.9031 59.7584C76.3251 60.004 76.8162 60.1958 77.3149 60.3339C78.1053 60.6715 78.6961 61.2547 79.0567 61.9837C79.5785 63.0656 79.7857 64.0707 79.7627 65.1066C79.7243 67.2014 79.1795 69.2118 78.1513 71.084C76.3021 74.6444 73.3019 77.8057 69.519 79.6089C67.4933 80.5604 66.2425 80.7906 64.6542 80.146C63.8715 79.8544 63.0889 79.3864 62.1604 79.0641C61.8305 78.949 61.4775 78.7802 61.1169 78.6574C59.4365 77.9131 58.5617 76.5473 58.5694 74.8669C58.5694 73.3706 58.8226 71.7746 59.4518 70.3397C60.3879 68.2066 61.5773 66.2806 63.2347 64.6155C63.8178 64.017 64.424 63.5643 65.1069 63.1807C65.2067 63.1116 65.3525 63.1346 65.575 63.0119C64.8844 63.6487 64.3166 64.1935 63.6874 64.6999C63.5876 64.769 63.5493 64.9839 63.4572 65.1603C63.1247 65.457 62.8791 65.7691 62.7206 66.0965C63.2347 65.7128 63.25 65.6591 63.4572 65.1603C63.626 65.191 63.7641 65.1066 63.9022 64.9839H63.9099ZM61.9763 69.0736C63.181 66.9712 64.7463 65.0606 66.9024 63.6717C66.5418 63.5566 66.3346 63.7178 66.0584 63.7868C65.4369 64.1628 64.8077 64.5542 64.3396 65.0606C62.1758 67.2628 60.7562 69.7719 59.8431 72.634C59.5976 73.455 59.5285 74.2914 59.5746 75.1968C59.5822 75.4807 59.6283 75.7416 59.9199 76.0486C59.8201 73.386 60.7869 71.1531 61.9763 69.0736ZM66.5648 65.4366C66.1658 65.8739 65.7054 66.3573 65.2604 66.8484C65.1299 66.9098 65.153 67.1093 65.0762 67.2398C64.8691 67.2091 64.7693 67.47 64.6158 67.6695C63.8562 68.6056 63.1349 69.8026 62.6208 70.9382C62.0607 72.1813 61.6693 73.6162 61.5619 74.982C61.5236 75.4577 61.5312 76.0409 61.7537 76.532C61.7844 76.5013 61.7998 76.4859 61.8305 76.4629C61.8535 76.3555 61.8688 76.2481 61.8228 76.156C61.6847 75.1508 61.8305 74.0535 62.099 73.1788C62.6899 71.2528 63.5953 69.4343 64.8307 67.7922C64.9458 67.6464 64.9842 67.4239 65.0762 67.2474C65.7975 66.695 66.2502 66.0965 66.7643 65.3138C67.0252 65.3291 67.1863 65.2447 67.2477 64.8841C67.0406 65.0452 66.8027 65.0683 66.8411 65.4059C66.7566 65.3905 66.6415 65.3752 66.5648 65.4442V65.4366ZM68.4294 65.1987C67.6928 66.7333 66.9408 68.2833 66.3576 69.8793C65.8666 71.2298 65.4522 72.6417 65.5903 74.1226C65.575 74.23 65.5673 74.2607 65.4676 74.2991C65.1146 74.3528 64.9304 74.1533 64.9151 73.9001C64.823 72.9639 64.754 72.0201 65.0686 71.0687C65.4138 70.0405 65.7975 68.8665 66.1812 67.7539C66.2809 67.493 66.327 67.2167 66.419 67.0403C66.1351 67.1323 65.974 67.3856 65.8129 67.6388C65.3832 68.268 64.9074 68.9202 64.5468 69.6415C63.6644 71.2605 63.0045 72.987 62.8357 74.7825C62.6285 77.0461 63.1963 78.0512 65.4676 77.2072C70.1021 75.2812 73.3019 71.5904 75.0206 67.2321C75.3813 66.1885 75.6038 65.2447 75.7803 64.2319C75.9568 63.2267 75.9414 62.3059 75.6959 61.4389C75.6345 61.2394 75.5117 61.0859 75.4427 60.9094C74.9976 61.0245 74.5679 61.3084 74.2457 61.6C73.3709 62.3827 72.6803 63.2651 72.0511 64.2396C70.9539 65.9046 69.872 67.6464 69.0739 69.4266C68.9435 69.7182 68.767 69.887 68.6673 70.1479C68.7977 69.2425 69.2734 68.3984 69.6264 67.6618C70.0024 66.8945 70.4244 66.1195 70.8311 65.4059C71.2378 64.6999 71.7672 63.948 72.1816 63.2497C72.0358 63.2344 71.8823 63.3188 71.8516 63.3418C70.3477 65.4212 69.1583 67.6464 68.2529 70.1095C67.9997 70.9919 67.6007 71.7976 67.6314 72.8105C67.7158 72.8795 67.6084 72.9716 67.5853 73.1404C67.3398 73.3553 67.3705 73.7006 67.3782 73.9154C67.3782 74.1686 67.3091 74.3758 67.3705 74.583C66.9101 74.6444 66.4906 74.6162 66.1121 74.4986C65.9049 73.432 66.0507 72.4345 66.2042 71.3833C66.2425 71.1147 66.3269 70.7848 66.4497 70.5853C66.8487 69.2194 67.4703 68.1145 68.015 66.9175C68.3143 66.319 68.6366 65.59 68.9665 64.9378C68.5598 64.7076 68.5138 65.0069 68.4294 65.191V65.1987ZM71.4603 60.1728C70.5932 61.2777 69.8796 62.398 69.2428 63.5336C69.1583 63.6871 69.1967 63.8329 69.2428 63.8943C69.6494 63.8943 69.7108 63.4876 69.895 63.2114C70.6393 61.8992 71.4603 60.6178 72.5499 59.4592C72.1048 59.5666 71.7749 59.9119 71.4526 60.1728H71.4603ZM72.312 74.4679C72.4501 74.3758 72.4808 74.3221 72.6803 74.207C73.8927 73.079 74.7674 71.7746 75.5961 70.2707C76.3941 68.8281 76.9389 67.2244 77.1308 65.4673C77.2305 64.5618 77.2689 63.6487 77.1001 62.8277C77.0003 62.398 76.9006 61.999 76.5092 61.4542C76.5399 61.9606 76.5629 62.2369 76.5629 62.5131C76.9159 63.971 76.7701 65.5133 76.3634 66.9098C75.6729 69.2962 74.5372 71.5751 72.8875 73.5394C72.665 73.8464 72.4118 74.1456 72.1662 74.4218C72.2276 74.4295 72.3197 74.4372 72.312 74.4679ZM76.0488 72.4268C75.5271 73.0407 75.1357 73.5471 74.6984 74.1917C74.6293 74.2377 74.683 74.3298 74.6523 74.5753C75.0206 74.0075 75.3046 73.7006 75.6498 73.2939C75.834 73.01 76.0182 72.6954 76.233 72.4115C76.6704 71.9894 76.8776 71.483 77.1077 70.9766C77.1077 70.9229 77.1231 70.8385 77.031 70.8308C77.1231 70.7848 77.2765 70.8001 77.2765 70.7464C78.3815 68.7207 78.98 66.7257 79.003 64.4237C78.9416 64.1398 78.9186 63.8022 78.7882 63.3725C78.7575 63.6487 78.6577 63.7792 78.7345 63.948C78.8879 65.6284 78.5196 67.3165 77.8213 68.9355C77.5835 69.5494 77.4223 70.3244 77.1154 70.8385C76.8852 71.2298 76.4555 71.6825 76.256 72.1122C76.187 72.189 76.233 72.304 76.2253 72.4115C76.1639 72.4115 76.0488 72.3885 76.0412 72.4191L76.0488 72.4268Z" fill="black"/>
<path d="M90.6046 74.4679C91.3565 75.4348 92.1545 76.3939 92.9602 77.2687C93.528 77.8902 94.1649 78.4273 94.8401 79.0181C95.3005 79.3251 95.83 79.6166 96.3211 79.8622C96.8966 80.1461 97.472 79.8085 98.0015 79.8622C98.155 79.8622 98.247 79.8622 98.4082 79.8622C97.848 80.2765 96.3441 81.6807 95.7763 82.0107C94.9246 82.5248 94.0575 82.4864 93.1981 82.1104C92.5075 81.8112 91.9627 81.4198 91.3489 81.0438C91.0419 80.8981 90.8348 80.7062 90.4895 80.6295C90.3053 80.5911 90.1595 80.3149 90.0368 80.1461C89.937 80.008 89.8603 79.8392 89.7068 79.7164C88.9855 79.0795 88.2489 78.3275 87.6964 77.5833C87.144 76.839 86.5762 76.0333 86.0083 75.335C85.9546 75.2506 85.8319 75.1892 85.7244 75.0434C85.6247 75.1739 85.4635 75.3043 85.4559 75.5268C84.4891 77.8518 83.4992 80.1384 82.448 82.4711C82.3636 82.7396 82.3482 82.9314 82.1411 83.1923C82.072 83.3228 81.9032 83.4225 81.6423 83.4609C81.3738 83.6604 81.297 83.3765 80.9594 83.2384C80.9594 83.2921 80.852 83.3995 80.7829 83.4455C80.6832 83.5453 80.4146 83.6681 80.3609 83.576C80.2381 83.5683 80.0923 83.3304 80.1 83.2767C80.2458 82.7089 79.9696 82.1565 79.8238 81.6424C79.7317 81.3201 79.8238 80.9748 79.8545 80.5911C79.8698 80.3686 79.8928 80.1768 79.8161 79.9773C79.5015 80.7523 79.302 81.5426 79.7087 82.356C79.0565 82.6015 78.7956 82.5785 78.527 82.1411C78.2815 81.7344 78.2047 81.2203 78.2815 80.7062C78.3966 79.9543 78.6114 79.1179 78.8723 78.3506C79.1562 77.5219 79.5782 76.6701 79.9312 75.8414C79.9465 75.7033 80.0156 75.5729 80.1537 75.3887C79.8698 75.1125 79.5629 74.7825 79.3173 74.537C79.0641 74.2915 79.2176 74.0613 79.5782 73.9769C79.9772 73.8848 80.3455 73.8541 80.8443 73.7543C80.4683 73.5548 80.1844 73.6699 80.0003 73.6853C79.5245 73.7083 79.2483 73.6162 79.0718 73.2402C79.5629 73.1482 80.1614 73.0177 80.6448 72.9333C81.1436 72.8489 81.5809 72.565 81.7728 72.0816C82.8316 70.1403 83.8599 68.1683 85.0876 66.3114C85.3178 65.9354 85.663 65.4903 85.8625 65.0913C85.9316 64.9609 86.0237 64.8765 86.1234 64.6386C85.6247 64.723 85.3868 64.8458 85.172 65.053C84.7116 65.4903 84.5658 65.4827 84.067 65.1451C83.9289 65.076 83.8522 64.9609 83.8215 64.9072C83.2537 64.3931 83.269 64.255 83.8982 63.8023C84.6579 63.2575 85.5096 62.9735 86.3306 62.6052C86.9138 62.3443 87.7041 62.2523 88.0417 62.0374C88.4024 61.8072 88.7093 61.3315 88.9932 61.086C89.3155 60.8174 89.6608 60.6179 90.0828 60.6332C90.5048 60.6486 90.9882 60.5335 91.4409 60.4337C92.8835 60.2035 94.4795 59.9503 96.0372 60.1191C96.8198 60.2035 97.7253 60.311 98.4542 60.4874C99.5898 60.7483 100.664 61.3238 101.447 62.2446C101.508 62.3827 101.677 62.4364 101.708 62.5439C102.575 63.2191 102.774 64.9225 102.13 65.874C102.015 66.0965 101.938 66.296 101.792 66.4341C100.879 67.447 99.7817 68.4061 98.5463 69.0737C98.0168 69.4113 97.5181 69.6876 96.9196 70.0098C94.4872 71.2682 93.1904 71.7977 90.4818 72.8336C90.2669 72.8796 89.937 72.9794 89.7528 73.1098C89.9063 73.7774 90.1749 73.9538 90.6046 74.4679ZM80.545 77.9132C80.4606 78.1587 80.3149 78.4196 80.2305 78.7419C80.2305 78.7419 80.2918 78.7419 80.4146 78.7572C80.499 78.4887 80.6218 78.1664 80.6985 77.9209C80.6576 77.9209 80.6064 77.9158 80.545 77.9055V77.9132ZM90.5355 66.4802C89.7298 67.7463 88.9779 68.9893 88.1415 70.2477C88.0801 70.3551 87.8883 70.4856 88.0647 70.6314C88.7937 70.3321 89.5764 70.0636 90.2669 69.7336C92.1008 68.9202 93.9194 68.0762 95.5 66.8792C96.1446 66.4418 96.7047 65.9507 97.3646 65.3446C97.7099 65.0683 97.9171 64.6847 98.1166 64.2089C96.8812 63.5183 94.3721 63.3649 92.0394 63.7946C91.556 64.6923 91.0649 65.5901 90.5355 66.4802ZM88.6709 67.1784H88.7016C88.8014 66.9943 88.9548 66.8332 89.0469 66.672C89.0469 66.6362 89.0213 66.5697 88.9702 66.4725C88.809 66.7718 88.6863 66.9329 88.6172 67.1171C88.6172 67.1171 88.6172 67.1708 88.6709 67.1784ZM90.1902 64.8381C90.0367 65.0607 89.6838 65.2908 89.6684 65.6208C89.8833 65.4059 90.1749 65.1681 90.1902 64.7844C90.7273 64.3317 90.8194 64.1706 91.0112 63.5721C91.2414 63.4723 91.3949 63.3112 91.4026 62.9198C91.1954 63.1654 90.9345 63.2881 91.0036 63.6258C90.5048 63.856 90.3974 64.5235 90.1825 64.8381H90.1902ZM92.0087 61.1166C94.3107 60.8558 96.5589 60.8788 98.7918 61.1473C97.0884 60.4414 93.152 60.6025 92.0087 61.1166Z" fill="black"/>
<path d="M105.574 59.9809C105.797 59.9732 105.943 60.0192 106.173 60.096C106.503 59.8581 106.672 59.3286 107.355 59.4591C107.416 59.5665 107.401 59.6432 107.424 59.7583C107.439 59.8274 107.57 59.8581 107.57 59.8581C108.107 59.9118 108.314 60.0653 108.345 60.5103C108.421 60.3645 108.613 60.2725 108.697 60.2111C108.828 60.0346 108.974 59.8274 109.388 59.9502C109.956 60.1113 110.378 60.4259 110.263 60.7482C110.155 61.0551 110.079 61.3697 109.979 61.5692C109.112 63.5949 108.252 65.6513 107.454 67.5236C106.38 70.0557 105.605 72.772 104.915 75.2351C104.454 76.8695 104.232 78.4885 103.81 80.0769C103.672 80.7751 103.549 81.3967 103.518 81.9952C103.487 82.563 103.457 83.2382 104.017 83.806C103.326 84.0746 102.682 84.0286 102.175 83.8828C101.899 83.7984 101.753 83.7753 101.416 83.8137C100.549 83.9211 99.9194 83.6602 99.6355 83.0617C99.3669 82.5093 99.4667 81.8187 99.528 81.1588C99.8196 78.7571 100.518 76.4475 101.193 74.1225C101.63 72.6032 102.16 71.0379 102.62 69.4802C102.375 69.2117 101.523 69.204 101.861 68.6669C101.485 68.8127 101.393 68.9508 101.07 69.1503C101.07 68.9048 100.948 68.7897 101.001 68.6822C101.139 68.1528 101.278 67.654 101.5 67.209C102.597 64.9531 103.503 62.6051 104.47 60.3875C104.608 60.2724 104.661 60.1343 104.869 59.789C104.991 60.0346 105.053 60.1957 105.083 60.2801C105.145 60.472 105.099 60.6638 105.168 60.9093C104.861 61.0858 104.784 61.339 104.968 61.5769C104.93 61.3313 105.007 61.0781 105.053 60.9093C105.444 60.7021 105.252 60.2648 105.582 59.9732L105.574 59.9809ZM101.73 79.5551C102.129 77.5601 102.605 75.5344 103.334 73.4703C104.546 69.4572 105.851 65.4902 107.815 61.7303C107.892 61.5615 107.907 61.362 107.961 61.2546C107.708 61.27 107.623 61.3851 107.546 61.5232C106.457 63.4875 105.528 65.5209 104.807 67.5926C103.449 71.3755 102.298 75.2121 101.439 79.0947C101.208 80.1459 101.07 81.2816 101.024 82.2484C101.009 82.609 101.04 83.0771 101.615 83.5068C101.147 82.1026 101.477 80.8058 101.73 79.5551Z" fill="black"/>
<path d="M108.514 76.3786C107.685 76.5858 106.795 76.4937 106.189 75.9336C105.844 75.6957 105.844 75.6727 106.189 75.0742C105.851 75.0051 105.483 74.1611 105.146 73.9846C105.867 73.7621 106.91 73.5012 107.985 73.225C109.473 72.8413 111.131 72.5037 112.067 72.2275C112.435 72.12 112.642 71.8822 112.895 71.5829C113.64 70.3092 114.438 69.1045 115.159 67.8768C115.566 67.0941 115.919 66.1964 116.249 65.337C116.77 64.0632 117.315 62.8739 117.783 61.5464C117.952 60.9709 118.067 60.4031 118.274 59.7432C118.336 59.513 118.374 59.3442 118.435 59.1677C118.834 59.1524 119.187 59.2521 119.326 59.7049C119.333 59.7893 119.425 59.8353 119.464 59.8813C119.771 60.0425 119.855 60.311 119.732 60.687C119.717 60.7714 119.732 60.8789 119.748 61.0477C120.592 60.1422 121.052 59.1908 121.858 58.3621C122.034 58.3928 122.195 58.5155 122.433 58.5923C123.062 58.1702 123.584 58.4081 124.068 58.7841C124.198 58.8762 124.321 58.9682 124.351 58.9682C124.789 58.9913 124.935 59.2598 125.065 59.5361C125.257 59.9274 125.272 60.3417 125.134 60.8098C124.819 62.4212 124.513 63.9942 124.229 65.6285C124.198 66.2501 124.167 66.8256 124.029 67.4394C123.891 68.0609 123.799 68.6134 123.638 69.2503C123.523 69.5419 123.477 69.9485 123.438 70.2555C123.408 70.501 123.546 70.6314 123.722 70.7772C123.968 71.0228 124.175 71.3144 124.382 71.5829C124.543 71.7978 124.804 72.0356 124.912 72.3195C125.08 72.7416 125.05 72.9104 124.628 73.1943C124.144 73.5242 123.285 73.8081 123.024 74.1841C122.771 74.5601 122.855 75.6497 122.801 76.4093C122.702 77.944 122.694 79.609 122.763 81.0363C122.778 81.3585 122.824 81.6041 122.894 81.8573C122.993 82.2256 123.055 82.6476 123.553 82.7781C123.622 82.8241 123.699 82.9008 123.768 82.9469C123.707 83.2078 123.515 83.2308 123.408 83.1847C122.993 82.9852 122.571 82.9545 122.057 83.2078C121.689 83.3919 121.351 83.2308 120.952 83.1387C120.622 83.062 120.384 82.9545 120.016 82.8241C119.54 82.5709 119.226 82.3253 119.019 81.8496C118.865 81.4966 118.635 81.0439 118.589 80.7293C118.382 79.4402 118.412 78.0514 118.466 76.7163C118.497 75.8262 118.535 74.9361 118.612 73.9232C118.458 73.9386 118.328 73.8695 118.236 73.8772C117.123 74.1304 115.995 74.3683 115.052 74.5908C114.714 74.6752 114.407 74.9745 114.161 75.3274C113.225 76.6779 112.305 78.0207 111.422 79.3788C111.054 79.9313 110.555 80.5145 110.026 81.1283C109.918 80.8828 109.911 80.8291 109.911 80.7217C109.818 80.7217 109.757 80.7293 109.757 80.7293C109.55 80.9058 109.435 81.0823 109.289 81.3355C108.875 81.8036 108.468 81.934 107.869 81.8496C107.616 81.8036 107.187 81.7268 107.102 81.6117C106.956 81.4122 107.263 80.9672 107.54 80.8444C107.816 80.7217 107.501 80.3226 107.823 80.2229C108.107 80.1385 107.862 79.7472 108.038 79.5784C108.307 79.3405 108.422 79.118 108.468 78.8647C108.644 78.6346 108.783 78.3813 108.928 78.1742C108.982 77.9747 109.151 77.7138 109.266 77.4913C109.396 77.238 109.527 77.0309 109.657 76.8007C109.795 76.5551 109.911 76.3403 110.041 75.972C109.465 76.1178 108.997 76.2712 108.529 76.394L108.514 76.3786ZM110.287 76.747C110.363 76.4937 110.693 76.3633 110.693 75.9183C110.44 76.2635 110.294 76.4707 110.287 76.747ZM113.156 75.9413C113.264 75.7188 113.494 75.4732 113.632 74.9591C113.041 75.5883 112.734 76.1101 112.596 76.7316C112.796 76.4937 113.01 76.2405 113.156 75.9413ZM117.215 72.5651C117.062 72.5804 116.893 72.6802 116.74 72.6955C117.016 72.7492 117.346 72.6648 117.584 72.6418C117.676 72.6341 117.66 72.519 117.714 72.4653C118.059 72.5728 118.359 72.5344 118.742 72.3579C118.41 72.2812 118.067 72.317 117.714 72.4653C117.591 72.4807 117.446 72.496 117.208 72.5728L117.215 72.5651ZM120.569 64.8382C119.771 66.0429 118.067 69.5956 117.392 70.6314C117.307 70.6928 117.407 70.7696 117.415 70.877C117.944 70.7696 118.796 70.5164 119.448 70.3552C119.632 68.4753 120.668 66.1273 120.576 64.8305L120.569 64.8382ZM117.891 68.4676C118.428 67.8538 118.88 67.1402 119.256 66.4879C118.643 67.0864 118.175 67.7463 117.891 68.4676ZM119.955 73.6086C119.655 73.9232 119.74 74.1841 119.74 74.4373C119.632 75.1433 119.655 75.9489 119.556 76.7316C119.387 78.1051 119.54 79.5553 119.594 80.9212C119.602 81.1897 119.686 81.466 119.74 81.7115C119.395 79.0796 119.801 76.348 119.955 73.601V73.6086ZM119.333 62.7818C119.241 62.989 119.118 63.2192 119.08 63.365C119.364 63.2806 119.456 63.0964 119.333 62.7818ZM119.471 66.0736C119.824 65.782 119.916 65.5518 119.993 65.2372C119.748 65.429 119.51 65.6516 119.471 66.0736ZM121.827 73.3324C121.842 73.4398 121.789 73.5319 121.796 73.5856C121.574 75.5883 121.397 77.5296 121.466 79.517C121.489 80.2613 121.52 81.0669 121.727 81.7959C121.812 81.957 121.858 82.0875 121.965 82.1872C122.08 82.0645 122.065 82.0184 121.996 81.8803C121.796 81.489 121.827 80.7754 121.804 80.2306C121.773 79.5477 121.727 78.8034 121.735 78.0437C121.743 77.4529 121.75 76.7546 121.789 76.1178C121.835 75.4655 121.965 74.7059 121.996 73.9539C121.973 73.7928 122.011 73.4705 121.957 73.3708C121.934 73.3324 121.888 73.3247 121.827 73.3324ZM120.361 70.2248C120.361 70.1711 120.415 70.1634 120.407 70.1097C120.73 68.4599 121.09 66.7181 121.42 65.0684C121.413 64.984 121.405 64.961 121.305 64.8305C120.937 65.6592 120.254 69.2656 120.369 70.2248H120.361ZM121.566 59.9811C121.589 59.9197 121.566 59.8123 121.574 59.6205C120.722 60.595 120.392 61.2395 120.315 61.838C120.753 61.1474 121.198 60.5336 121.558 59.9888L121.566 59.9811ZM122.364 69.2656C122.287 69.6339 122.226 69.8641 122.165 70.0943C122.502 69.8565 122.495 69.6109 122.364 69.2656ZM123.062 66.0813C123.423 64.5006 123.853 62.9122 124.152 61.3316C124.167 61.2472 124.098 61.1474 124.068 60.9556C123.952 61.1935 123.891 61.3699 123.876 61.4543C123.553 62.6974 123.331 63.9021 123.055 65.1605C123.024 65.5825 122.94 65.8434 122.886 66.158C122.64 66.9944 122.51 67.8768 122.495 68.7132C122.541 68.6211 122.61 68.4446 122.602 68.3909C122.709 67.8461 122.824 67.332 122.947 66.8716C122.909 66.5954 122.917 66.4035 122.886 66.158C122.947 66.1503 123.032 66.135 123.055 66.0813H123.062Z" fill="black"/>
</svg>
