<svg width="164" height="57" viewBox="0 0 164 57" fill="none" xmlns="http://www.w3.org/2000/svg">
<path d="M33.067 29.1043C32.9596 29.1493 32.8681 29.2932 32.872 29.3142C32.5404 30.8096 32.1057 32.3267 31.869 33.7732C31.7572 34.4541 31.8129 35.3017 31.8773 36.0879C31.9039 36.3977 32.1198 36.7132 32.4844 36.9425C32.6929 37.142 32.593 37.303 32.3329 37.4132C31.6272 37.6784 30.8989 37.6548 30.108 37.1766C29.8403 37.2152 29.651 37.2095 29.3872 37.269C29.0198 37.4242 28.7145 37.5249 28.2874 37.3944C27.6715 37.199 27.2737 36.9937 27.0541 36.6276C26.8833 36.3363 26.7869 35.9945 26.7766 35.7096C26.5583 34.5831 26.6455 33.3115 26.879 32.3086C27.2228 30.8467 27.7611 29.2193 28.196 27.6874C28.1885 27.5714 28.181 27.4702 28.2321 27.2345C28.0254 27.3665 27.9554 27.3641 27.8481 27.4091C27.2202 28.3165 25.9889 29.0028 25.3406 29.879C24.9552 30.2459 24.5106 30.2678 23.9566 30.0476C23.7344 30.0364 23.653 29.9117 23.583 29.9093C22.1884 29.8373 22.1609 29.0629 21.9593 28.4851C21.7696 27.9556 21.6343 27.3001 21.4369 26.7138C21.2486 27.7261 21.5957 28.6761 21.9995 29.7725C20.8863 29.4737 21.1626 28.8203 20.5688 28.4046C20.104 28.9488 19.902 29.5665 19.5401 30.1038C19.1575 30.6691 18.8811 31.3372 18.4487 31.9608C18.0868 32.4981 17.7863 33.0846 17.3342 33.5735C17.9619 31.5446 19.4563 29.7363 19.7393 27.5684C19.4267 28.1213 19.1017 28.6703 18.8183 29.1782C17.7451 31.3474 16.4785 33.5194 15.249 35.6884C15.0977 36.1294 14.8384 36.719 14.5903 36.8775C14.2761 37.0693 13.6319 36.8006 13.1306 36.691C13.054 36.4691 12.9979 36.2487 12.9499 36.0557C12.9179 35.9319 12.9521 35.7451 12.9569 35.6478C13.6703 34.3032 14.3379 33.023 14.9486 31.6408C15.1362 31.3002 15.1761 30.8979 15.144 30.2059C14.8826 30.4935 14.7296 30.6031 14.7327 30.7424C14.0545 31.782 13.5445 32.8849 12.8452 33.9969C12.6036 34.4044 12.3122 34.8702 12.0127 35.3088C11.7965 35.6206 11.2313 35.8167 10.5805 35.8968C10.5859 35.7107 10.4798 35.5783 10.5958 35.4718C12.7506 30.5186 15.4926 25.7468 18.2718 20.9571C18.923 19.6668 19.9026 18.4906 20.59 17.3155C20.8481 16.9034 21.1921 16.5778 21.4163 16.2932C21.5908 16.067 21.9163 16.0122 22.2898 16.1504C22.5651 16.2131 22.506 16.4216 22.439 16.5881C22.4347 16.6114 22.5084 16.6644 22.5119 16.7594C22.949 16.6362 23.4845 16.5739 23.7531 16.4171C24.5457 16.0757 25.0737 16.4804 25.6979 16.6735C25.9729 16.7805 25.9176 17.0396 25.9287 17.2061C25.7635 17.8651 25.5987 18.4797 25.3881 19.1589C24.7581 21.5132 24.6544 23.9405 24.9907 26.4136C25.0718 26.5826 25.0753 26.6776 25.197 26.9237C25.3012 26.7393 25.4702 26.6991 25.6107 26.63C26.8779 25.5204 27.8332 24.292 28.7966 23.0908C29.8555 21.7669 30.8527 20.4381 31.6896 19.0734C32.0985 18.2941 32.7412 17.6186 33.2443 16.9088C33.4383 16.8172 33.4886 16.6997 33.6501 16.5583C34.0807 16.1861 34.447 16.1936 35.0909 16.5066C35.2344 16.5768 35.3082 16.6298 35.539 16.5796C36.2893 16.3977 36.8713 16.7355 37.519 17.0991C37.3681 17.481 37.246 17.8622 37.0544 18.1966C36.1105 20.1301 35.1795 21.9789 34.5033 23.9034C34.2519 24.5203 34.1111 25.2314 33.9003 25.9254C33.3913 26.8952 33.0296 27.9859 32.9517 29.1073C32.9928 29.1105 33.0216 29.1097 33.0628 29.1129L33.067 29.1043ZM29.115 34.4458C29.0446 35.0854 28.8256 35.7965 29.5649 36.5844C29.4345 35.8168 29.2339 35.0911 29.115 34.4458ZM34.1615 25.6673C34.4382 24.9548 34.8006 24.3436 35.0773 23.631C35.1686 23.5168 35.3264 23.3247 35.4836 23.2067C35.094 25.3309 34.3675 27.3729 33.7521 29.4057C33.1452 31.4066 32.6777 33.4864 32.1772 35.5754C32.1658 35.4532 32.1132 35.313 32.1506 35.2656C32.2486 34.2197 32.2395 33.1892 32.477 32.1926C32.723 31.1788 32.9444 30.1276 33.067 29.1043C33.0258 29.1012 32.997 29.1019 32.9559 29.0987C33.2609 28.4594 33.4756 27.7717 33.6947 27.0606C33.808 26.7557 33.861 26.2538 33.9045 25.9168C34.0118 25.8718 34.066 25.7754 34.1656 25.6588L34.1615 25.6673Z" fill="black"/>
<path d="M38.8247 27.9083C38.9582 27.7332 39.7482 27.8309 39.8087 27.352C39.3753 27.3428 38.9805 27.2866 38.6255 27.2785C38.6378 27.0182 38.8817 26.8796 39.1449 26.7874C39.383 26.7018 39.6746 26.624 40.0117 26.5414C40.2033 26.4903 40.3751 26.2829 40.5357 26.1666C41.3268 24.9127 42.0704 23.7228 42.7752 22.4552C42.4096 22.259 42.0465 22.1135 41.6303 21.8206C41.5305 21.7542 41.5341 21.5941 41.6412 21.3403C42.533 21.3521 43.28 21.2409 44.058 20.9305C43.7855 20.6654 43.5816 20.7125 43.2389 20.7084C42.7057 20.8507 42.0925 20.9115 41.5388 20.7875C41.3891 20.6879 41.2104 20.5887 41.0309 20.5191C41.3944 20.1209 41.7744 20.1224 42.1366 20.0331C42.6281 19.902 43.1006 19.8493 43.3746 19.5412C43.4517 19.3224 43.8537 19.2812 44.0418 19.209C46.569 18.8358 49.025 18.3642 51.4585 18.2143C53.2213 18.1112 55.0071 17.9359 56.7033 17.8505C57.9735 17.7834 59.4005 17.7184 60.6434 17.9964C61.7837 18.2503 62.644 18.7405 63.129 19.6099C63.1544 19.8529 63.3166 20.0813 63.5514 20.3638C62.9502 20.5683 62.9013 21.2056 62.2841 21.5245C62.0592 21.5845 61.992 21.8815 61.9943 22.0719C61.8561 22.6595 61.5302 23.0402 60.7531 23.321C59.9567 23.1663 59.6038 22.6949 59.3665 22.0973C59.3447 22.0003 59.3103 21.914 59.2351 21.8092C59.0292 21.5263 58.7693 21.2505 58.3084 21.1972C56.9854 21.1022 55.5105 20.9816 54.1653 21.0687C52.6172 21.1733 51.1152 21.2583 49.6786 21.4947C49.235 21.5469 48.6699 21.6536 48.1753 21.7489C47.9425 21.7963 47.7137 21.85 47.6401 22.09C47.1105 22.9069 46.5041 23.8031 45.8501 24.6386C45.8561 24.7104 45.9743 24.7597 45.9769 24.8104C46.5751 24.57 46.624 23.9327 47.013 23.5131C47.3893 23.1043 47.6185 22.6465 48.0693 22.2325C47.8123 23.0501 47.2974 23.7971 46.9694 24.6411C47.213 24.6422 47.494 24.6406 47.5939 24.614C49.6114 24.296 51.7544 24.0548 53.7186 23.8539C54.1495 23.8123 54.7153 23.8156 55.2507 23.8637C56.0417 23.9318 56.6322 24.3324 56.9054 24.9718C56.9197 25.0415 56.9558 25.2081 57.1511 25.3029C57.5556 25.5769 57.6087 25.9886 57.68 26.3515C57.1297 26.2486 56.6456 26.1428 56.2652 26.1561C55.8436 26.1658 55.4657 26.2299 54.955 26.3148C55.1669 26.6695 55.2453 26.935 55.4066 27.1931C54.5031 27.2872 53.7286 27.3543 52.9624 27.4192C50.4118 27.8794 47.9571 28.1818 45.3141 28.5565C44.3885 30.544 43.6399 32.5504 43.2125 34.5886C43.4684 34.8581 43.7158 34.7407 44.0064 34.6925C45.9396 34.4265 47.9207 34.0815 49.778 33.8651C51.7515 33.6323 53.783 33.5236 55.5491 33.3168C56.5275 33.2026 57.3785 33.4603 57.7929 34.0768C57.8554 34.1923 57.8688 34.2916 58.065 34.3567C58.6213 34.5315 58.6925 34.8943 58.8274 35.2035C58.2361 35.2217 57.6076 35.2425 57.1983 35.2563C56.7188 35.2667 56.3203 35.329 56.1914 35.6204C56.0264 35.7452 55.7769 35.7971 55.5867 35.8038C52.2776 36.481 48.9575 37.1098 45.5167 37.3741C44.7265 37.4161 44.0593 37.4839 43.2735 37.5173C43.2998 37.7306 43.428 37.858 43.5254 38.045C43.0378 38.4468 42.3564 38.1806 41.8575 38.0199C41.3708 37.8634 41.0124 37.5697 40.4659 37.3484C39.8718 37.4554 39.3556 37.1892 38.9109 36.8819C38.4097 36.5309 38.149 36.0203 38.0428 35.5859C37.7796 34.4958 37.9843 33.5011 38.2526 32.4528C38.5297 31.3874 38.7881 30.2609 39.1217 29.2392C39.2015 28.9315 39.3138 28.6445 39.327 28.3545C39.0626 28.2268 38.5981 28.1524 38.7874 27.9109L38.8247 27.9083ZM39.7525 35.071C39.7345 34.8555 39.6718 34.6152 39.7586 34.3497C39.9775 32.7711 40.2063 31.2706 40.9513 29.7719C41.0094 29.6315 41.1252 29.3656 40.8125 29.192C40.4898 30.2622 40.1435 31.2946 39.8218 32.3352C39.4366 33.5543 39.349 34.7674 39.5685 35.5388C39.6592 35.2795 39.6458 35.1803 39.7486 35.0648L39.7525 35.071ZM42.4238 36.9508C42.2922 36.8023 42.2862 36.7305 42.0631 36.7313C41.9847 36.7302 41.8798 36.7802 41.8833 36.8013C41.8928 36.8942 41.914 37.006 41.9872 37.0453C42.0603 37.0845 42.185 37.1908 42.4254 37.2956C42.406 37.1245 42.3965 37.0315 42.4278 36.9571L42.4238 36.9508ZM43.4498 29.5239C43.2058 30.1912 43.0093 30.7944 42.8001 31.4084C42.4406 32.4664 42.237 33.5563 41.9835 34.6594C41.8773 34.7539 41.7516 34.9416 42.1332 35.0234C42.1621 35.023 42.1827 35.0249 42.2116 35.0245C42.2248 34.999 42.2336 34.9819 42.2429 34.9501C42.842 32.9689 43.3434 30.9403 44.1147 29.0013C44.1038 28.9528 44.1013 28.9021 44.0784 28.7099C43.7225 28.9958 43.5352 29.3028 43.4582 29.5217L43.4498 29.5239ZM44.6513 37.0469C45.1199 36.9879 45.6131 36.9372 45.9965 36.6953C44.9867 36.7591 44.0601 36.8007 42.9281 36.8089C43.0597 36.9574 43.038 37.1248 43.1428 37.3392C43.6882 37.201 44.1994 37.1014 44.6513 37.0469ZM54.2314 19.619C53.1307 19.5528 52.0477 19.5774 50.9453 19.6952C50.8418 19.7008 50.867 19.8189 50.867 19.8189C49.8692 19.762 49.2099 19.8424 48.2299 20.1406C49.2268 20.2272 50.0619 20.0704 50.8298 19.8215C51.9937 19.8488 53.107 19.7795 54.227 19.6275L54.2314 19.619ZM56.0119 24.8797C55.0882 24.8324 54.2199 24.8584 53.379 25.0681C54.1621 25.1236 55.3749 25.0424 56.0119 24.8797ZM55.3263 34.3603C55.9141 34.321 56.4538 34.2358 57.1341 34.1424C56.3367 34.0173 55.7454 34.0355 55.3263 34.3603ZM59.1648 19.1767C59.9219 19.5329 60.6629 19.3499 61.3557 19.3854C60.6641 19.1806 60.031 19.0852 59.1648 19.1767Z" fill="black"/>
<path d="M80.3852 28.194C80.2986 28.2552 80.2401 28.4041 80.2481 28.4313C80.307 29.9672 80.2835 31.5411 80.4207 33.0181C80.4855 33.7136 80.7504 34.5513 81.0156 35.3301C81.1201 35.6391 81.4053 35.9267 81.8102 36.0995C82.0592 36.2721 82.0088 36.4482 81.7903 36.5907C81.1887 36.9516 80.4866 37.0243 79.6072 36.6467C79.3606 36.7163 79.1799 36.7377 78.9495 36.8321C78.6321 37.0319 78.3767 37.1774 77.9383 37.1023C77.299 36.9882 76.8693 36.837 76.5722 36.5013C76.3362 36.2294 76.1621 35.9032 76.0738 35.619C75.5811 34.5218 75.3399 33.2432 75.3144 32.2056C75.2759 30.7007 75.3782 29.009 75.41 27.4181C75.3698 27.297 75.3376 27.203 75.3353 26.9609C75.17 27.1252 75.1043 27.129 75.0137 27.184C74.6456 28.1706 73.6426 29.0198 73.2378 29.9801C72.9641 30.3957 72.5491 30.4758 71.9594 30.333C71.7459 30.349 71.6441 30.2379 71.5702 30.244C70.2196 30.3523 69.9995 29.5829 69.6628 29.0377C69.3505 28.5297 69.0514 27.8929 68.7189 27.3391C68.7936 28.3776 69.3739 29.281 70.0312 30.3172C68.8958 30.1588 68.995 29.476 68.3246 29.1352C68.0167 29.737 67.9793 30.3803 67.77 30.9691C67.5482 31.5834 67.4529 32.2872 67.206 32.9675C66.9927 33.55 66.8569 34.1769 66.5535 34.726C66.6465 32.6175 67.6084 30.6173 67.3328 28.4066C67.1727 28.9962 67.0044 29.5882 66.8569 30.1374C66.3851 32.441 65.7244 34.783 65.0924 37.1096C65.0522 37.5698 64.9617 38.1913 64.7634 38.3796C64.5156 38.6113 63.8317 38.4288 63.3233 38.3807C63.1976 38.1734 63.0883 37.9613 62.9912 37.768C62.9306 37.6453 62.9155 37.4582 62.8916 37.3619C63.2382 35.9251 63.5433 34.5589 63.7752 33.0955C63.8681 32.7309 63.8053 32.3218 63.601 31.6362C63.4223 31.9588 63.3106 32.086 63.3465 32.2304C62.9651 33.3606 62.7558 34.5306 62.3698 35.7284C62.2477 36.1674 62.0882 36.6686 61.9125 37.1448C61.783 37.483 61.2969 37.7524 60.6967 37.9216C60.6529 37.7353 60.5183 37.6187 60.6013 37.4923C61.4015 32.2634 62.8001 27.1308 64.2439 21.9781C64.5367 20.6079 65.1737 19.3026 65.5355 18.0381C65.6823 17.5921 65.927 17.2215 66.0605 16.9042C66.169 16.6529 66.4651 16.5548 66.8583 16.65C67.1371 16.6744 67.1355 16.8956 67.1097 17.0648C67.1259 17.0896 67.1913 17.1301 67.2152 17.2263C67.6062 17.0499 68.0996 16.9109 68.3101 16.7265C68.982 16.2796 69.591 16.6157 70.2302 16.7299C70.521 16.8024 70.5396 17.0694 70.5877 17.2325C70.5951 17.9147 70.5906 18.5487 70.5651 19.2549C70.5601 21.6918 71.0721 24.1301 72.019 26.5489C72.141 26.7059 72.1649 26.8021 72.3438 27.0313C72.3904 26.8342 72.5509 26.7669 72.6663 26.6903C73.5944 25.4133 74.1947 24.0669 74.8155 22.7368C75.4987 21.2787 76.1122 19.8182 76.5616 18.345C76.7603 17.5164 77.2048 16.7511 77.5015 15.9831C77.6582 15.8654 77.6837 15.7405 77.7956 15.5839C78.1187 15.1544 78.4678 15.1075 79.1594 15.3467C79.3109 15.3997 79.3967 15.4417 79.6106 15.3667C80.2854 15.0883 80.9236 15.3499 81.6396 15.6264C81.5916 16.0299 81.5683 16.4264 81.4714 16.7848C81.0506 18.8385 80.6346 20.81 80.4644 22.8151C80.3819 23.4638 80.43 24.1934 80.3921 24.9104C80.1509 25.9423 80.0772 27.0815 80.2867 28.2071C80.3278 28.1955 80.3483 28.1971 80.3934 28.1917L80.3852 28.194ZM77.9599 34.0501C78.0538 34.7005 78.028 35.4362 78.938 36.129C78.6151 35.3812 78.2467 34.683 77.9599 34.0501ZM80.5624 24.6196C80.6497 23.8739 80.8391 23.2099 80.9264 22.4642C80.9889 22.3362 81.0847 22.1253 81.2088 21.9873C81.3698 24.1566 81.1865 26.2906 81.1099 28.4092C81.0377 30.4898 81.1087 32.6256 81.1591 34.7746C81.1189 34.6535 81.0296 34.5168 81.0546 34.4656C80.8815 33.4107 80.6181 32.3813 80.5925 31.3584C80.5712 30.3122 80.5214 29.2372 80.377 28.1963C80.3359 28.2079 80.3154 28.2063 80.2702 28.2117C80.4022 27.5344 80.4401 26.8173 80.4659 26.0816C80.4969 25.7565 80.4225 25.2551 80.3757 24.9151C80.4623 24.8539 80.4958 24.7561 80.5542 24.622L80.5624 24.6196Z" fill="black"/>
<path d="M88.4338 25.2727C88.8559 24.7209 89.511 24.2665 90.1321 23.9171C90.5281 23.6947 90.9777 23.6999 91.4305 23.6844C91.8921 23.6682 92.4655 23.6022 92.9651 23.5284C93.2571 22.9596 93.6279 22.2209 93.9028 21.6877C94.2017 21.1115 94.6388 20.4835 95.2255 20.0414C95.2861 19.9684 95.3412 19.8753 95.4315 19.7795C95.6105 19.1584 96.2636 19.1542 96.8403 19.0675C97.0979 19.0265 97.3268 19.0766 97.6605 19.0841C98.7269 18.9858 99.8176 19.1719 100.896 19.6386C101.437 19.8138 102.044 19.9361 102.647 20.0109C103.631 20.2328 104.446 20.6863 105.032 21.2876C105.887 22.1812 106.363 23.0367 106.584 23.9398C107.041 25.7652 106.898 27.5633 106.169 29.2851C104.906 32.5497 102.231 35.5718 98.3369 37.4838C96.2485 38.4953 94.8737 38.8091 92.9042 38.3928C91.94 38.2102 90.9336 37.8742 89.7953 37.6782C89.3907 37.6081 88.9469 37.4933 88.5053 37.4193C86.4068 36.9245 85.0808 35.816 84.6884 34.3538C84.3312 33.0523 84.2396 31.6412 84.6163 30.336C85.1772 28.3957 86.0769 26.6125 87.574 25.0137C88.0977 24.4402 88.6826 23.9914 89.3716 23.5957C89.4692 23.5265 89.6413 23.5333 89.8664 23.4063C89.229 24.023 88.71 24.5484 88.1117 25.046C88.0141 25.1151 88.0216 25.3055 87.9584 25.4674C87.6492 25.7556 87.443 26.0493 87.3399 26.3485C87.836 25.9681 87.8407 25.92 87.9584 25.4674C88.1587 25.4787 88.2965 25.3928 88.425 25.2734L88.4338 25.2727ZM87.1998 29.0055C88.075 27.0675 89.4082 25.2635 91.5413 23.8597C91.1016 23.7924 90.9033 23.9513 90.604 24.0365C89.9833 24.42 89.3575 24.8175 88.9433 25.3005C86.9956 27.4124 85.9719 29.7237 85.6114 32.296C85.5267 33.0324 85.6474 33.7661 85.9162 34.5494C85.9927 34.7957 86.1077 35.0184 86.5142 35.2589C85.7646 32.9521 86.3367 30.9222 87.1998 29.0055ZM91.5767 25.4254C91.225 25.842 90.8142 26.3043 90.4227 26.7718C90.2882 26.8371 90.3621 27.0085 90.3056 27.1289C90.0614 27.1211 90.0097 27.357 89.8819 27.5445C89.237 28.4277 88.6983 29.5343 88.3817 30.5688C88.0382 31.7008 87.9334 32.9844 88.1366 34.1821C88.2064 34.5993 88.3543 35.1059 88.7259 35.5128C88.7537 35.4833 88.7676 35.4686 88.7972 35.4457C88.7978 35.3502 88.7897 35.2554 88.7151 35.1795C88.3173 34.3178 88.222 33.3501 88.3202 32.5649C88.5358 30.8361 89.1366 29.1722 90.1568 27.6318C90.2536 27.4945 90.2443 27.2975 90.3074 27.1356C91 26.5896 91.3746 26.0279 91.7755 25.3005C92.0773 25.2901 92.2414 25.2021 92.2255 24.8828C92.0271 25.0418 91.7607 25.0834 91.8852 25.3736C91.785 25.3679 91.6498 25.365 91.5785 25.4321L91.5767 25.4254ZM93.6513 25.0492C93.1757 26.4508 92.6861 27.8673 92.4005 29.3084C92.1615 30.5276 92.0249 31.7932 92.5364 33.0687C92.5445 33.1636 92.543 33.191 92.4382 33.2334C92.0475 33.3122 91.7894 33.1554 91.7114 32.9365C91.3826 32.1307 91.0784 31.316 91.2109 30.4599C91.3601 29.5343 91.5184 28.4783 91.6914 27.4757C91.7431 27.2398 91.7298 26.9953 91.7929 26.8335C91.4904 26.9393 91.3666 27.1742 91.2429 27.4091C90.9019 27.9954 90.5138 28.6059 90.2737 29.266C89.6515 30.7543 89.3094 32.3158 89.545 33.8929C89.8486 35.8805 90.7376 36.7032 93.1324 35.7628C97.9704 33.6667 100.747 30.166 101.671 26.2191C101.834 25.2787 101.863 24.4376 101.823 23.5406C101.785 22.6503 101.548 21.8508 101.06 21.119C100.942 20.9511 100.765 20.8287 100.644 20.6815C100.163 20.822 99.7396 21.108 99.4408 21.3909C98.6277 22.151 98.049 22.9813 97.5624 23.886C96.7056 25.4339 95.8847 27.0471 95.3974 28.6679C95.3179 28.9334 95.1565 29.0962 95.1047 29.3322C95.0377 28.5328 95.38 27.7555 95.6076 27.0828C95.8543 26.3812 96.1517 25.6688 96.4462 25.0112C96.7425 24.3603 97.1682 23.6582 97.4752 23.0132C97.3049 23.0131 97.1496 23.1004 97.12 23.1233C95.8973 25.0685 95.0689 27.1119 94.6219 29.3365C94.5431 30.127 94.2794 30.864 94.5563 31.7421C94.6692 31.7945 94.5684 31.8844 94.5824 32.0333C94.353 32.2425 94.4705 32.54 94.5306 32.7262C94.591 32.9464 94.5616 33.1329 94.6812 33.3075C94.1696 33.4027 93.6834 33.4163 93.2226 33.3484C92.7311 32.4395 92.6596 31.5587 92.5841 30.6304C92.5638 30.3933 92.5816 30.0987 92.6743 29.914C92.8043 28.6898 93.251 27.6723 93.588 26.5817C93.7872 26.034 93.9816 25.3707 94.203 24.7735C93.6832 24.6102 93.702 24.8746 93.6495 25.0425L93.6513 25.0492ZM95.9161 20.4025C95.1888 21.4423 94.6405 22.4815 94.1836 23.527C94.1237 23.6682 94.2024 23.7915 94.2697 23.8407C94.7346 23.8038 94.7076 23.4445 94.8522 23.1875C95.3898 21.9787 96.0224 20.7896 96.9913 19.6829C96.5082 19.8167 96.2135 20.147 95.9074 20.4032L95.9161 20.4025ZM100.302 32.7586C100.438 32.666 100.461 32.6165 100.661 32.4982C101.778 31.4071 102.466 30.1931 103.054 28.8097C103.622 27.4825 103.862 26.0382 103.662 24.4925C103.56 23.6959 103.386 22.8982 102.997 22.1994C102.78 21.8348 102.571 21.4968 101.993 21.0585C102.149 21.4962 102.242 21.7343 102.308 21.9746C103.059 23.2106 103.261 24.5653 103.129 25.8169C102.91 27.9552 102.155 30.0404 100.739 31.8988C100.557 32.1859 100.339 32.4692 100.125 32.7318C100.197 32.7329 100.304 32.7312 100.302 32.7586ZM104.087 30.644C103.637 31.2253 103.31 31.7013 102.964 32.3016C102.896 32.3479 102.98 32.4231 103.003 32.6395C103.289 32.1122 103.54 31.8194 103.838 31.4343C103.98 31.1707 104.116 30.8803 104.294 30.6139C104.693 30.2071 104.809 29.7478 104.951 29.2864C104.938 29.2397 104.935 29.1649 104.828 29.1666C104.923 29.1182 105.102 29.1176 105.089 29.0709C105.868 27.2086 106.076 25.419 105.553 23.4148C105.415 23.1734 105.308 22.8819 105.056 22.52C105.087 22.763 105.004 22.8855 105.132 23.0254C105.709 24.473 105.691 25.9747 105.279 27.4464C105.154 28.0019 105.155 28.6906 104.927 29.1656C104.757 29.5269 104.374 29.9597 104.248 30.3515C104.188 30.4245 104.268 30.5204 104.285 30.6146C104.215 30.6202 104.078 30.6106 104.076 30.638L104.087 30.644Z" fill="black"/>
<path d="M119.44 32.0463C120.533 32.8205 121.677 33.5838 122.81 34.2728C123.609 34.7628 124.467 35.173 125.383 35.6264C125.984 35.852 126.66 36.058 127.281 36.2273C128.009 36.4224 128.587 36.0757 129.207 36.0744C129.383 36.0604 129.488 36.052 129.673 36.0374C129.13 36.4495 127.743 37.8101 127.171 38.1493C126.318 38.6749 125.316 38.7203 124.241 38.4708C123.378 38.2729 122.66 37.9814 121.867 37.7096C121.48 37.6105 121.197 37.4621 120.783 37.4267C120.563 37.41 120.33 37.1825 120.148 37.0466C120.001 36.9353 119.873 36.7951 119.668 36.7021C118.689 36.2127 117.665 35.6244 116.854 35.026C116.042 34.4276 115.199 33.7771 114.381 33.2202C114.3 33.1516 114.144 33.1092 113.986 32.9919C113.903 33.1147 113.75 33.2431 113.794 33.4377C113.243 35.5519 112.656 37.6348 112.009 39.7634C111.977 40.0051 112.005 40.1737 111.83 40.4199C111.782 40.5399 111.613 40.6422 111.323 40.6994C111.063 40.8977 110.907 40.6572 110.487 40.5676C110.5 40.6144 110.403 40.7178 110.335 40.7642C110.244 40.8602 109.966 40.9916 109.882 40.9163C109.74 40.9208 109.516 40.7267 109.512 40.6792C109.543 40.1711 109.094 39.7147 108.804 39.28C108.621 39.0075 108.644 38.6982 108.588 38.361C108.552 38.1657 108.532 37.9964 108.397 37.8295C108.222 38.5336 108.182 39.2405 108.843 39.9123C108.154 40.1857 107.85 40.1894 107.437 39.8326C107.059 39.5005 106.848 39.0595 106.813 38.6045C106.765 37.9386 106.811 37.1902 106.926 36.4977C107.053 35.7496 107.333 34.9689 107.539 34.2146C107.524 34.0928 107.571 33.9729 107.686 33.7998C107.294 33.5849 106.864 33.3253 106.523 33.1336C106.175 32.9427 106.295 32.7281 106.688 32.6217C107.124 32.5052 107.538 32.4449 108.086 32.3126C107.607 32.1729 107.309 32.2991 107.102 32.3292C106.563 32.3925 106.224 32.3374 105.932 32.0258C106.472 31.9009 107.127 31.7327 107.661 31.6152C108.212 31.4962 108.645 31.209 108.749 30.7703C109.498 28.982 110.205 27.1698 111.167 25.4398C111.341 25.0912 111.63 24.6719 111.763 24.306C111.811 24.186 111.896 24.1041 111.954 23.8877C111.402 24.0066 111.159 24.1353 110.963 24.3354C110.54 24.7585 110.371 24.765 109.718 24.5162C109.544 24.4686 109.428 24.3752 109.38 24.3312C108.607 23.9348 108.591 23.8131 109.204 23.3613C109.944 22.8174 110.852 22.4924 111.704 22.0967C112.31 21.8163 113.194 21.6641 113.529 21.4462C113.887 21.2127 114.125 20.7702 114.392 20.5303C114.697 20.267 115.045 20.0617 115.532 20.0366C116.019 20.0116 116.546 19.8673 117.04 19.7392C118.638 19.4073 120.407 19.0414 122.232 19.0468C123.149 19.0491 124.212 19.0603 125.089 19.1478C126.453 19.2718 127.822 19.6756 128.939 20.4069C129.042 20.5217 129.249 20.5531 129.309 20.644C130.465 21.1535 131.101 22.6199 130.59 23.5078C130.511 23.7122 130.471 23.8931 130.337 24.0267C129.533 24.9925 128.505 25.9283 127.25 26.6225C126.724 26.9649 126.218 27.251 125.61 27.5864C123.124 28.9044 121.764 29.4838 118.909 30.6331C118.673 30.6928 118.319 30.8097 118.139 30.9402C118.475 31.508 118.825 31.6374 119.44 32.0463ZM108.738 35.9643C108.7 36.186 108.596 36.4266 108.576 36.7152C108.576 36.7152 108.646 36.7096 108.791 36.7118C108.823 36.47 108.887 36.178 108.916 35.957C108.869 35.9607 108.809 35.9609 108.736 35.9576L108.738 35.9643ZM117.45 25.0912C116.83 26.2679 116.265 27.4196 115.608 28.5925C115.564 28.6917 115.375 28.8228 115.612 28.9338C116.376 28.6067 117.208 28.3014 117.921 27.951C119.827 27.0753 121.709 26.1742 123.234 24.9871C123.868 24.5473 124.392 24.0683 125.003 23.48C125.333 23.2078 125.478 22.8546 125.593 22.4219C124.012 21.9324 121.101 22.027 118.531 22.6138C118.191 23.4402 117.844 24.2673 117.45 25.0912ZM115.48 25.8694L115.516 25.8666C115.586 25.697 115.723 25.5426 115.79 25.3938C115.781 25.3626 115.736 25.307 115.654 25.2269C115.541 25.5024 115.439 25.654 115.404 25.8208C115.404 25.8208 115.417 25.8676 115.48 25.8694ZM116.661 23.6915C116.539 23.8994 116.189 24.1321 116.251 24.4211C116.445 24.2143 116.723 23.9805 116.648 23.6447C117.156 23.2013 117.223 23.0525 117.299 22.5134C117.539 22.4055 117.676 22.2511 117.591 21.9094C117.413 22.1422 117.143 22.2729 117.303 22.5609C116.787 22.8069 116.823 23.3985 116.652 23.6922L116.661 23.6915ZM117.855 20.2827C120.43 19.8459 123.011 19.6613 125.634 19.6922C123.513 19.232 119.042 19.7306 117.855 20.2827Z" fill="black"/>
<path d="M135.65 19.9866C135.891 19.9602 136.061 19.9865 136.33 20.0314C136.637 19.7992 136.7 19.333 137.476 19.3832C137.568 19.4693 137.569 19.5361 137.62 19.6321C137.653 19.6896 137.802 19.7042 137.802 19.7042C138.402 19.7021 138.663 19.8144 138.799 20.1909C138.849 20.0598 139.038 19.9643 139.116 19.9044C139.218 19.7424 139.33 19.5528 139.811 19.6205C140.469 19.7072 141.002 19.9377 140.95 20.2227C140.902 20.4938 140.89 20.7688 140.827 20.9477C140.342 22.7514 139.873 24.5806 139.429 26.2474C138.834 28.5012 138.608 30.8852 138.416 33.046C138.286 34.4799 138.413 35.8796 138.315 37.2709C138.324 37.8783 138.332 38.4189 138.435 38.9317C138.531 39.4184 138.652 39.9966 139.394 40.4306C138.701 40.721 137.986 40.7393 137.399 40.6602C137.077 40.6128 136.913 40.6062 136.553 40.669C135.629 40.8378 134.882 40.6716 134.435 40.1868C134.015 39.7399 133.966 39.1425 133.883 38.5746C133.652 36.5017 133.887 34.4711 134.094 32.4295C134.225 31.0956 134.445 29.7144 134.593 28.3458C134.263 28.1388 133.33 28.2082 133.576 27.7204C133.199 27.8781 133.13 28.004 132.823 28.2028C132.767 27.9935 132.606 27.9064 132.641 27.8101C132.67 27.3465 132.707 26.9091 132.849 26.51C133.532 24.4896 133.985 22.4078 134.535 20.4317C134.66 20.3213 134.687 20.1988 134.834 19.8861C135.025 20.0844 135.129 20.2162 135.182 20.2854C135.293 20.4434 135.286 20.611 135.418 20.8141C135.123 20.9919 135.097 21.2146 135.352 21.4009C135.254 21.195 135.28 20.9724 135.292 20.8244C135.672 20.613 135.363 20.2573 135.657 19.9794L135.65 19.9866ZM135.923 37.0115C135.903 35.2757 135.96 33.5069 136.285 31.6828C136.692 28.1545 137.211 24.6574 138.499 21.2779C138.544 21.1272 138.515 20.9558 138.549 20.8595C138.276 20.8951 138.21 21.0007 138.158 21.1253C137.416 22.8965 136.866 24.7122 136.551 26.5422C135.932 29.8872 135.551 33.2596 135.499 36.6452C135.488 37.5616 135.596 38.5418 135.767 39.3698C135.833 39.6786 135.973 40.0747 136.7 40.3896C135.868 39.2346 135.932 38.1001 135.923 37.0115Z" fill="black"/>
<path d="M142.921 36.1879C142.031 36.4418 141.001 36.4426 140.182 36.0131C139.734 35.8386 139.729 35.8187 139.978 35.2702C139.579 35.241 138.962 34.5446 138.538 34.4225C139.303 34.1651 140.423 33.8453 141.575 33.5095C143.171 33.0435 144.969 32.602 145.964 32.2787C146.356 32.1526 146.534 31.9283 146.75 31.6467C147.292 30.4785 147.911 29.365 148.438 28.2386C148.713 27.5254 148.901 26.7175 149.071 25.9448C149.361 24.7966 149.697 23.7193 149.913 22.5296C149.968 22.0168 149.964 21.5156 150.043 20.9265C150.058 20.7219 150.061 20.5726 150.089 20.4145C150.537 20.3652 150.961 20.4195 151.225 20.7984C151.253 20.8707 151.369 20.9022 151.423 20.9385C151.809 21.0501 151.968 21.2746 151.918 21.6107C151.92 21.685 151.963 21.7765 152.021 21.9211C152.763 21.0622 153.059 20.1981 153.776 19.409C153.983 19.4196 154.195 19.5112 154.482 19.5561C155.095 19.1344 155.743 19.2929 156.38 19.5743C156.549 19.6421 156.71 19.7106 156.745 19.7079C157.246 19.6883 157.475 19.9073 157.688 20.1343C157.998 20.4552 158.113 20.812 158.067 21.2291C158.092 22.6504 158.117 24.0379 158.182 25.4763C158.294 26.0164 158.396 26.5166 158.385 27.0597C158.375 27.6095 158.402 28.0953 158.37 28.6604C158.308 28.9229 158.352 29.2786 158.382 29.5473C158.405 29.7624 158.592 29.8627 158.827 29.9727C159.163 30.1628 159.467 30.3962 159.765 30.6096C159.998 30.7808 160.35 30.9629 160.539 31.1986C160.83 31.5482 160.836 31.6969 160.425 31.9804C159.955 32.3092 159.049 32.6322 158.842 32.9808C158.644 33.3287 158.997 34.2629 159.116 34.9245C159.367 36.26 159.752 37.7001 160.168 38.9276C160.262 39.2048 160.372 39.4129 160.51 39.6255C160.71 39.9349 160.88 40.2942 161.476 40.3619C161.565 40.3954 161.67 40.4548 161.759 40.4884C161.751 40.7195 161.539 40.7567 161.407 40.7266C160.89 40.5915 160.405 40.6031 159.882 40.8684C159.508 41.0609 159.088 40.9521 158.614 40.9085C158.222 40.8719 157.927 40.8006 157.479 40.7211C156.88 40.5451 156.465 40.3613 156.118 39.9687C155.86 39.6775 155.493 39.3069 155.366 39.0391C154.826 37.9435 154.532 36.7402 154.277 35.5812C154.101 34.809 153.934 34.0361 153.781 33.1536C153.611 33.1808 153.447 33.1328 153.344 33.1478C152.144 33.4671 150.922 33.7746 149.905 34.0522C149.543 34.1556 149.266 34.442 149.071 34.7693C148.33 36.0212 147.605 37.2651 146.926 38.5188C146.64 39.0296 146.213 39.5787 145.758 40.1572C145.578 39.9546 145.557 39.9089 145.531 39.816C145.427 39.8243 145.359 39.8365 145.359 39.8365C145.166 40.0078 145.078 40.1707 144.972 40.4028C144.614 40.8448 144.184 40.9943 143.486 40.9753C143.188 40.9584 142.683 40.9309 142.56 40.839C142.348 40.6797 142.59 40.2673 142.874 40.1362C143.158 40.0052 142.707 39.6886 143.049 39.5733C143.35 39.4747 142.979 39.1586 143.139 38.9968C143.387 38.7669 143.465 38.5641 143.457 38.3411C143.603 38.1262 143.699 37.8948 143.816 37.7026C143.829 37.5253 143.959 37.2845 144.036 37.0818C144.124 36.8511 144.223 36.6602 144.316 36.4495C144.415 36.2247 144.494 36.0286 144.555 35.6985C143.937 35.8765 143.443 36.0514 142.942 36.1998L142.921 36.1879ZM145.017 36.3462C145.044 36.1204 145.387 35.9779 145.281 35.5932C145.076 35.9145 144.96 36.1067 145.017 36.3462ZM148.077 35.3907C148.147 35.1886 148.349 34.9556 148.384 34.4987C147.864 35.0959 147.639 35.5747 147.63 36.1244C147.8 35.9008 147.983 35.6625 148.077 35.3907ZM151.877 32.1057C151.707 32.1328 151.54 32.2343 151.369 32.2614C151.695 32.2829 152.049 32.1802 152.313 32.1388C152.415 32.1238 152.371 32.0257 152.419 31.9744C152.836 32.0361 153.166 31.9759 153.559 31.7887C153.164 31.7524 152.784 31.8143 152.419 31.9744C152.283 31.9988 152.122 32.0252 151.871 32.113L151.877 32.1057ZM153.848 25.1236C153.229 26.237 152.14 29.4619 151.62 30.4183C151.539 30.479 151.67 30.5363 151.704 30.6284C152.278 30.4878 153.184 30.192 153.884 29.9938C153.648 28.3521 154.266 26.2289 153.855 25.1163L153.848 25.1236ZM151.673 28.5028C152.136 27.9236 152.48 27.2659 152.752 26.6681C152.198 27.2409 151.824 27.8536 151.673 28.5028ZM155.228 32.7605C154.964 33.0594 155.121 33.2773 155.181 33.4962C155.226 34.1161 155.443 34.8105 155.515 35.4961C155.649 36.6986 156.166 37.9384 156.55 39.1142C156.622 39.3457 156.783 39.5768 156.902 39.7842C155.888 37.5403 155.703 35.1423 155.226 32.7538L155.228 32.7605ZM151.962 23.4575C151.906 23.6449 151.822 23.855 151.813 23.9845C152.114 23.8859 152.175 23.7184 151.962 23.4575ZM152.897 26.2906C153.228 26.0066 153.278 25.7993 153.29 25.5205C153.058 25.7085 152.841 25.9223 152.897 26.2906ZM157.284 32.3526C157.327 32.4441 157.288 32.5286 157.309 32.5743C157.531 34.3256 157.791 36.0196 158.339 37.7313C158.541 38.3726 158.767 39.0663 159.174 39.6778C159.308 39.8094 159.391 39.918 159.536 39.9946C159.638 39.878 159.609 39.8396 159.498 39.7265C159.18 39.4062 159.046 38.7866 158.891 38.3177C158.694 37.7301 158.466 37.0909 158.295 36.4336C158.164 35.9221 158.007 35.3178 157.9 34.7638C157.798 34.1959 157.766 33.5275 157.622 32.8747C157.558 32.7374 157.525 32.4554 157.441 32.374C157.406 32.3429 157.352 32.3405 157.284 32.3526ZM154.888 29.7986C154.875 29.7522 154.934 29.7407 154.913 29.695C154.888 28.2398 154.884 26.7016 154.867 25.2457C154.839 25.1734 154.825 25.1542 154.681 25.0505C154.46 25.8001 154.539 28.9792 154.897 29.7979L154.888 29.7986ZM153.829 20.8349C153.84 20.7798 153.789 20.689 153.752 20.5225C153.018 21.4417 152.796 22.0287 152.851 22.553C153.183 21.9165 153.542 21.3457 153.822 20.8422L153.829 20.8349ZM156.93 28.7887C156.93 29.114 156.915 29.3185 156.9 29.5231C157.226 29.287 157.16 29.0754 156.93 28.7887ZM156.968 25.973C157.002 24.574 157.113 23.1622 157.078 21.7688C157.075 21.6945 156.974 21.6145 156.893 21.4514C156.819 21.6674 156.792 21.8255 156.794 21.8999C156.723 23.0035 156.756 24.065 156.741 25.1777C156.806 25.5453 156.772 25.7784 156.786 26.0552C156.706 26.8004 156.767 27.575 156.947 28.2993C156.978 28.2156 157.014 28.0568 156.993 28.0111C156.985 27.5304 156.994 27.0756 157.024 26.6666C156.915 26.4312 156.879 26.2647 156.786 26.0552C156.854 26.0431 156.946 26.0222 156.959 25.9737L156.968 25.973Z" fill="black"/>
</svg>
