<svg width="49" height="38" viewBox="0 0 49 38" fill="none" xmlns="http://www.w3.org/2000/svg">
<g clip-path="url(#clip0_115_1242)">
<path d="M8.90796 37.8112V35.2961C8.90796 34.3318 8.31957 33.7031 7.31105 33.7031C6.80689 33.7031 6.26062 33.8708 5.8824 34.4158C5.5884 33.9546 5.16826 33.7031 4.53796 33.7031C4.11763 33.7031 3.69769 33.8288 3.36139 34.2899V33.787H2.479V37.8112H3.36139V35.5894C3.36139 34.8769 3.73961 34.5414 4.32799 34.5414C4.91599 34.5414 5.21037 34.9188 5.21037 35.5894V37.8112H6.09275V35.5894C6.09275 34.8769 6.5127 34.5414 7.05897 34.5414C7.64736 34.5414 7.94136 34.9188 7.94136 35.5894V37.8112H8.90796ZM21.9755 33.787H20.547V32.5714H19.6646V33.787H18.8663V34.5832H19.6644V36.4279C19.6644 37.3502 20.0426 37.895 21.0512 37.895C21.4294 37.895 21.8493 37.7693 22.1437 37.6017L21.8914 36.847C21.6393 37.0147 21.3453 37.0567 21.1352 37.0567C20.715 37.0567 20.547 36.8052 20.547 36.3859V34.5832H21.9755V33.787ZM29.4548 33.7029C28.9507 33.7029 28.6146 33.9546 28.4044 34.2899V33.787H27.522V37.8112H28.4044V35.5476C28.4044 34.8769 28.6984 34.4996 29.2447 34.4996C29.4127 34.4996 29.6229 34.5416 29.791 34.5834L30.043 33.7452C29.875 33.7031 29.6229 33.7031 29.4548 33.7031M18.1519 34.1225C17.7316 33.829 17.1434 33.7033 16.5131 33.7033C15.5048 33.7033 14.8326 34.2063 14.8326 35.0028C14.8326 35.6736 15.3367 36.0507 16.2191 36.1766L16.6392 36.2186C17.1015 36.3022 17.3536 36.4281 17.3536 36.6377C17.3536 36.931 17.0175 37.1407 16.4291 37.1407C15.8407 37.1407 15.3786 36.931 15.0844 36.7216L14.6643 37.3922C15.1266 37.7275 15.7569 37.8952 16.387 37.8952C17.5635 37.8952 18.236 37.3504 18.236 36.5957C18.236 35.8831 17.6897 35.5058 16.8492 35.3801L16.4291 35.3381C16.0509 35.2961 15.7569 35.2124 15.7569 34.961C15.7569 34.6675 16.0509 34.4998 16.5131 34.4998C17.0175 34.4998 17.5216 34.7093 17.7737 34.8351L18.1519 34.1225ZM41.5982 33.7033C41.0939 33.7033 40.7578 33.9548 40.5476 34.2901V33.7872H39.6652V37.8113H40.5476V35.5478C40.5476 34.8771 40.8418 34.4998 41.3879 34.4998C41.5561 34.4998 41.7663 34.5418 41.9343 34.5836L42.1864 33.7453C42.0184 33.7033 41.7663 33.7033 41.5982 33.7033ZM30.3372 35.7993C30.3372 37.0149 31.1775 37.8952 32.4802 37.8952C33.0684 37.8952 33.4885 37.7695 33.9087 37.4342L33.4885 36.7216C33.1524 36.973 32.8163 37.0987 32.4381 37.0987C31.7238 37.0987 31.2196 36.5957 31.2196 35.7993C31.2196 35.0448 31.7238 34.5416 32.4381 34.4998C32.8163 34.4998 33.1524 34.6255 33.4885 34.8771L33.9087 34.1645C33.4885 33.829 33.0684 33.7033 32.4802 33.7033C31.1775 33.7033 30.3372 34.5836 30.3372 35.7993ZM38.4888 35.7993V33.7872H37.6065V34.2901C37.3123 33.913 36.8921 33.7033 36.3459 33.7033C35.2114 33.7033 34.329 34.5836 34.329 35.7993C34.329 37.0149 35.2114 37.8952 36.3459 37.8952C36.934 37.8952 37.3544 37.6857 37.6065 37.3084V37.8113H38.4888V35.7993ZM35.2533 35.7993C35.2533 35.0866 35.7155 34.4998 36.4718 34.4998C37.1861 34.4998 37.6905 35.0448 37.6905 35.7993C37.6905 36.5119 37.1861 37.0987 36.4718 37.0987C35.7155 37.0567 35.2533 36.5119 35.2533 35.7993ZM24.7068 33.7033C23.5302 33.7033 22.6898 34.5416 22.6898 35.7993C22.6898 37.0569 23.5301 37.8952 24.7487 37.8952C25.3369 37.8952 25.9253 37.7275 26.3876 37.3504L25.9672 36.7216C25.6311 36.973 25.211 37.1407 24.7908 37.1407C24.2446 37.1407 23.6983 36.8892 23.5722 36.1764H26.5556V35.8413C26.5977 34.5416 25.8415 33.7033 24.7068 33.7033ZM24.7066 34.4578C25.2527 34.4578 25.6311 34.7933 25.715 35.4221H23.6141C23.6981 34.8771 24.0763 34.4578 24.7066 34.4578ZM46.5981 35.7993V32.1942H45.7158V34.2901C45.4216 33.913 45.0014 33.7033 44.4552 33.7033C43.3207 33.7033 42.4383 34.5836 42.4383 35.7993C42.4383 37.0149 43.3207 37.8952 44.4552 37.8952C45.0435 37.8952 45.4637 37.6857 45.7158 37.3084V37.8113H46.5981V35.7993ZM43.3628 35.7993C43.3628 35.0866 43.8249 34.4998 44.5813 34.4998C45.2956 34.4998 45.7998 35.0448 45.7998 35.7993C45.7998 36.5119 45.2956 37.0987 44.5813 37.0987C43.8249 37.0567 43.3628 36.5119 43.3628 35.7993ZM13.8658 35.7993V33.7872H12.9834V34.2901C12.6892 33.913 12.2691 33.7033 11.7228 33.7033C10.5883 33.7033 9.70593 34.5836 9.70593 35.7993C9.70593 37.0149 10.5883 37.8952 11.7228 37.8952C12.3112 37.8952 12.7313 37.6857 12.9834 37.3084V37.8113H13.8658V35.7993ZM10.5883 35.7993C10.5883 35.0866 11.0506 34.4998 11.8068 34.4998C12.5211 34.4998 13.0255 35.0448 13.0255 35.7993C13.0255 36.5119 12.5211 37.0987 11.8068 37.0987C11.0506 37.0567 10.5883 36.5119 10.5883 35.7993Z" fill="black"/>
<path d="M17.8579 3.22766H31.0937V26.954H17.8579V3.22766Z" fill="#FF5F00"/>
<path d="M18.6983 15.091C18.6983 10.2703 20.9672 5.99445 24.4546 3.22771C21.8917 1.21562 18.6564 0 15.1268 0C6.76487 0 0 6.74891 0 15.091C0 23.433 6.76487 30.1819 15.1266 30.1819C18.6562 30.1819 21.8915 28.9663 24.4546 26.954C20.9672 24.2293 18.6983 19.9116 18.6983 15.091Z" fill="#EB001B"/>
<path d="M48.9512 15.091C48.9512 23.4328 42.1863 30.1819 33.8246 30.1819C30.295 30.1819 27.0597 28.9663 24.4966 26.954C28.0261 24.1875 30.2531 19.9116 30.2531 15.091C30.2531 10.2703 27.984 5.99445 24.4966 3.22771C27.0595 1.21562 30.295 0 33.8246 0C42.1863 0 48.9512 6.79092 48.9512 15.091Z" fill="#F79E1B"/>
</g>
<defs>
<clipPath id="clip0_115_1242">
<rect width="49" height="38" fill="white"/>
</clipPath>
</defs>
</svg>
