<svg width="25" height="25" viewBox="0 0 25 25" fill="none" xmlns="http://www.w3.org/2000/svg">
<path d="M3.125 3.125H3.40453C3.89805 3.125 4.14524 3.125 4.34653 3.21404C4.524 3.29254 4.67574 3.41893 4.78516 3.5792C4.90906 3.76068 4.95379 4.00302 5.0431 4.48674L7.29171 16.6667L18.1477 16.6667C18.6198 16.6667 18.8566 16.6667 19.0521 16.5833C19.2249 16.5096 19.3738 16.3902 19.4845 16.2385C19.6096 16.0669 19.6626 15.8372 19.7685 15.3782L19.7693 15.375L21.4039 8.29163L21.4042 8.29014C21.5649 7.59391 21.6454 7.24495 21.557 6.97123C21.4794 6.73106 21.3161 6.52744 21.0996 6.39783C20.8525 6.25 20.4956 6.25 19.7799 6.25H5.72917M18.75 21.875C18.1747 21.875 17.7083 21.4086 17.7083 20.8333C17.7083 20.258 18.1747 19.7917 18.75 19.7917C19.3253 19.7917 19.7917 20.258 19.7917 20.8333C19.7917 21.4086 19.3253 21.875 18.75 21.875ZM8.33333 21.875C7.75804 21.875 7.29167 21.4086 7.29167 20.8333C7.29167 20.258 7.75804 19.7917 8.33333 19.7917C8.90863 19.7917 9.375 20.258 9.375 20.8333C9.375 21.4086 8.90863 21.875 8.33333 21.875Z" stroke="white" stroke-width="2" stroke-linecap="round" stroke-linejoin="round"/>
</svg>
