<svg width="25" height="26" viewBox="0 0 25 26" fill="none" xmlns="http://www.w3.org/2000/svg">
<path d="M3.12451 4.04825H3.40404C3.89756 4.04825 4.14475 4.04825 4.34604 4.13729C4.52351 4.2158 4.67525 4.34219 4.78467 4.50246C4.90857 4.68394 4.95331 4.92627 5.04261 5.40999L7.29122 17.59L18.1472 17.5899C18.6193 17.5899 18.8561 17.5899 19.0516 17.5065C19.2244 17.4328 19.3733 17.3135 19.484 17.1617C19.6091 16.9901 19.6621 16.7604 19.768 16.3015L19.7688 16.2982L21.4034 9.21488L21.4038 9.21339C21.5644 8.51716 21.645 8.1682 21.5565 7.89448C21.4789 7.65432 21.3157 7.45069 21.0991 7.32109C20.8521 7.17325 20.4951 7.17325 19.7794 7.17325H5.72868M18.7495 22.7983C18.1742 22.7983 17.7078 22.3319 17.7078 21.7566C17.7078 21.1813 18.1742 20.7149 18.7495 20.7149C19.3248 20.7149 19.7912 21.1813 19.7912 21.7566C19.7912 22.3319 19.3248 22.7983 18.7495 22.7983ZM8.33285 22.7983C7.75755 22.7983 7.29118 22.3319 7.29118 21.7566C7.29118 21.1813 7.75755 20.7149 8.33285 20.7149C8.90814 20.7149 9.37451 21.1813 9.37451 21.7566C9.37451 22.3319 8.90814 22.7983 8.33285 22.7983Z" stroke="black" stroke-width="2" stroke-linecap="round" stroke-linejoin="round"/>
</svg>
