<svg width="92" height="47" viewBox="0 0 92 47" fill="none" xmlns="http://www.w3.org/2000/svg">
<path d="M46.5433 15.3124C46.5433 15.3124 44.3942 9.41328 50.8352 6.51051C60.9098 12.6973 73.1981 25.733 84.8023 28.5555C89.8364 30.1139 95.2126 36.5949 88.707 40.6347C88.707 40.6347 86.2351 41.7918 83.4341 42.4941C80.0135 43.3502 75.6507 44.4337 73.4757 44.621C72.1784 44.7347 86.4481 46.3399 80.6395 46.7011C78.0063 46.8683 66.5441 46.4001 63.0267 46.166C44.7814 44.9554 38.6566 41.6714 27.0911 36.013C32.2672 37.2705 45.8463 41.3303 52.7069 41.5243C59.5674 41.7183 77.4319 42.8753 82.1433 39.491C74.1662 39.491 63.6205 40.0729 38.8502 31.9465C34.9327 30.3413 34.5648 30.0804 30.0922 28.0137C24.032 25.2113 21.0696 23.4389 17.9911 20.4893C20.6501 21.6464 26.2973 24.2615 30.6343 23.1513C30.4924 22.3286 3.52775 15.8275 0.449219 8.23612C2.68874 9.83465 19.4819 20.71 47.8987 22.984C30.2084 17.5263 3.75364 11.0988 0.817094 0.26355C3.47612 3.64788 18.7333 16.1686 37.0238 15.6402L33.5257 13.1722C33.5257 13.1722 33.6677 7.56059 38.4694 7.31981L46.5498 15.3058L46.5433 15.3124Z" fill="black"/>
</svg>
